<svg id="Layer_1" data-name="Layer 1" xmlns="http://www.w3.org/2000/svg" viewBox="0 0 1000 1000"><defs><style>.cls-1{fill:#223260;}.cls-2{fill:#333;}</style></defs><path class="cls-1" d="M107.7,563.27a9.32,9.32,0,0,1,2-2.14,13.1,13.1,0,0,1,1.8-1.34c1.76-1.27,3.52-2.64,5.29-4.06a19.5,19.5,0,0,0,4.32-4.94,65.36,65.36,0,0,0,3.1-6.58,12.69,12.69,0,0,0,1.19-4.79c0-1.61-.69-2.41-2.14-2.41a8.5,8.5,0,0,0-3.72,1.57,12.16,12.16,0,0,1-4,1.8c-.77.15-1.91.34-3.45.49s-2.83.23-4,.23a17.45,17.45,0,0,1-5.74-1,59.13,59.13,0,0,0-10.53-2.41,35.4,35.4,0,0,0-7.2-.73,24.16,24.16,0,0,0-3.59.23,27.69,27.69,0,0,0-8.16,2.29,30.29,30.29,0,0,0-7,5.4,24.13,24.13,0,0,0-4.44,6.74,17.7,17.7,0,0,0-2,7.16,2.82,2.82,0,0,0,1.19,2.64,2.41,2.41,0,0,0,2,.12,9.21,9.21,0,0,0,2.07-1.31c.8-.61,1.49-1.22,2.14-1.68a10.21,10.21,0,0,1,5.51-1.68,7.54,7.54,0,0,1,4.33,1.18,3.85,3.85,0,0,1,1.57,2.64A39.9,39.9,0,0,1,78.8,566c.11,2.26.23,4.06.34,5.51a81.19,81.19,0,0,1-.23,10.8c-.3,2.87-.46,5.2-.46,6.93a45.07,45.07,0,0,0,.69,7.46,46.49,46.49,0,0,1,.5,6,73.7,73.7,0,0,1-.5,7.7,3.09,3.09,0,0,1-.57,1.91,6,6,0,0,1-1.69,1.3c-.72.39-1.22.69-1.56.85a18.48,18.48,0,0,0-4.79,2.64,16.12,16.12,0,0,0-5.74,7.2,19,19,0,0,0-1.69,5.51,2.13,2.13,0,0,0,2.41,2.41,7,7,0,0,0,2.72-.73c1.07-.49,1.73-.8,2-1a10.32,10.32,0,0,1,4.6-1.19,7.82,7.82,0,0,1,2.14.46c1.45.5,2.14,1.76,2.14,3.83l-.23,7.42c0,4.52.12,7.58.23,9.38.16,3.49.16,7,0,10.3V666l.27,9.12a14.89,14.89,0,0,1-.73,5.16,10.61,10.61,0,0,1-3.36,4,79.6,79.6,0,0,0-7.2,6.24,36.76,36.76,0,0,0-5.52,7.88,14.81,14.81,0,0,0-1.41,4.79c0,2.11.3,3.22,1,3.37a2.74,2.74,0,0,0,1.91-.23,14.93,14.93,0,0,0,2.64-1.46,37.29,37.29,0,0,1,5-2.14,41,41,0,0,1,10.07-1,22.24,22.24,0,0,1,4.44.5,13.77,13.77,0,0,0,4.21.23,11,11,0,0,1,6.35,1.46,38.17,38.17,0,0,0,3.72,1.91,15.19,15.19,0,0,0,6.2,1.91,4.68,4.68,0,0,0,2-.49,7,7,0,0,0,2-1.69c.73-.76,1.22-1.34,1.57-1.64a23.71,23.71,0,0,0,1.91-1.69,21,21,0,0,0,1.92-2.18,17,17,0,0,1,2.52-2.49,14.8,14.8,0,0,0,2.26-2.3,10.29,10.29,0,0,0,2-4.09,4.76,4.76,0,0,0-1-3.1,21.51,21.51,0,0,0-5.24-4.1c-.66-.31-1.54-.65-2.65-1.07a9,9,0,0,1-2.87-1.53,9.14,9.14,0,0,1-3.37-2.87,7.36,7.36,0,0,1-1.8-3.6,39.94,39.94,0,0,1-.34-6.24c0-3.22-.12-5.86-.27-7.93-.15-1.41-.3-3.1-.5-5s-.23-4.18-.23-6.74a46.75,46.75,0,0,1,.23-5.25l.5-4.59a45.84,45.84,0,0,0,.15-4.9c-.11-1.34-.15-2.45-.15-3.25v-5a63.07,63.07,0,0,1,.27-6.93l.23-7.46c0-1.46-.19-4.56-.5-9.35a66.81,66.81,0,0,1,0-11c0-1,0-2.3.15-4s0-3.72-.15-6.09c-.5-6.55-.08-11.68,1.19-15.35A11.68,11.68,0,0,1,107.7,563.27ZM232.16,683.06a17.78,17.78,0,0,1-3.48-3,15.21,15.21,0,0,0-1.34-1.53,11,11,0,0,1-2.14-4.37,34.33,34.33,0,0,1-.5-7.16v-5.05l-.23-7c-.15-2.07-.19-4.1-.15-6.2s.15-3.83.15-5.28a53.59,53.59,0,0,0-.27-6.7c-.27-3.53-.46-6-.46-7.43l.23-7a36.89,36.89,0,0,0,.23-5L224,606.8a29.85,29.85,0,0,1,.23-4.56l.77-4a22.44,22.44,0,0,0,.23-3.14c0-1.92-.42-3.3-1.23-4.1a15,15,0,0,0-4.78-2.6,36.68,36.68,0,0,1-3.95-2.15A29.72,29.72,0,0,0,211.3,584c-.65-.15-1.76-.5-3.25-1a13.47,13.47,0,0,1-3.72-1.68,31.31,31.31,0,0,0-5.78-2.76,12.12,12.12,0,0,0-3.83-.61,4.16,4.16,0,0,0-2.6,1,24.57,24.57,0,0,0-2.91,2.87l-3.1,3.83a21.53,21.53,0,0,1-2.53,2.56,19.67,19.67,0,0,0-2.52,2.49L177,595.05a21.67,21.67,0,0,0-2,2.52c-.88,1.19-1.57,1.73-2,1.53s-.65-.68-.38-1.68a10.64,10.64,0,0,0,.38-1.91,9.67,9.67,0,0,1,.69-2.76,4.72,4.72,0,0,0,.46-1.8,3.08,3.08,0,0,0-.92-2.14,9.31,9.31,0,0,0-3-1.8c-1.34-.58-2.37-1-3-1.34a61.58,61.58,0,0,1-7.89-4.29,33.19,33.19,0,0,1-3.6-2.26,5.21,5.21,0,0,0-3.14-1.11,4.39,4.39,0,0,0-1.91.5,6.25,6.25,0,0,0-2,1.64,19.31,19.31,0,0,1-1.57,1.69,12.18,12.18,0,0,0-1.91,1.68c-.81.81-1.42,1.53-2,2.15l-4.28,5.55c-2.57,3.33-3.83,6.39-3.83,9.11a5.79,5.79,0,0,0,3.1,5,20.34,20.34,0,0,1,3.48,3,12.34,12.34,0,0,0,1.3,1.57,7.45,7.45,0,0,1,1.8,3.71,64.11,64.11,0,0,1,.62,6.59c0,3.06.07,5.55.26,7.46l.46,8.89c-.19,1.11-.42,3.29-.72,6.58a86.7,86.7,0,0,0-.5,9.23,105.75,105.75,0,0,0,.27,11.25l.23,7.47.26,10.53a28.44,28.44,0,0,1-.26,4.55l-.73,4.1a16.75,16.75,0,0,0-.23,3.1c0,1.91.38,3.25,1.22,4.1a14.89,14.89,0,0,0,4.79,2.6,65,65,0,0,1,7.89,4.33,37.79,37.79,0,0,1,3.6,2.25,5.09,5.09,0,0,0,3.13,1.11,4.67,4.67,0,0,0,1.92-.49,7.52,7.52,0,0,0,2-1.69c.73-.76,1.26-1.34,1.53-1.64a15,15,0,0,0,1.91-1.69,17.8,17.8,0,0,0,2-2.18l4.32-5.51c2.07-2.57,3.1-4.94,3.1-7.2a5.05,5.05,0,0,0-2.41-4.29,19.87,19.87,0,0,1-3.48-3,13.63,13.63,0,0,0-1.3-1.53,7.91,7.91,0,0,1-1.8-3.49c-.23-1.22-.42-3.18-.62-5.89,0-2.88,0-5.29-.23-7.2l-.23-7q0-1.14-.46-6.2a15.64,15.64,0,0,1,.12-4.56c.23-2.1.34-3.6.34-4.55v-.73l-.23-7.66a47,47,0,0,1,.12-8,8.68,8.68,0,0,1,2.76-4.17,14.67,14.67,0,0,1,1.8-1.57,9.61,9.61,0,0,0,2-2.3,42,42,0,0,1,5.06-4.55,6.31,6.31,0,0,1,4.06-1.92,5.74,5.74,0,0,1,2.64.73,15.59,15.59,0,0,0,2.18,1,8.11,8.11,0,0,1,4.29,4.29c.8,1.91,1.11,5,1,9.38a52.21,52.21,0,0,0,.27,6c0,.34,0,1.3.12,2.91s.11,4.48.11,8.61c0,4.63-.07,8.23-.23,10.8,0,3,0,5.59.23,7.65a97.14,97.14,0,0,1,.23,11.07,30.69,30.69,0,0,0,0,6c.16,2.57.23,4.56.23,6a14.42,14.42,0,0,1-.23,3.1l-.73,4.1a16.9,16.9,0,0,0-.22,3.1,5.81,5.81,0,0,0,1.18,4.1,15.75,15.75,0,0,0,4.79,2.6,61.13,61.13,0,0,1,7.92,4.33,42,42,0,0,1,3.6,2.25,5,5,0,0,0,3.1,1.11,4.68,4.68,0,0,0,2-.49,6.72,6.72,0,0,0,2-1.69c.69-.76,1.23-1.34,1.57-1.64a25.32,25.32,0,0,0,1.92-1.69,22,22,0,0,0,1.91-2.18l4.29-5.51c2.1-2.57,3.14-4.94,3.14-7.2A5.12,5.12,0,0,0,232.16,683.06Zm54.29-92.8a8.57,8.57,0,0,0-3.71-.5h-1.92a26,26,0,0,0-3.14.16,7.64,7.64,0,0,1-2.25-.16,1,1,0,0,1-.85-1l.46-4.06a20.8,20.8,0,0,0,.16-3.6,20.41,20.41,0,0,1-.16-2.41l-.23-10.57a28.86,28.86,0,0,1,.23-4.52l.73-4.09a17.45,17.45,0,0,0,.23-3.1c0-2-.38-3.3-1.19-4.1a14.84,14.84,0,0,0-4.78-2.6,63.51,63.51,0,0,1-7.93-4.37,29.77,29.77,0,0,1-3.6-2.26,5,5,0,0,0-3.1-1.07,4.2,4.2,0,0,0-1.91.46,8.64,8.64,0,0,0-2.07,1.69c-.73.8-1.22,1.37-1.53,1.68a14.32,14.32,0,0,0-1.91,1.68,15,15,0,0,0-1.92,2.19l-4.36,5.47c-2.07,2.57-3.1,4.94-3.1,7.2a5.05,5.05,0,0,0,2.41,4.32,20.06,20.06,0,0,1,3.48,3,11.49,11.49,0,0,0,1.34,1.57,11.7,11.7,0,0,1,2.38,4.33,28,28,0,0,1,.95,6l.5,5.74c0,1.15-.5,1.69-1.45,1.69l-5.29-.23a5.37,5.37,0,0,0-2.64.46c-.76.65-1.53,2.83-2.14,6.5l-1,5.52a14,14,0,0,0-.23,2.64,1.7,1.7,0,0,0,1.19,1.68,18.05,18.05,0,0,0,5.24.46,17.84,17.84,0,0,1,4.71.35c.58.26.81,1.11.81,2.52l-.23,5.52a7.38,7.38,0,0,0,.23,1.91,19,19,0,0,1,.26,3.37c0,1.45-.15,3.94-.49,7.43,0,2.87.11,5.05.23,6.47a38.6,38.6,0,0,1,0,8.88c0,1.11,0,2.49-.12,4.09a43,43,0,0,0,.12,5c.34,3.52.49,6,.49,7.47l-.23,6.92a44.26,44.26,0,0,0-.26,5.06l.26,10.53a28.44,28.44,0,0,1-.26,4.55l-.69,4.1a13.29,13.29,0,0,0-.23,3.1,5.81,5.81,0,0,0,1.18,4.1,15.37,15.37,0,0,0,4.79,2.6,61.13,61.13,0,0,1,7.92,4.33,40.53,40.53,0,0,1,3.6,2.25,5,5,0,0,0,3.1,1.11,4.45,4.45,0,0,0,1.92-.49,6.49,6.49,0,0,0,2-1.69c.72-.76,1.26-1.34,1.57-1.64a19.44,19.44,0,0,0,1.91-1.69,17.74,17.74,0,0,0,1.91-2.18l4.37-5.51c2.07-2.57,3.06-4.94,3.06-7.2a5,5,0,0,0-2.37-4.29,20.45,20.45,0,0,1-3.49-3,11.38,11.38,0,0,0-1.34-1.53,8.54,8.54,0,0,1-1.8-3.72,64.57,64.57,0,0,1-.57-6.62q0-4.54-.23-7.43l-.23-3.1c-.19-1.26-.38-3.18-.61-5.78a51.84,51.84,0,0,1-.12-8.12c.31-3.37.46-8.88.46-16.57.35-3.49.5-6.47.5-8.89s-.11-4.32-.23-5.85a29.33,29.33,0,0,1-.27-3.49c0-1.11.35-1.76,1-2a11.13,11.13,0,0,1,3.83-.11,9.53,9.53,0,0,0,4.09-.27c.81-.61,1.54-2.79,2.19-6.43l.92-5.55a13.62,13.62,0,0,0,.26-2.6A1.73,1.73,0,0,0,286.45,590.26Zm79.71,72.89c-1,0-2.22.62-3.83,1.92l-8.15,7.16c-1,.84-1.73,1.53-2.26,2.06s-1,1-1.34,1.31l-4.29,3.82a4.35,4.35,0,0,1-2.68.73,11.9,11.9,0,0,1-3.83-.73,35.3,35.3,0,0,1-5.86-2.83c-2.18-1.3-3.75-2.18-4.67-2.68-2.91-1.26-4.55-2.75-5.05-4.52a17.39,17.39,0,0,1-.34-2.79,31,31,0,0,1-.12-3.22c0-2.71.34-4.67,1.07-5.85a9.11,9.11,0,0,1,3-3,48.54,48.54,0,0,0,4.32-2.87,34.31,34.31,0,0,1,3.11-2.14c.8-.5,4.17-2.88,10.06-7.2,3.68-3.22,6.4-5.21,8.2-6,.46-.31,1.95-1.23,4.51-2.76a84.91,84.91,0,0,0,7.47-4.9c4.29-3,7-5.55,8-7.54s1.57-5.51,1.57-10.45c0-7.35-.57-12.71-1.68-16.08-1-2.68-3.26-5-7-6.93a5.9,5.9,0,0,0-1.57-.84c-.84-.42-2.07-1.11-3.68-2a29.77,29.77,0,0,0-3.48-1.92c-1.07-.49-1.8-.8-2.26-1a33.64,33.64,0,0,0-6.62-3c-1.49-.38-2.49-.65-3-.84a15.23,15.23,0,0,0-2.41-.46,5.94,5.94,0,0,0-3.1.84,37.36,37.36,0,0,0-3.83,2.76L334,583.06c-1.42,1.46-2.57,2.61-3.33,3.49a30.08,30.08,0,0,1-2.91,2.72,2,2,0,0,1-.58.76,1.53,1.53,0,0,0-.61.69l-4.09,4.33-4.06,4.05a51.63,51.63,0,0,1-4.1,3.83c-3.37,3.07-6.7,6.32-10.07,9.84-.76.84-1.76,1.76-2.83,2.8a18.28,18.28,0,0,0-2.8,3.1,9.26,9.26,0,0,0-1.34,4c-.11,2.83-.23,6.35-.23,10.53l-.23,8.15.23,5.74.23,6.74L297.09,666v9.35l-.23,10.52c0,3.56.31,5.82.85,6.86s2.06,2.14,4.44,3.25a28,28,0,0,1,3.94,2.15,26.86,26.86,0,0,0,4,2.14,50.9,50.9,0,0,1,9.8,4.1q8.16,4.53,13.9,5.05a10.65,10.65,0,0,0,4.48-1.46,22.14,22.14,0,0,0,5.63-4.55,32.4,32.4,0,0,1,5.24-4.33,37.31,37.31,0,0,0,6.28-5.74,29.25,29.25,0,0,1,4.17-4.33,43.53,43.53,0,0,0,4-3.82,34.22,34.22,0,0,0,3.59-3.72,13.84,13.84,0,0,1,3.07-3,7.71,7.71,0,0,0,3.86-7,5.52,5.52,0,0,0-1.68-4.06C369.68,664.57,367.61,663.15,366.16,663.15ZM323,633.64c0-.46,0-1.42.12-2.87a16.34,16.34,0,0,0-.35-4.29,14.5,14.5,0,0,1-.26-3.14V620.2a7.77,7.77,0,0,1,1.56-4.4,50.71,50.71,0,0,1,5.4-4.94l1.92-1.92c1.26-1.26,2.33-1.91,3.14-1.91a10.94,10.94,0,0,1,3.1,1.19l5.51,2.91,1,.46a11.12,11.12,0,0,1,2.64,1.68l.69.5c1.64,1.11,2.45,2.14,2.45,3.1s-1,2.41-2.91,3.83l-3.37,2.18-3.83,2.87a28.53,28.53,0,0,1-2.87,1.91,30.29,30.29,0,0,0-2.87,1.92,23.57,23.57,0,0,1-3.6,2.53c-1.3.72-2.22,1.22-2.87,1.53-1.92,1.3-3.14,1.91-3.6,1.91C323.36,635.55,323,634.94,323,633.64Zm144.83,49.88c0-12.44-.15-20.6-.5-24.42v-4.83c0-1.91-.07-4.06-.23-6.47V637c0-4.64-.07-8-.26-10.07a37.28,37.28,0,0,1-.12-4.83c.12-1.72.12-3,.12-3.83a25.92,25.92,0,0,0-.12-2.87,29.3,29.3,0,0,1,.12-4,38.9,38.9,0,0,0,.26-5.29v-5.28c0-4-.26-6.78-.84-8.39s-2-2.94-4.44-4A32.78,32.78,0,0,1,458,586.2a25,25,0,0,0-3.83-2.18c-.65-.15-1.72-.5-3.25-1a14,14,0,0,1-3.71-1.68,32.59,32.59,0,0,0-6.13-3,26.93,26.93,0,0,1-3.48-1.34,4.89,4.89,0,0,0-2.15-.46c-3.17,0-6.24,1.76-9.11,5.25l-3.1,3.83a18.77,18.77,0,0,1-2.53,2.56,17.84,17.84,0,0,0-2.52,2.49l-4.06,4.33L410,599.1a49.73,49.73,0,0,1-4.06,3.83c-3.36,3.07-6.73,6.32-10.06,9.84-.81.84-1.77,1.76-2.88,2.8a16.69,16.69,0,0,0-2.75,3.1,8.11,8.11,0,0,0-1.34,4c-.16,2.83-.23,6.35-.23,10.53l-.23,8.15.23,5.74.23,6.74-.23,12.67v9.35l-.23,10.56c0,3.52.27,5.78.8,6.82s2.07,2.14,4.44,3.25a36.2,36.2,0,0,1,4,2.18,30.06,30.06,0,0,0,3.94,2.15c.65.15,1.72.46,3.21,1a14.6,14.6,0,0,1,3.76,1.69,34.92,34.92,0,0,0,6.08,3,30,30,0,0,1,3.49,1.34,5,5,0,0,0,2.14.46c3.22,0,6.28-1.76,9.15-5.28l3.1-3.83c.81-1,1.61-1.87,2.41-2.75s1.57-1.8,2.38-2.76c1.61-1.91,2.68-2.87,3.14-2.87l.69.23c.49.34.57,1.53.26,3.6a35.31,35.31,0,0,0-.49,5.74l.72,6.7a13.11,13.11,0,0,1-.11,3.87,25.73,25.73,0,0,0-.38,4.09,43.48,43.48,0,0,0,.26,5l.23,5.28c0,3-.38,5-1.18,6-.19.35-2.11,2.49-5.75,6.47a12.62,12.62,0,0,0-2.41,2.53,11.55,11.55,0,0,1-1.91,2.07,6.65,6.65,0,0,1-4.33,1.91,16.43,16.43,0,0,1-5.24-1.68L416,739.61c-2.26-1.11-4.63-2.26-7.19-3.45a15.79,15.79,0,0,0-6.47-1.8,4.75,4.75,0,0,0-3.83,1.69,46.66,46.66,0,0,0-4.94,7.16c-.84,1.79-1.38,2.83-1.53,3.13-.65,1.27-1.34,2.49-2,3.6a29,29,0,0,0-2.07,3.6,10.09,10.09,0,0,0-1,3.83,4.11,4.11,0,0,0,1,2.76,9.74,9.74,0,0,0,3,2c1.38.65,2.29,1,2.75,1.22,1.31.61,2.57,1.3,3.83,2s2.68,1.49,4.1,2.26a90.16,90.16,0,0,1,11.75,5.55,14.71,14.71,0,0,1,2.18.92,5.48,5.48,0,0,0,2.61.73,4.46,4.46,0,0,0,1.91-.46,6.49,6.49,0,0,0,2-1.69c.77-.8,1.26-1.34,1.57-1.68l3.87-3.83a27.66,27.66,0,0,0,2.49-2.26c1-1.07,1.87-2,2.52-2.79a49.77,49.77,0,0,1,5.78-6.59c2.19-2.14,3.83-3.71,4.79-4.67.61-.61,1.45-1.53,2.49-2.76a16,16,0,0,1,3-2.75,66,66,0,0,0,7.66-7.43l3.37-3.6c4.17-4.17,6.62-10.1,7.42-17.76l.5-6.47c0-2.57.08-4.79.23-6.7a79.63,79.63,0,0,0,.23-8.42Zm-27.1-35.72a34.82,34.82,0,0,0-.46,6,28.49,28.49,0,0,0,.23,4,50.52,50.52,0,0,1,.23,5.39v1.92a7.78,7.78,0,0,1-2.65,5.51l-3.82,3.83a22.53,22.53,0,0,1-3.37,2.64c-.31.35-1,.46-1.92.46-1.57,0-4.48-1-8.65-3.1-2.83-1.26-4.52-2.8-5-4.56-.31-.34-.5-2.26-.5-5.74l.27-7.92-.27-8.39-.23-3.37a89.07,89.07,0,0,1,.23-10.3l-.23-13.93a10.58,10.58,0,0,1,3.14-6,17.74,17.74,0,0,1,1.8-1.57,8.6,8.6,0,0,0,2-2.26,7.3,7.3,0,0,1,2.52-2.41c.88-.46,1.46-.81,1.8-1a3.88,3.88,0,0,1,2.38-1,6.24,6.24,0,0,1,3.59,1.8,20.86,20.86,0,0,0,3.6,2.53,8,8,0,0,1,4.6,4.55,5.9,5.9,0,0,1,.23,1.77,36.71,36.71,0,0,0,.23,4v7.42c0,.65-.08,1.69-.12,3.14a18.14,18.14,0,0,0,.12,3.83,38.17,38.17,0,0,1,.69,7.2A44.88,44.88,0,0,1,440.74,647.8ZM570.9,595.16c-.92-1-3.41-2.83-7.39-5.4a24.76,24.76,0,0,1-4.82-2.87,62.55,62.55,0,0,0-15.35-6.74c-1.27-.26-2.07-.46-2.38-.46a6.52,6.52,0,0,0-3.14.85,46,46,0,0,0-3.82,2.75l-2.38,1.92-4.55,4.55-3.6,3.83L522,595.05a27,27,0,0,0-2,2.52c-.88,1.19-1.57,1.73-2,1.53s-.62-.68-.39-1.68a8.07,8.07,0,0,0,.39-1.91,11.71,11.71,0,0,1,.68-2.76,4.07,4.07,0,0,0,.5-1.8,2.93,2.93,0,0,0-1-2.14,9.25,9.25,0,0,0-3-1.8c-1.34-.58-2.33-1-3-1.34a61,61,0,0,1-7.88-4.29,32.23,32.23,0,0,1-3.6-2.26,5.23,5.23,0,0,0-3.14-1.11,4.53,4.53,0,0,0-1.91.5,6.94,6.94,0,0,0-2,1.64,21.05,21.05,0,0,1-1.57,1.69,18.25,18.25,0,0,0-1.92,1.68,27.9,27.9,0,0,0-1.91,2.15l-4.33,5.55c-2.52,3.33-3.83,6.39-3.83,9.11a5.78,5.78,0,0,0,3.14,5,22.33,22.33,0,0,1,3.49,3,11.24,11.24,0,0,0,1.26,1.57,7.44,7.44,0,0,1,1.8,3.6,34.54,34.54,0,0,1,.38,6.24c0,3.18.08,5.86.27,7.92l.46,8.89c-.65,6.7-1,12-1,15.81a107.08,107.08,0,0,0,.23,11.25l.27,7.47.23,10.53a29.6,29.6,0,0,1-.23,4.55l-.76,4.1a19.88,19.88,0,0,0-.23,3.1,5.8,5.8,0,0,0,1.22,4.1,15.12,15.12,0,0,0,4.79,2.6,61.43,61.43,0,0,1,7.88,4.33,32.33,32.33,0,0,1,3.6,2.25,5.23,5.23,0,0,0,3.14,1.11,4.66,4.66,0,0,0,1.91-.49,7.23,7.23,0,0,0,2-1.69c.73-.76,1.27-1.34,1.57-1.64a19.33,19.33,0,0,0,1.92-1.69,22,22,0,0,0,1.91-2.18l4.33-5.51c2.07-2.57,3.14-4.94,3.14-7.2a5.1,5.1,0,0,0-2.45-4.29,19.36,19.36,0,0,1-3.45-3,16.18,16.18,0,0,0-1.3-1.53,7.24,7.24,0,0,1-1.8-3.49,46.55,46.55,0,0,1-.65-5.89c0-2.88,0-5.29-.23-7.2l-.23-7q0-1.14-.46-6.2a19.18,19.18,0,0,1,.12-4.56c.23-2.1.34-3.6.34-4.55v-.73l-.23-7.66a47,47,0,0,1,.12-8,8.64,8.64,0,0,1,2.75-4.17l5.55-5.55a42.37,42.37,0,0,1,5.75-4.67c2.37-1.65,4.21-2.18,5.47-1.53.65.27,1.49.65,2.57,1a11.19,11.19,0,0,1,2.94,1.8,50.79,50.79,0,0,0,5.55,3.14c4.29,2.56,7.24,3.83,8.89,3.83s3.1-.88,4.51-2.64c.65-.62,1.61-1.61,2.91-2.87a22.3,22.3,0,0,0,2.87-3.37,23.26,23.26,0,0,0,3.11-4.06A8.91,8.91,0,0,0,570.9,601a10.84,10.84,0,0,1,.5-1.69C572.05,597.61,571.9,596.23,570.9,595.16Zm43.3-47.85a16.92,16.92,0,0,0-4.67-3.56,35.67,35.67,0,0,1-3.1-2.42,16.1,16.1,0,0,0-3.14-2.14c-1.11-.65-2.26-1.38-3.45-2.18a6.27,6.27,0,0,0-3.48-1.19,4.28,4.28,0,0,0-2.53.73,12.47,12.47,0,0,0-2.52,2.37,9.74,9.74,0,0,0-2,2.3c-.73,1-1.27,1.68-1.57,2l-3.83,5c-1.76,2.38-2.64,4.48-2.64,6.2v.5a4.87,4.87,0,0,0,1.91,3.83,47.06,47.06,0,0,0,6.47,4.33c.5.34,1.8,1.26,4,2.87s4,2.37,5.66,2.37a4.86,4.86,0,0,0,3.22-1.26,26.8,26.8,0,0,0,3.25-3.49c1.11-1.45,1.92-2.49,2.41-3.14s1.5-1.83,3.11-3.59a17.63,17.63,0,0,0,3.59-6A3.46,3.46,0,0,0,614.2,547.31Zm11.87,135.75a21.56,21.56,0,0,1-3.48-3,12.5,12.5,0,0,0-1.31-1.53,7.71,7.71,0,0,1-1.8-3.49,58.39,58.39,0,0,1-.61-5.89c0-2.88-.07-5.29-.23-7.2l-.23-9.57a15.34,15.34,0,0,0,0-3.83,16.7,16.7,0,0,1,0-3.87,47.64,47.64,0,0,0,.23-5.51,18.64,18.64,0,0,0-.46-5,28.44,28.44,0,0,1-.95-7.42,68.58,68.58,0,0,1,.46-7,36.24,36.24,0,0,0,.49-5l-.27-10.53a27.94,27.94,0,0,1,.27-4.56l.69-4.09a14.06,14.06,0,0,0,.27-3.11,5.54,5.54,0,0,0-1.23-4,14.86,14.86,0,0,0-4.78-2.68,61.29,61.29,0,0,1-7.93-4.29,41.56,41.56,0,0,1-3.59-2.26A5,5,0,0,0,598.5,578a4.25,4.25,0,0,0-1.91.5,6.25,6.25,0,0,0-2,1.64,19.31,19.31,0,0,1-1.57,1.69,17.39,17.39,0,0,0-1.91,1.68,20.42,20.42,0,0,0-1.92,2.15l-4.32,5.55c-2.11,2.56-3.14,4.94-3.14,7.2a5,5,0,0,0,2.41,4.28,19.4,19.4,0,0,1,3.48,3c.58.69,1,1.22,1.34,1.57a8.14,8.14,0,0,1,1.8,3.56,37.58,37.58,0,0,1,.35,6c0,1,.15,3.67.46,8.15a78.61,78.61,0,0,1,.49,10.53l-.26,12a7.59,7.59,0,0,1-.23,2.15,19.39,19.39,0,0,0-.46,4.55c0,2.11.15,5.36.46,9.84l.49,7,.23,10.53a28.33,28.33,0,0,1-.23,4.55l-.72,4.1a15.92,15.92,0,0,0-.23,3.1,5.81,5.81,0,0,0,1.18,4.1,15.88,15.88,0,0,0,4.79,2.6,61.73,61.73,0,0,1,7.93,4.33,36.28,36.28,0,0,1,3.59,2.25,5.06,5.06,0,0,0,3.14,1.11,4.67,4.67,0,0,0,1.92-.49,7.52,7.52,0,0,0,2-1.69c.69-.76,1.22-1.34,1.57-1.64s1.07-.92,1.91-1.69a20.73,20.73,0,0,0,1.91-2.18l4.33-5.51c2.07-2.57,3.1-4.94,3.1-7.2A5.05,5.05,0,0,0,626.07,683.06Zm61.52-92.8a8.67,8.67,0,0,0-3.75-.5h-1.91a25.34,25.34,0,0,0-3.11.16,8.06,8.06,0,0,1-2.29-.16,1,1,0,0,1-.81-1l.46-4.06a17.69,17.69,0,0,0,.12-3.6c-.08-1-.12-1.8-.12-2.41L676,568.17a28.86,28.86,0,0,1,.23-4.52l.73-4.09a17.45,17.45,0,0,0,.23-3.1c0-2-.38-3.3-1.19-4.1a14.84,14.84,0,0,0-4.78-2.6,63.51,63.51,0,0,1-7.93-4.37,33.32,33.32,0,0,1-3.6-2.26,5,5,0,0,0-3.1-1.07,4.2,4.2,0,0,0-1.91.46,8.64,8.64,0,0,0-2.07,1.69,19.72,19.72,0,0,1-1.57,1.68,17.39,17.39,0,0,0-1.91,1.68,28.83,28.83,0,0,0-1.92,2.19l-4.28,5.47c-2.11,2.57-3.14,4.94-3.14,7.2a5.05,5.05,0,0,0,2.41,4.32,18,18,0,0,1,3.44,3c.58.73,1,1.26,1.34,1.57a11.79,11.79,0,0,1,2.42,4.33,28.7,28.7,0,0,1,.95,6l.46,5.74c0,1.15-.46,1.69-1.41,1.69l-5.29-.23a5.17,5.17,0,0,0-2.64.46c-.8.65-1.49,2.83-2.14,6.5l-1,5.52a11.22,11.22,0,0,0-.27,2.64,1.73,1.73,0,0,0,1.23,1.68,18.2,18.2,0,0,0,5.28.46,17.07,17.07,0,0,1,4.63.35c.58.26.88,1.11.88,2.52l-.23,5.52a5.22,5.22,0,0,0,.23,1.91,18.54,18.54,0,0,1,.23,3.37c0,1.45-.19,3.94-.46,7.43a56.31,56.31,0,0,0,.23,6.47,42.31,42.31,0,0,1,0,8.88c0,1.11-.07,2.49-.11,4.09a27.52,27.52,0,0,0,.11,5q.46,5.28.46,7.47L650.3,666a37.35,37.35,0,0,0-.23,5.06l.23,10.53a28.33,28.33,0,0,1-.23,4.55l-.72,4.1a15.44,15.44,0,0,0-.27,3.1,5.8,5.8,0,0,0,1.22,4.1,15.37,15.37,0,0,0,4.79,2.6,62,62,0,0,1,7.89,4.33,32.09,32.09,0,0,1,3.59,2.25,5.23,5.23,0,0,0,3.14,1.11,4.67,4.67,0,0,0,1.92-.49,6.91,6.91,0,0,0,2.06-1.69c.69-.76,1.23-1.34,1.54-1.64a16.49,16.49,0,0,0,1.91-1.69,28,28,0,0,0,2-2.18l4.29-5.51c2.07-2.57,3.14-4.94,3.14-7.2a5.15,5.15,0,0,0-2.41-4.29,18.93,18.93,0,0,1-3.49-3,16.18,16.18,0,0,0-1.3-1.53,7.4,7.4,0,0,1-1.8-3.72,61.91,61.91,0,0,1-.61-6.62c0-3-.08-5.51-.27-7.43l-.23-3.1c-.15-1.26-.34-3.18-.57-5.78a57.22,57.22,0,0,1-.12-8.12c.31-3.37.46-8.88.46-16.57.35-3.49.46-6.47.46-8.89a50.73,50.73,0,0,0-.23-5.85c-.15-1.5-.23-2.68-.23-3.49,0-1.11.35-1.76,1-2a11.39,11.39,0,0,1,3.87-.11,9.39,9.39,0,0,0,4.06-.27c.8-.61,1.49-2.79,2.14-6.43l1-5.55a11,11,0,0,0,.26-2.6A1.8,1.8,0,0,0,687.59,590.26Zm43.42-43a17.23,17.23,0,0,0-4.71-3.56,35.67,35.67,0,0,1-3.1-2.42,14.25,14.25,0,0,0-3.14-2.14c-1.11-.65-2.26-1.38-3.49-2.18a6,6,0,0,0-3.48-1.19,4.31,4.31,0,0,0-2.49.73,12.47,12.47,0,0,0-2.53,2.37,10.71,10.71,0,0,0-2,2.3,18.37,18.37,0,0,1-1.56,2l-3.83,5c-1.76,2.38-2.64,4.48-2.64,6.2v.5a4.91,4.91,0,0,0,2,3.83,41.94,41.94,0,0,0,6.43,4.33c.5.34,1.8,1.26,4,2.87s4,2.37,5.63,2.37a5,5,0,0,0,3.25-1.26,29,29,0,0,0,3.22-3.49l2.41-3.14c.46-.61,1.49-1.83,3.1-3.59a17.5,17.5,0,0,0,3.6-6A3.62,3.62,0,0,0,731,547.31Zm11.83,135.75a20,20,0,0,1-3.49-3,11.78,11.78,0,0,0-1.3-1.53,7.52,7.52,0,0,1-1.76-3.49,40,40,0,0,1-.65-5.89c0-2.88-.08-5.29-.23-7.2l-.23-9.57a16.35,16.35,0,0,0,0-3.83,13.21,13.21,0,0,1,0-3.87,50,50,0,0,0,.23-5.51,18.64,18.64,0,0,0-.46-5,28.48,28.48,0,0,1-1-7.42c0-1.76.2-4.06.5-7a42.12,42.12,0,0,0,.5-5l-.23-10.53a25,25,0,0,1,.23-4.56l.69-4.09a17.49,17.49,0,0,0,.23-3.11c0-1.91-.38-3.25-1.15-4a16.76,16.76,0,0,0-4.82-2.68,63.36,63.36,0,0,1-7.93-4.29c-1.42-.81-2.6-1.57-3.6-2.26a5,5,0,0,0-3.1-1.11,4.39,4.39,0,0,0-1.91.5,6.69,6.69,0,0,0-2,1.64,15.47,15.47,0,0,1-1.57,1.69,14.92,14.92,0,0,0-1.92,1.68,21.36,21.36,0,0,0-1.91,2.15l-4.33,5.55c-2.06,2.56-3.1,4.94-3.1,7.2a5,5,0,0,0,2.38,4.28,18.35,18.35,0,0,1,3.48,3c.57.69,1,1.22,1.34,1.57a7.83,7.83,0,0,1,1.8,3.56,37.85,37.85,0,0,1,.34,6c0,1,.16,3.67.46,8.15a76.56,76.56,0,0,1,.5,10.53l-.23,12a8.77,8.77,0,0,1-.27,2.15,19.94,19.94,0,0,0-.46,4.55c0,2.11.16,5.36.46,9.84l.5,7,.23,10.53a29.6,29.6,0,0,1-.23,4.55l-.73,4.1a16.75,16.75,0,0,0-.23,3.1,5.81,5.81,0,0,0,1.19,4.1,15.49,15.49,0,0,0,4.82,2.6,64.2,64.2,0,0,1,7.89,4.33,36.56,36.56,0,0,1,3.6,2.25,5,5,0,0,0,3.1,1.11,4.45,4.45,0,0,0,1.92-.49,6.91,6.91,0,0,0,2.06-1.69c.73-.76,1.23-1.34,1.53-1.64a15.64,15.64,0,0,0,1.92-1.69,23,23,0,0,0,2-2.18l4.33-5.51c2.06-2.57,3.1-4.94,3.1-7.2A5.08,5.08,0,0,0,742.84,683.06Zm104.32,0a19.6,19.6,0,0,1-3.48-3c-.54-.73-1-1.23-1.31-1.57a10.43,10.43,0,0,1-2.18-4.33,38.46,38.46,0,0,1-.5-7.2v-5l-.23-6.93c-.15-2.11-.15-4.17-.11-6.24s.11-3.83.11-5.25a57.26,57.26,0,0,0-.22-6.73q-.47-5.29-.46-7.43l.23-7a44.86,44.86,0,0,0,.23-5L839,606.8a28.22,28.22,0,0,1,.23-4.56l.72-4a17,17,0,0,0,.23-3.14c0-1.92-.38-3.3-1.18-4.1a15.66,15.66,0,0,0-4.79-2.6,34,34,0,0,1-4-2.19A31.08,31.08,0,0,0,826.3,584c-.66-.15-1.69-.5-3.26-1a14,14,0,0,1-3.71-1.68,36.9,36.9,0,0,0-5.75-2.8,13.36,13.36,0,0,0-3.86-.57,4.19,4.19,0,0,0-2.61,1,24.72,24.72,0,0,0-2.87,2.87l-3.1,3.83a22.22,22.22,0,0,1-2.52,2.56,17.44,17.44,0,0,0-2.53,2.49L792,595.05a27.07,27.07,0,0,0-2.07,2.48c-.88,1.23-1.57,1.77-2,1.57s-.57-.68-.38-1.64a8.59,8.59,0,0,0,.38-1.92,8.75,8.75,0,0,1,.73-2.79,5.35,5.35,0,0,0,.46-1.8,3,3,0,0,0-1-2.14,10,10,0,0,0-3-1.8c-1.38-.58-2.38-1-3-1.34a61,61,0,0,1-7.88-4.29,33.9,33.9,0,0,1-3.6-2.26,5.12,5.12,0,0,0-3.1-1.11,4.87,4.87,0,0,0-1.92.46,7.07,7.07,0,0,0-2.06,1.72,18.38,18.38,0,0,1-1.57,1.65,18.25,18.25,0,0,0-1.92,1.68c-.76.84-1.41,1.53-1.91,2.15l-4.29,5.55c-2.57,3.33-3.87,6.39-3.87,9.11a5.81,5.81,0,0,0,3.1,5,18,18,0,0,1,3.49,3A18.38,18.38,0,0,0,758,609.9a7.46,7.46,0,0,1,1.76,3.71,51,51,0,0,1,.65,6.63c0,3,0,5.51.23,7.42l.5,8.89c-.19,1.11-.42,3.29-.73,6.58a88.83,88.83,0,0,0-.5,9.23,107.08,107.08,0,0,0,.23,11.25l.27,7.47.23,10.53a34.79,34.79,0,0,1-.23,4.51l-.73,4.14a13.5,13.5,0,0,0-.27,3.1,5.74,5.74,0,0,0,1.23,4.1,16.53,16.53,0,0,0,4.79,2.6,62.5,62.5,0,0,1,7.92,4.33,32.3,32.3,0,0,1,3.56,2.25,5.23,5.23,0,0,0,3.14,1.11,4.51,4.51,0,0,0,1.91-.49,7.05,7.05,0,0,0,2.07-1.69c.69-.76,1.23-1.34,1.53-1.64a25.32,25.32,0,0,0,1.92-1.69,17.74,17.74,0,0,0,1.91-2.18l4.33-5.51c2.06-2.57,3.14-4.94,3.14-7.16a5.08,5.08,0,0,0-2.42-4.33,21.24,21.24,0,0,1-3.48-3c-.57-.73-1-1.23-1.3-1.57a7.3,7.3,0,0,1-1.8-3.45,41.41,41.41,0,0,1-.61-5.89c0-2.88-.08-5.29-.23-7.2l-.23-6.93c0-.8-.19-2.87-.5-6.24a17.87,17.87,0,0,1,.11-4.6,38.06,38.06,0,0,0,.39-4.51v-.73l-.27-7.66a42.59,42.59,0,0,1,.15-8.07,9.2,9.2,0,0,1,2.72-4.18c.35-.3,1-.84,1.8-1.53a9,9,0,0,0,2-2.3,45.14,45.14,0,0,1,5.05-4.55,6.44,6.44,0,0,1,4.1-1.92,6.18,6.18,0,0,1,2.64.69,13.4,13.4,0,0,0,2.14,1,8.15,8.15,0,0,1,4.33,4.29c.77,1.91,1.07,5,1,9.38,0,2.41.07,4.36.23,6,0,.34,0,1.3.11,2.91s.16,4.44.16,8.61c0,4.63-.12,8.23-.27,10.8,0,3,.07,5.59.27,7.65a99,99,0,0,1,.19,11.07,36.41,36.41,0,0,0,0,6c.19,2.57.27,4.56.27,6a11.68,11.68,0,0,1-.27,3.06l-.69,4.14a13.5,13.5,0,0,0-.27,3.1c0,1.91.38,3.29,1.23,4.1a15.5,15.5,0,0,0,4.78,2.6,62,62,0,0,1,7.89,4.33,37.42,37.42,0,0,1,3.63,2.25,5,5,0,0,0,3.11,1.11,4.66,4.66,0,0,0,1.91-.49,7.6,7.6,0,0,0,2.07-1.69c.69-.76,1.22-1.34,1.53-1.64a15,15,0,0,0,1.91-1.69,21,21,0,0,0,1.92-2.18l4.32-5.51c2.11-2.57,3.14-4.94,3.14-7.16A5.16,5.16,0,0,0,847.16,683.06Zm93.11.46c0-12.44-.16-20.6-.5-24.42v-4.83c0-1.91-.08-4.06-.23-6.47V637c0-4.64-.08-8-.27-10.07a39.29,39.29,0,0,1-.11-4.83c.07-1.72.11-3,.11-3.83s0-1.72-.11-2.87a30.75,30.75,0,0,1,.11-4,38.62,38.62,0,0,0,.27-5.29v-5.28a29.89,29.89,0,0,0-.84-8.39c-.58-1.57-2-2.94-4.44-4a32,32,0,0,1-3.83-2.15A25.44,25.44,0,0,0,926.6,584c-.65-.15-1.72-.5-3.26-1a14.11,14.11,0,0,1-3.71-1.68,32.55,32.55,0,0,0-6.12-3,26.63,26.63,0,0,1-3.49-1.34,4.85,4.85,0,0,0-2.14-.46c-3.18,0-6.24,1.76-9.11,5.25l-3.1,3.83a18.77,18.77,0,0,1-2.53,2.56,17.48,17.48,0,0,0-2.53,2.49l-4.06,4.33-4.09,4.05a53.38,53.38,0,0,1-4.06,3.83c-3.37,3.07-6.74,6.32-10.07,9.84-.8.84-1.76,1.76-2.87,2.8a16.42,16.42,0,0,0-2.76,3.1,8.31,8.31,0,0,0-1.34,4c-.15,2.83-.23,6.35-.23,10.53l-.23,8.15.23,5.74.23,6.74-.23,12.67v9.35l-.23,10.56c0,3.52.27,5.78.81,6.82s2.07,2.14,4.44,3.25a35.29,35.29,0,0,1,4,2.18,30.06,30.06,0,0,0,3.94,2.15c.65.15,1.73.46,3.22,1a14.51,14.51,0,0,1,3.75,1.69,34.62,34.62,0,0,0,6.09,3,30.34,30.34,0,0,1,3.48,1.34,5,5,0,0,0,2.15.46c3.21,0,6.27-1.76,9.15-5.28l3.1-3.83c.8-1,1.6-1.87,2.41-2.75s1.57-1.8,2.37-2.76c1.61-1.91,2.68-2.87,3.14-2.87l.69.23c.5.34.58,1.53.27,3.6a34.29,34.29,0,0,0-.5,5.74l.73,6.7a13.48,13.48,0,0,1-.12,3.87,22.65,22.65,0,0,0-.38,4.09,43.14,43.14,0,0,0,.27,5l.23,5.28c0,3-.38,5-1.19,6-.19.35-2.1,2.49-5.74,6.47a12.34,12.34,0,0,0-2.41,2.53,13.77,13.77,0,0,1-1.07,1.3v22.17l1.3-1.53a49.05,49.05,0,0,1,5.78-6.59c2.18-2.14,3.83-3.71,4.75-4.67a33.21,33.21,0,0,0,2.52-2.76,16,16,0,0,1,3-2.75,66,66,0,0,0,7.65-7.43l3.37-3.6c4.18-4.17,6.63-10.1,7.43-17.76l.5-6.47c0-2.57.07-4.79.23-6.7a79.63,79.63,0,0,0,.23-8.42ZM913.16,647.8a35.84,35.84,0,0,0-.46,6,28.49,28.49,0,0,0,.23,4,50.52,50.52,0,0,1,.23,5.39v1.92a7.8,7.8,0,0,1-2.64,5.51l-3.83,3.83a21.53,21.53,0,0,1-3.37,2.64c-.3.35-1,.46-1.91.46-1.57,0-4.48-1-8.65-3.1-2.84-1.26-4.52-2.8-5-4.56-.31-.34-.5-2.26-.5-5.74l.27-7.92-.27-8.39-.23-3.37a91.38,91.38,0,0,1,.23-10.3L887,620.2a10.64,10.64,0,0,1,3.14-6,19,19,0,0,1,1.8-1.57,8.6,8.6,0,0,0,2-2.26,7.41,7.41,0,0,1,2.53-2.41c.88-.46,1.45-.81,1.8-1a3.85,3.85,0,0,1,2.37-1,6.27,6.27,0,0,1,3.6,1.8,20.12,20.12,0,0,0,3.6,2.53,8,8,0,0,1,4.59,4.55,5.59,5.59,0,0,1,.23,1.77,36.71,36.71,0,0,0,.23,4v7.42c0,.65-.07,1.69-.11,3.14a15.36,15.36,0,0,0,.11,3.83,38.17,38.17,0,0,1,.69,7.2A42.93,42.93,0,0,1,913.16,647.8Z"/><path class="cls-2" d="M229.62,782.81H252.7v12.87H209.2V782.81h7.16V770.52c-.58-8.33,2.57-12,9.49-11.08H252.7v13.21H235.52C231,772.65,229,776,229.62,782.81ZM97.2,795.54a9.91,9.91,0,0,0,4.7,1.21,10.08,10.08,0,0,0,4.69-1.21,8.6,8.6,0,0,0,3.54-3.48,9.57,9.57,0,0,0,1.24-4.66,9.23,9.23,0,0,0-1.3-4.7,9.69,9.69,0,0,0-3.54-3.54,9.34,9.34,0,0,0-9.3,0,9.25,9.25,0,0,0-3.48,3.54,9.45,9.45,0,0,0-.06,9.36A8,8,0,0,0,97.2,795.54Zm-20.74,0a9.87,9.87,0,0,0,4.69,1.21,10,10,0,0,0,4.69-1.21,8.15,8.15,0,0,0,3.54-3.48,9.61,9.61,0,0,0,1.27-4.66,9.36,9.36,0,0,0-1.32-4.7,9.5,9.5,0,0,0-8.18-4.78,9.37,9.37,0,0,0-4.63,1.24A9,9,0,0,0,73,782.7a9.66,9.66,0,0,0-.06,9.36A7.93,7.93,0,0,0,76.46,795.54ZM166.15,907.8a9.24,9.24,0,0,0-9.28,0,8.87,8.87,0,0,0-3.49,3.54,9.59,9.59,0,0,0-1.26,4.68,9.94,9.94,0,0,0,1.2,4.68,8.06,8.06,0,0,0,3.5,3.48,9.78,9.78,0,0,0,9.39,0,8.37,8.37,0,0,0,3.54-3.48A9.56,9.56,0,0,0,171,916a9.71,9.71,0,0,0-4.86-8.22Zm20.74,0a9.24,9.24,0,0,0-9.28,0,8.94,8.94,0,0,0-3.49,3.54,9.59,9.59,0,0,0-1.26,4.68,9.94,9.94,0,0,0,1.2,4.68,8.06,8.06,0,0,0,3.5,3.48,9.77,9.77,0,0,0,9.38,0,8.41,8.41,0,0,0,3.56-3.48,9.66,9.66,0,0,0,1.25-4.68,9.71,9.71,0,0,0-4.86-8.22Zm68.94-97.33V892.4H59.52V830.68c-.31-13,5.28-19.79,16.69-20.21h41.38V872h43.84V810.47h20.63V872h53.37V810.47Zm-158.76,21H89.34q-9.82-.63-9.19,8.19v32.08H97.07Zm408.1-35.91a10,10,0,0,0,4.69,1.21,9.93,9.93,0,0,0,4.69-1.21,8.23,8.23,0,0,0,3.55-3.48,9.39,9.39,0,0,0,1.26-4.66,9.58,9.58,0,0,0-4.87-8.24,9.43,9.43,0,0,0-4.63-1.24,9.54,9.54,0,0,0-4.63,1.24,8.91,8.91,0,0,0-3.48,3.54,9.49,9.49,0,0,0-1.27,4.7,9.87,9.87,0,0,0,1.21,4.66A7.86,7.86,0,0,0,505.17,795.54Zm-20.75,0a10.09,10.09,0,0,0,4.7,1.21,9.9,9.9,0,0,0,4.69-1.21,8.49,8.49,0,0,0,3.57-3.48,9.68,9.68,0,0,0,1.24-4.66,9.53,9.53,0,0,0-1.3-4.7,9.85,9.85,0,0,0-3.54-3.54,9.34,9.34,0,0,0-9.3,0A9.25,9.25,0,0,0,481,782.7a9.49,9.49,0,0,0-1.27,4.7,9.87,9.87,0,0,0,1.21,4.66A8.12,8.12,0,0,0,484.42,795.54Zm99.54,0a9.71,9.71,0,0,0,9.39,0,8.26,8.26,0,0,0,3.54-3.48,9.4,9.4,0,0,0,1.27-4.66,9.64,9.64,0,0,0-4.87-8.24,9.28,9.28,0,0,0-9.27,0,8.91,8.91,0,0,0-3.48,3.54,9.49,9.49,0,0,0-1.27,4.7,9.87,9.87,0,0,0,1.21,4.66A8,8,0,0,0,584,795.54Zm-20.75,0a10.09,10.09,0,0,0,4.7,1.21,9.9,9.9,0,0,0,4.69-1.21,8.49,8.49,0,0,0,3.57-3.48,9.26,9.26,0,0,0-.06-9.36,9.69,9.69,0,0,0-3.54-3.54,9.34,9.34,0,0,0-9.3,0,9.25,9.25,0,0,0-3.48,3.54,9.6,9.6,0,0,0-1.27,4.7,10,10,0,0,0,1.21,4.66A8.12,8.12,0,0,0,563.21,795.54Zm211.33,14.93V892.4H304l-38.39.11V727.32H287V872h33V837.46h20.86V872h9.53V810.47H415q17.34-.35,21.7,19.37L447.33,872h59V863H468.92V826.66q-1-16.81,16.73-16.19h41.23V872h39V810.47h20.63V872h102.3V810.47h20.48V872h12V810.47H742V872h11.9V810.47ZM422.75,872l-7.66-31.46c-2.6-6.51-6.93-9.5-13-8.92H371V872Zm83.61-41.57H496.22c-4.87-.23-7.13,2-6.74,6.54v9.77h16.88ZM831.18,866.9c.44,6.82-1.5,11.66-5.87,14.49l-47.16,37.75,13,17,53.92-44.06c5.4-3.84,7.91-9.92,7.56-18.18v-126H831.18ZM817.1,792.47H795.5V893.34L817.1,873Zm56.34-65.16V913.53l21.4-21.34V727.31Z"/><path class="cls-2" d="M593.8,151a166.64,166.64,0,0,0-235.29,0c-1.61,1.61-3.26,3.33-5,5.24l-.34.46c.53.19,1.07.35,1.57.58s1.11.38,1.68.53c1.42-1.61,2.91-3.1,4.33-4.51a163.33,163.33,0,0,1,230.81,0c58.77,58.72,64.2,151.87,12.56,216.68l-.39.5a153.64,153.64,0,0,1-12.21,13.63,143.48,143.48,0,0,1-13.9,12.4A162.93,162.93,0,0,1,360.8,384.1c-55-55-63.47-141.76-20.25-206.27.61-.92,1.23-1.84,1.88-2.76l1-1.26-1.65-.62-1.56-.57-.43.61c-.65,1-1.3,1.88-1.91,2.84-44.1,65.77-35.41,154.2,20.64,210.33a166.15,166.15,0,0,0,221.09,12.67,171,171,0,0,0,26.68-26.65l.31-.45C659.27,305.93,653.79,210.94,593.8,151Zm0,0a166.64,166.64,0,0,0-235.29,0c-1.61,1.61-3.26,3.33-5,5.24l-.34.46c.53.19,1.07.35,1.57.58s1.11.38,1.68.53c1.42-1.61,2.91-3.1,4.33-4.51a163.33,163.33,0,0,1,230.81,0c58.77,58.72,64.2,151.87,12.56,216.68l-.39.5a153.64,153.64,0,0,1-12.21,13.63,143.48,143.48,0,0,1-13.9,12.4A162.93,162.93,0,0,1,360.8,384.1c-55-55-63.47-141.76-20.25-206.27.61-.92,1.23-1.84,1.88-2.76l1-1.26-1.65-.62-1.56-.57-.43.61c-.65,1-1.3,1.88-1.91,2.84-44.1,65.77-35.41,154.2,20.64,210.33a166.15,166.15,0,0,0,221.09,12.67,171,171,0,0,0,26.68-26.65l.31-.45C659.27,305.93,653.79,210.94,593.8,151Zm0,0a166.64,166.64,0,0,0-235.29,0c-1.61,1.61-3.26,3.33-5,5.24l-.34.46c.53.19,1.07.35,1.57.58s1.11.38,1.68.53c1.42-1.61,2.91-3.1,4.33-4.51a163.33,163.33,0,0,1,230.81,0c58.77,58.72,64.2,151.87,12.56,216.68l-.39.5a153.64,153.64,0,0,1-12.21,13.63,143.48,143.48,0,0,1-13.9,12.4A162.93,162.93,0,0,1,360.8,384.1c-55-55-63.47-141.76-20.25-206.27.61-.92,1.23-1.84,1.88-2.76l1-1.26-1.65-.62-1.56-.57-.43.61c-.65,1-1.3,1.88-1.91,2.84-44.1,65.77-35.41,154.2,20.64,210.33a166.15,166.15,0,0,0,221.09,12.67,171,171,0,0,0,26.68-26.65l.31-.45C659.27,305.93,653.79,210.94,593.8,151Zm0,0a166.64,166.64,0,0,0-235.29,0c-1.61,1.61-3.26,3.33-5,5.24l-.34.46c.53.19,1.07.35,1.57.58s1.11.38,1.68.53c1.42-1.61,2.91-3.1,4.33-4.51a163.33,163.33,0,0,1,230.81,0c58.77,58.72,64.2,151.87,12.56,216.68l-.39.5a153.64,153.64,0,0,1-12.21,13.63,143.48,143.48,0,0,1-13.9,12.4A162.93,162.93,0,0,1,360.8,384.1c-55-55-63.47-141.76-20.25-206.27.61-.92,1.23-1.84,1.88-2.76l1-1.26-1.65-.62-1.56-.57-.43.61c-.65,1-1.3,1.88-1.91,2.84-44.1,65.77-35.41,154.2,20.64,210.33a166.15,166.15,0,0,0,221.09,12.67,171,171,0,0,0,26.68-26.65l.31-.45C659.27,305.93,653.79,210.94,593.8,151Zm0,0a166.64,166.64,0,0,0-235.29,0c-1.61,1.61-3.26,3.33-5,5.24l-.34.46c.53.19,1.07.35,1.57.58s1.11.38,1.68.53c1.42-1.61,2.91-3.1,4.33-4.51a163.33,163.33,0,0,1,230.81,0c58.77,58.72,64.2,151.87,12.56,216.68l-.39.5a153.64,153.64,0,0,1-12.21,13.63,143.48,143.48,0,0,1-13.9,12.4A162.93,162.93,0,0,1,360.8,384.1c-55-55-63.47-141.76-20.25-206.27.61-.92,1.23-1.84,1.88-2.76l1-1.26-1.65-.62-1.56-.57-.43.61c-.65,1-1.3,1.88-1.91,2.84-44.1,65.77-35.41,154.2,20.64,210.33a166.15,166.15,0,0,0,221.09,12.67,171,171,0,0,0,26.68-26.65l.31-.45C659.27,305.93,653.79,210.94,593.8,151Zm0,0a166.64,166.64,0,0,0-235.29,0c-1.61,1.61-3.26,3.33-5,5.24l-.34.46c.53.19,1.07.35,1.57.58s1.11.38,1.68.53c1.42-1.61,2.91-3.1,4.33-4.51a163.33,163.33,0,0,1,230.81,0c58.77,58.72,64.2,151.87,12.56,216.68l-.39.5a153.64,153.64,0,0,1-12.21,13.63,143.48,143.48,0,0,1-13.9,12.4A162.93,162.93,0,0,1,360.8,384.1c-55-55-63.47-141.76-20.25-206.27.61-.92,1.23-1.84,1.88-2.76l1-1.26-1.65-.62-1.56-.57-.43.61c-.65,1-1.3,1.88-1.91,2.84-44.1,65.77-35.41,154.2,20.64,210.33a166.15,166.15,0,0,0,221.09,12.67,171,171,0,0,0,26.68-26.65l.31-.45C659.27,305.93,653.79,210.94,593.8,151Zm0,0a166.64,166.64,0,0,0-235.29,0c-1.61,1.61-3.26,3.33-5,5.24l-.34.46c.53.19,1.07.35,1.57.58s1.11.38,1.68.53c1.42-1.61,2.91-3.1,4.33-4.51a163.33,163.33,0,0,1,230.81,0c58.77,58.72,64.2,151.87,12.56,216.68l-.39.5a153.64,153.64,0,0,1-12.21,13.63,143.48,143.48,0,0,1-13.9,12.4A162.93,162.93,0,0,1,360.8,384.1c-55-55-63.47-141.76-20.25-206.27.61-.92,1.23-1.84,1.88-2.76l1-1.26-1.65-.62-1.56-.57-.43.61c-.65,1-1.3,1.88-1.91,2.84-44.1,65.77-35.41,154.2,20.64,210.33a166.15,166.15,0,0,0,221.09,12.67,171,171,0,0,0,26.68-26.65l.31-.45C659.27,305.93,653.79,210.94,593.8,151Zm0,0a166.64,166.64,0,0,0-235.29,0c-1.61,1.61-3.26,3.33-5,5.24l-.34.46c.53.19,1.07.35,1.57.58s1.11.38,1.68.53c1.42-1.61,2.91-3.1,4.33-4.51a163.33,163.33,0,0,1,230.81,0c58.77,58.72,64.2,151.87,12.56,216.68l-.39.5a153.64,153.64,0,0,1-12.21,13.63,143.48,143.48,0,0,1-13.9,12.4A162.93,162.93,0,0,1,360.8,384.1c-55-55-63.47-141.76-20.25-206.27.61-.92,1.23-1.84,1.88-2.76l1-1.26-1.65-.62-1.56-.57-.43.61c-.65,1-1.3,1.88-1.91,2.84-44.1,65.77-35.41,154.2,20.64,210.33a166.15,166.15,0,0,0,221.09,12.67,171,171,0,0,0,26.68-26.65l.31-.45C659.27,305.93,653.79,210.94,593.8,151Zm0,0a166.64,166.64,0,0,0-235.29,0c-1.61,1.61-3.26,3.33-5,5.24l-.34.46c.53.19,1.07.35,1.57.58s1.11.38,1.68.53c1.42-1.61,2.91-3.1,4.33-4.51a163.33,163.33,0,0,1,230.81,0c58.77,58.72,64.2,151.87,12.56,216.68l-.39.5a153.64,153.64,0,0,1-12.21,13.63,143.48,143.48,0,0,1-13.9,12.4A162.93,162.93,0,0,1,360.8,384.1c-55-55-63.47-141.76-20.25-206.27.61-.92,1.23-1.84,1.88-2.76l1-1.26-1.65-.62-1.56-.57-.43.61c-.65,1-1.3,1.88-1.91,2.84-44.1,65.77-35.41,154.2,20.64,210.33a166.15,166.15,0,0,0,221.09,12.67,171,171,0,0,0,26.68-26.65l.31-.45C659.27,305.93,653.79,210.94,593.8,151Zm0,0a166.64,166.64,0,0,0-235.29,0c-1.61,1.61-3.26,3.33-5,5.24l-.34.46c.53.19,1.07.35,1.57.58s1.11.38,1.68.53c1.42-1.61,2.91-3.1,4.33-4.51a163.33,163.33,0,0,1,230.81,0c58.77,58.72,64.2,151.87,12.56,216.68l-.39.5a153.64,153.64,0,0,1-12.21,13.63,143.48,143.48,0,0,1-13.9,12.4A162.93,162.93,0,0,1,360.8,384.1c-55-55-63.47-141.76-20.25-206.27.61-.92,1.23-1.84,1.88-2.76l1-1.26-1.65-.62-1.56-.57-.43.61c-.65,1-1.3,1.88-1.91,2.84-44.1,65.77-35.41,154.2,20.64,210.33a166.15,166.15,0,0,0,221.09,12.67,171,171,0,0,0,26.68-26.65l.31-.45C659.27,305.93,653.79,210.94,593.8,151Zm0,0a166.64,166.64,0,0,0-235.29,0c-1.61,1.61-3.26,3.33-5,5.24l-.34.46c.53.19,1.07.35,1.57.58s1.11.38,1.68.53c1.42-1.61,2.91-3.1,4.33-4.51a163.33,163.33,0,0,1,230.81,0c58.77,58.72,64.2,151.87,12.56,216.68l-.39.5a153.64,153.64,0,0,1-12.21,13.63,143.48,143.48,0,0,1-13.9,12.4A162.93,162.93,0,0,1,360.8,384.1c-55-55-63.47-141.76-20.25-206.27.61-.92,1.23-1.84,1.88-2.76l1-1.26-1.65-.62-1.56-.57-.43.61c-.65,1-1.3,1.88-1.91,2.84-44.1,65.77-35.41,154.2,20.64,210.33a166.15,166.15,0,0,0,221.09,12.67,171,171,0,0,0,26.68-26.65l.31-.45C659.27,305.93,653.79,210.94,593.8,151Zm0,0a166.64,166.64,0,0,0-235.29,0c-1.61,1.61-3.26,3.33-5,5.24l-.34.46c.53.19,1.07.35,1.57.58s1.11.38,1.68.53c1.42-1.61,2.91-3.1,4.33-4.51a163.33,163.33,0,0,1,230.81,0c58.77,58.72,64.2,151.87,12.56,216.68l-.39.5a153.64,153.64,0,0,1-12.21,13.63,143.48,143.48,0,0,1-13.9,12.4A162.93,162.93,0,0,1,360.8,384.1c-55-55-63.47-141.76-20.25-206.27.61-.92,1.23-1.84,1.88-2.76l1-1.26-1.65-.62-1.56-.57-.43.61c-.65,1-1.3,1.88-1.91,2.84-44.1,65.77-35.41,154.2,20.64,210.33a166.15,166.15,0,0,0,221.09,12.67,171,171,0,0,0,26.68-26.65l.31-.45C659.27,305.93,653.79,210.94,593.8,151Zm0,0a166.64,166.64,0,0,0-235.29,0c-1.61,1.61-3.26,3.33-5,5.24l-.34.46c.53.19,1.07.35,1.57.58s1.11.38,1.68.53c1.42-1.61,2.91-3.1,4.33-4.51a163.33,163.33,0,0,1,230.81,0c58.77,58.72,64.2,151.87,12.56,216.68l-.39.5a153.64,153.64,0,0,1-12.21,13.63,143.48,143.48,0,0,1-13.9,12.4A162.93,162.93,0,0,1,360.8,384.1c-55-55-63.47-141.76-20.25-206.27.61-.92,1.23-1.84,1.88-2.76l1-1.26-1.65-.62-1.56-.57-.43.61c-.65,1-1.3,1.88-1.91,2.84-44.1,65.77-35.41,154.2,20.64,210.33a166.15,166.15,0,0,0,221.09,12.67,171,171,0,0,0,26.68-26.65l.31-.45C659.27,305.93,653.79,210.94,593.8,151Zm0,0a166.64,166.64,0,0,0-235.29,0c-1.61,1.61-3.26,3.33-5,5.24l-.34.46c.53.19,1.07.35,1.57.58s1.11.38,1.68.53c1.42-1.61,2.91-3.1,4.33-4.51a163.33,163.33,0,0,1,230.81,0c58.77,58.72,64.2,151.87,12.56,216.68l-.39.5a153.64,153.64,0,0,1-12.21,13.63,143.48,143.48,0,0,1-13.9,12.4A162.93,162.93,0,0,1,360.8,384.1c-55-55-63.47-141.76-20.25-206.27.61-.92,1.23-1.84,1.88-2.76l1-1.26-1.65-.62-1.56-.57-.43.61c-.65,1-1.3,1.88-1.91,2.84-44.1,65.77-35.41,154.2,20.64,210.33a166.15,166.15,0,0,0,221.09,12.67,171,171,0,0,0,26.68-26.65l.31-.45C659.27,305.93,653.79,210.94,593.8,151Zm0,0a166.64,166.64,0,0,0-235.29,0c-1.61,1.61-3.26,3.33-5,5.24l-.34.46c.53.19,1.07.35,1.57.58s1.11.38,1.68.53c1.42-1.61,2.91-3.1,4.33-4.51a163.33,163.33,0,0,1,230.81,0c58.77,58.72,64.2,151.87,12.56,216.68l-.39.5a153.64,153.64,0,0,1-12.21,13.63,143.48,143.48,0,0,1-13.9,12.4A162.93,162.93,0,0,1,360.8,384.1c-55-55-63.47-141.76-20.25-206.27.61-.92,1.23-1.84,1.88-2.76l1-1.26-1.65-.62-1.56-.57-.43.61c-.65,1-1.3,1.88-1.91,2.84-44.1,65.77-35.41,154.2,20.64,210.33a166.15,166.15,0,0,0,221.09,12.67,171,171,0,0,0,26.68-26.65l.31-.45C659.27,305.93,653.79,210.94,593.8,151Zm0,0a166.64,166.64,0,0,0-235.29,0c-1.61,1.61-3.26,3.33-5,5.24l-.34.46c.53.19,1.07.35,1.57.58s1.11.38,1.68.53c1.42-1.61,2.91-3.1,4.33-4.51a163.33,163.33,0,0,1,230.81,0c58.77,58.72,64.2,151.87,12.56,216.68l-.39.5a153.64,153.64,0,0,1-12.21,13.63,143.48,143.48,0,0,1-13.9,12.4A162.93,162.93,0,0,1,360.8,384.1c-55-55-63.47-141.76-20.25-206.27.61-.92,1.23-1.84,1.88-2.76l1-1.26-1.65-.62-1.56-.57-.43.61c-.65,1-1.3,1.88-1.91,2.84-44.1,65.77-35.41,154.2,20.64,210.33a166.15,166.15,0,0,0,221.09,12.67,171,171,0,0,0,26.68-26.65l.31-.45C659.27,305.93,653.79,210.94,593.8,151Zm0,0a166.64,166.64,0,0,0-235.29,0c-1.61,1.61-3.26,3.33-5,5.24l-.34.46c.53.19,1.07.35,1.57.58s1.11.38,1.68.53c1.42-1.61,2.91-3.1,4.33-4.51a163.33,163.33,0,0,1,230.81,0c58.77,58.72,64.2,151.87,12.56,216.68l-.39.5a153.64,153.64,0,0,1-12.21,13.63,143.48,143.48,0,0,1-13.9,12.4A162.93,162.93,0,0,1,360.8,384.1c-55-55-63.47-141.76-20.25-206.27.61-.92,1.23-1.84,1.88-2.76l1-1.26-1.65-.62-1.56-.57-.43.61c-.65,1-1.3,1.88-1.91,2.84-44.1,65.77-35.41,154.2,20.64,210.33a166.15,166.15,0,0,0,221.09,12.67,171,171,0,0,0,26.68-26.65l.31-.45C659.27,305.93,653.79,210.94,593.8,151Zm0,0a166.64,166.64,0,0,0-235.29,0c-1.61,1.61-3.26,3.33-5,5.24l-.34.46c.53.19,1.07.35,1.57.58s1.11.38,1.68.53c1.42-1.61,2.91-3.1,4.33-4.51a163.33,163.33,0,0,1,230.81,0c58.77,58.72,64.2,151.87,12.56,216.68l-.39.5a153.64,153.64,0,0,1-12.21,13.63,143.48,143.48,0,0,1-13.9,12.4A162.93,162.93,0,0,1,360.8,384.1c-55-55-63.47-141.76-20.25-206.27.61-.92,1.23-1.84,1.88-2.76l1-1.26-1.65-.62-1.56-.57-.43.61c-.65,1-1.3,1.88-1.91,2.84-44.1,65.77-35.41,154.2,20.64,210.33a166.15,166.15,0,0,0,221.09,12.67,171,171,0,0,0,26.68-26.65l.31-.45C659.27,305.93,653.79,210.94,593.8,151Zm0,0a166.64,166.64,0,0,0-235.29,0c-1.61,1.61-3.26,3.33-5,5.24l-.34.46c.53.19,1.07.35,1.57.58s1.11.38,1.68.53c1.42-1.61,2.91-3.1,4.33-4.51a163.33,163.33,0,0,1,230.81,0c58.77,58.72,64.2,151.87,12.56,216.68l-.39.5a153.64,153.64,0,0,1-12.21,13.63,143.48,143.48,0,0,1-13.9,12.4A162.93,162.93,0,0,1,360.8,384.1c-55-55-63.47-141.76-20.25-206.27.61-.92,1.23-1.84,1.88-2.76l1-1.26-1.65-.62-1.56-.57-.43.61c-.65,1-1.3,1.88-1.91,2.84-44.1,65.77-35.41,154.2,20.64,210.33a166.15,166.15,0,0,0,221.09,12.67,171,171,0,0,0,26.68-26.65l.31-.45C659.27,305.93,653.79,210.94,593.8,151Zm0,0a166.64,166.64,0,0,0-235.29,0c-1.61,1.61-3.26,3.33-5,5.24l-.34.46c.53.19,1.07.35,1.57.58s1.11.38,1.68.53c1.42-1.61,2.91-3.1,4.33-4.51a163.33,163.33,0,0,1,230.81,0c58.77,58.72,64.2,151.87,12.56,216.68l-.39.5a153.64,153.64,0,0,1-12.21,13.63,143.48,143.48,0,0,1-13.9,12.4A162.93,162.93,0,0,1,360.8,384.1c-55-55-63.47-141.76-20.25-206.27.61-.92,1.23-1.84,1.88-2.76l1-1.26-1.65-.62-1.56-.57-.43.61c-.65,1-1.3,1.88-1.91,2.84-44.1,65.77-35.41,154.2,20.64,210.33a166.15,166.15,0,0,0,221.09,12.67,171,171,0,0,0,26.68-26.65l.31-.45C659.27,305.93,653.79,210.94,593.8,151Zm0,0a166.64,166.64,0,0,0-235.29,0c-1.61,1.61-3.26,3.33-5,5.24l-.34.46c.53.19,1.07.35,1.57.58s1.11.38,1.68.53c1.42-1.61,2.91-3.1,4.33-4.51a163.33,163.33,0,0,1,230.81,0c58.77,58.72,64.2,151.87,12.56,216.68l-.39.5a153.64,153.64,0,0,1-12.21,13.63,143.48,143.48,0,0,1-13.9,12.4A162.93,162.93,0,0,1,360.8,384.1c-55-55-63.47-141.76-20.25-206.27.61-.92,1.23-1.84,1.88-2.76l1-1.26-1.65-.62-1.56-.57-.43.61c-.65,1-1.3,1.88-1.91,2.84-44.1,65.77-35.41,154.2,20.64,210.33a166.15,166.15,0,0,0,221.09,12.67,171,171,0,0,0,26.68-26.65l.31-.45C659.27,305.93,653.79,210.94,593.8,151Zm0,0a166.64,166.64,0,0,0-235.29,0c-1.61,1.61-3.26,3.33-5,5.24l-.34.46c.53.19,1.07.35,1.57.58s1.11.38,1.68.53c1.42-1.61,2.91-3.1,4.33-4.51a163.33,163.33,0,0,1,230.81,0c58.77,58.72,64.2,151.87,12.56,216.68l-.39.5a153.64,153.64,0,0,1-12.21,13.63,143.48,143.48,0,0,1-13.9,12.4A162.93,162.93,0,0,1,360.8,384.1c-55-55-63.47-141.76-20.25-206.27.61-.92,1.23-1.84,1.88-2.76l1-1.26-1.65-.62-1.56-.57-.43.61c-.65,1-1.3,1.88-1.91,2.84-44.1,65.77-35.41,154.2,20.64,210.33a166.15,166.15,0,0,0,221.09,12.67,171,171,0,0,0,26.68-26.65l.31-.45C659.27,305.93,653.79,210.94,593.8,151Zm0,0a166.64,166.64,0,0,0-235.29,0c-1.61,1.61-3.26,3.33-5,5.24l-.34.46c.53.19,1.07.35,1.57.58s1.11.38,1.68.53c1.42-1.61,2.91-3.1,4.33-4.51a163.33,163.33,0,0,1,230.81,0c58.77,58.72,64.2,151.87,12.56,216.68l-.39.5a153.64,153.64,0,0,1-12.21,13.63,143.48,143.48,0,0,1-13.9,12.4A162.93,162.93,0,0,1,360.8,384.1c-55-55-63.47-141.76-20.25-206.27.61-.92,1.23-1.84,1.88-2.76l1-1.26-1.65-.62-1.56-.57-.43.61c-.65,1-1.3,1.88-1.91,2.84-44.1,65.77-35.41,154.2,20.64,210.33a166.15,166.15,0,0,0,221.09,12.67,171,171,0,0,0,26.68-26.65l.31-.45C659.27,305.93,653.79,210.94,593.8,151Zm0,0a166.64,166.64,0,0,0-235.29,0c-1.61,1.61-3.26,3.33-5,5.24l-.34.46c.53.19,1.07.35,1.57.58s1.11.38,1.68.53c1.42-1.61,2.91-3.1,4.33-4.51a163.33,163.33,0,0,1,230.81,0c58.77,58.72,64.2,151.87,12.56,216.68l-.39.5a153.64,153.64,0,0,1-12.21,13.63,143.48,143.48,0,0,1-13.9,12.4A162.93,162.93,0,0,1,360.8,384.1c-55-55-63.47-141.76-20.25-206.27.61-.92,1.23-1.84,1.88-2.76l1-1.26-1.65-.62-1.56-.57-.43.61c-.65,1-1.3,1.88-1.91,2.84-44.1,65.77-35.41,154.2,20.64,210.33a166.15,166.15,0,0,0,221.09,12.67,171,171,0,0,0,26.68-26.65l.31-.45C659.27,305.93,653.79,210.94,593.8,151Zm0,0a166.64,166.64,0,0,0-235.29,0c-1.61,1.61-3.26,3.33-5,5.24l-.34.46c.53.19,1.07.35,1.57.58s1.11.38,1.68.53c1.42-1.61,2.91-3.1,4.33-4.51a163.33,163.33,0,0,1,230.81,0c58.77,58.72,64.2,151.87,12.56,216.68l-.39.5a153.64,153.64,0,0,1-12.21,13.63,143.48,143.48,0,0,1-13.9,12.4A162.93,162.93,0,0,1,360.8,384.1c-55-55-63.47-141.76-20.25-206.27.61-.92,1.23-1.84,1.88-2.76l1-1.26-1.65-.62-1.56-.57-.43.61c-.65,1-1.3,1.88-1.91,2.84-44.1,65.77-35.41,154.2,20.64,210.33a166.15,166.15,0,0,0,221.09,12.67,171,171,0,0,0,26.68-26.65l.31-.45C659.27,305.93,653.79,210.94,593.8,151Zm0,0a166.64,166.64,0,0,0-235.29,0c-1.61,1.61-3.26,3.33-5,5.24l-.34.46c.53.19,1.07.35,1.57.58s1.11.38,1.68.53c1.42-1.61,2.91-3.1,4.33-4.51a163.33,163.33,0,0,1,230.81,0c58.77,58.72,64.2,151.87,12.56,216.68l-.39.5a153.64,153.64,0,0,1-12.21,13.63,143.48,143.48,0,0,1-13.9,12.4A162.93,162.93,0,0,1,360.8,384.1c-55-55-63.47-141.76-20.25-206.27.61-.92,1.23-1.84,1.88-2.76l1-1.26-1.65-.62-1.56-.57-.43.61c-.65,1-1.3,1.88-1.91,2.84-44.1,65.77-35.41,154.2,20.64,210.33a166.15,166.15,0,0,0,221.09,12.67,171,171,0,0,0,26.68-26.65l.31-.45C659.27,305.93,653.79,210.94,593.8,151Zm124.73,311.4-74.08-74.08c-.19-.23-.61-.61-1.19-1.15A204.86,204.86,0,0,0,331.33,123.81c-4.33,4.36-8.43,8.8-12.22,13.28-4.78,5.78-9.22,11.72-13.17,17.61-54.32,81-43.64,189.85,25.39,258.92a204.51,204.51,0,0,0,263.39,22.16L670,511.05a33.9,33.9,0,0,0,24.27,10,34.18,34.18,0,0,0,34.38-34.26A33.92,33.92,0,0,0,718.53,462.43Zm-2.22,46.36a31.31,31.31,0,0,1-44.1,0l-74.12-74.08-3-3.14-1.15.85a201.3,201.3,0,0,1-260.4-21.1c-67.92-67.95-78.41-175.15-25-254.86,3.91-5.81,8.31-11.63,13-17.3,3.72-4.4,7.77-8.81,12-13.09a201.65,201.65,0,0,1,306.28,260.4l-.85,1.15,2,1.8c.57.58,1,1,1.26,1.19l74.08,74.12a31.19,31.19,0,0,1,0,44.06ZM593.8,151a166.64,166.64,0,0,0-235.29,0c-1.61,1.61-3.26,3.33-5,5.24l-.34.46c.53.19,1.07.35,1.57.58s1.11.38,1.68.53c1.42-1.61,2.91-3.1,4.33-4.51a163.33,163.33,0,0,1,230.81,0c58.77,58.72,64.2,151.87,12.56,216.68l-.39.5a153.64,153.64,0,0,1-12.21,13.63,143.48,143.48,0,0,1-13.9,12.4A162.93,162.93,0,0,1,360.8,384.1c-55-55-63.47-141.76-20.25-206.27.61-.92,1.23-1.84,1.88-2.76l1-1.26-1.65-.62-1.56-.57-.43.61c-.65,1-1.3,1.88-1.91,2.84-44.1,65.77-35.41,154.2,20.64,210.33a166.15,166.15,0,0,0,221.09,12.67,171,171,0,0,0,26.68-26.65l.31-.45C659.27,305.93,653.79,210.94,593.8,151Zm0,0a166.64,166.64,0,0,0-235.29,0c-1.61,1.61-3.26,3.33-5,5.24l-.34.46c.53.19,1.07.35,1.57.58s1.11.38,1.68.53c1.42-1.61,2.91-3.1,4.33-4.51a163.33,163.33,0,0,1,230.81,0c58.77,58.72,64.2,151.87,12.56,216.68l-.39.5a153.64,153.64,0,0,1-12.21,13.63,143.48,143.48,0,0,1-13.9,12.4A162.93,162.93,0,0,1,360.8,384.1c-55-55-63.47-141.76-20.25-206.27.61-.92,1.23-1.84,1.88-2.76l1-1.26-1.65-.62-1.56-.57-.43.61c-.65,1-1.3,1.88-1.91,2.84-44.1,65.77-35.41,154.2,20.64,210.33a166.15,166.15,0,0,0,221.09,12.67,171,171,0,0,0,26.68-26.65l.31-.45C659.27,305.93,653.79,210.94,593.8,151Zm0,0a166.64,166.64,0,0,0-235.29,0c-1.61,1.61-3.26,3.33-5,5.24l-.34.46c.53.19,1.07.35,1.57.58s1.11.38,1.68.53c1.42-1.61,2.91-3.1,4.33-4.51a163.33,163.33,0,0,1,230.81,0c58.77,58.72,64.2,151.87,12.56,216.68l-.39.5a153.64,153.64,0,0,1-12.21,13.63,143.48,143.48,0,0,1-13.9,12.4A162.93,162.93,0,0,1,360.8,384.1c-55-55-63.47-141.76-20.25-206.27.61-.92,1.23-1.84,1.88-2.76l1-1.26-1.65-.62-1.56-.57-.43.61c-.65,1-1.3,1.88-1.91,2.84-44.1,65.77-35.41,154.2,20.64,210.33a166.15,166.15,0,0,0,221.09,12.67,171,171,0,0,0,26.68-26.65l.31-.45C659.27,305.93,653.79,210.94,593.8,151Zm0,0a166.64,166.64,0,0,0-235.29,0c-1.61,1.61-3.26,3.33-5,5.24l-.34.46c.53.19,1.07.35,1.57.58s1.11.38,1.68.53c1.42-1.61,2.91-3.1,4.33-4.51a163.33,163.33,0,0,1,230.81,0c58.77,58.72,64.2,151.87,12.56,216.68l-.39.5a153.64,153.64,0,0,1-12.21,13.63,143.48,143.48,0,0,1-13.9,12.4A162.93,162.93,0,0,1,360.8,384.1c-55-55-63.47-141.76-20.25-206.27.61-.92,1.23-1.84,1.88-2.76l1-1.26-1.65-.62-1.56-.57-.43.61c-.65,1-1.3,1.88-1.91,2.84-44.1,65.77-35.41,154.2,20.64,210.33a166.15,166.15,0,0,0,221.09,12.67,171,171,0,0,0,26.68-26.65l.31-.45C659.27,305.93,653.79,210.94,593.8,151Zm0,0a166.64,166.64,0,0,0-235.29,0c-1.61,1.61-3.26,3.33-5,5.24l-.34.46c.53.19,1.07.35,1.57.58s1.11.38,1.68.53c1.42-1.61,2.91-3.1,4.33-4.51a163.33,163.33,0,0,1,230.81,0c58.77,58.72,64.2,151.87,12.56,216.68l-.39.5a153.64,153.64,0,0,1-12.21,13.63,143.48,143.48,0,0,1-13.9,12.4A162.93,162.93,0,0,1,360.8,384.1c-55-55-63.47-141.76-20.25-206.27.61-.92,1.23-1.84,1.88-2.76l1-1.26-1.65-.62-1.56-.57-.43.61c-.65,1-1.3,1.88-1.91,2.84-44.1,65.77-35.41,154.2,20.64,210.33a166.15,166.15,0,0,0,221.09,12.67,171,171,0,0,0,26.68-26.65l.31-.45C659.27,305.93,653.79,210.94,593.8,151Zm0,0a166.64,166.64,0,0,0-235.29,0c-1.61,1.61-3.26,3.33-5,5.24l-.34.46c.53.19,1.07.35,1.57.58s1.11.38,1.68.53c1.42-1.61,2.91-3.1,4.33-4.51a163.33,163.33,0,0,1,230.81,0c58.77,58.72,64.2,151.87,12.56,216.68l-.39.5a153.64,153.64,0,0,1-12.21,13.63,143.48,143.48,0,0,1-13.9,12.4A162.93,162.93,0,0,1,360.8,384.1c-55-55-63.47-141.76-20.25-206.27.61-.92,1.23-1.84,1.88-2.76l1-1.26-1.65-.62-1.56-.57-.43.61c-.65,1-1.3,1.88-1.91,2.84-44.1,65.77-35.41,154.2,20.64,210.33a166.15,166.15,0,0,0,221.09,12.67,171,171,0,0,0,26.68-26.65l.31-.45C659.27,305.93,653.79,210.94,593.8,151Zm0,0a166.64,166.64,0,0,0-235.29,0c-1.61,1.61-3.26,3.33-5,5.24l-.34.46c.53.19,1.07.35,1.57.58s1.11.38,1.68.53c1.42-1.61,2.91-3.1,4.33-4.51a163.33,163.33,0,0,1,230.81,0c58.77,58.72,64.2,151.87,12.56,216.68l-.39.5a153.64,153.64,0,0,1-12.21,13.63,143.48,143.48,0,0,1-13.9,12.4A162.93,162.93,0,0,1,360.8,384.1c-55-55-63.47-141.76-20.25-206.27.61-.92,1.23-1.84,1.88-2.76l1-1.26-1.65-.62-1.56-.57-.43.61c-.65,1-1.3,1.88-1.91,2.84-44.1,65.77-35.41,154.2,20.64,210.33a166.15,166.15,0,0,0,221.09,12.67,171,171,0,0,0,26.68-26.65l.31-.45C659.27,305.93,653.79,210.94,593.8,151Zm0,0a166.64,166.64,0,0,0-235.29,0c-1.61,1.61-3.26,3.33-5,5.24l-.34.46c.53.19,1.07.35,1.57.58s1.11.38,1.68.53c1.42-1.61,2.91-3.1,4.33-4.51a163.33,163.33,0,0,1,230.81,0c58.77,58.72,64.2,151.87,12.56,216.68l-.39.5a153.64,153.64,0,0,1-12.21,13.63,143.48,143.48,0,0,1-13.9,12.4A162.93,162.93,0,0,1,360.8,384.1c-55-55-63.47-141.76-20.25-206.27.61-.92,1.23-1.84,1.88-2.76l1-1.26-1.65-.62-1.56-.57-.43.61c-.65,1-1.3,1.88-1.91,2.84-44.1,65.77-35.41,154.2,20.64,210.33a166.15,166.15,0,0,0,221.09,12.67,171,171,0,0,0,26.68-26.65l.31-.45C659.27,305.93,653.79,210.94,593.8,151Zm0,0a166.64,166.64,0,0,0-235.29,0c-1.61,1.61-3.26,3.33-5,5.24l-.34.46c.53.19,1.07.35,1.57.58s1.11.38,1.68.53c1.42-1.61,2.91-3.1,4.33-4.51a163.33,163.33,0,0,1,230.81,0c58.77,58.72,64.2,151.87,12.56,216.68l-.39.5a153.64,153.64,0,0,1-12.21,13.63,143.48,143.48,0,0,1-13.9,12.4A162.93,162.93,0,0,1,360.8,384.1c-55-55-63.47-141.76-20.25-206.27.61-.92,1.23-1.84,1.88-2.76l1-1.26-1.65-.62-1.56-.57-.43.61c-.65,1-1.3,1.88-1.91,2.84-44.1,65.77-35.41,154.2,20.64,210.33a166.15,166.15,0,0,0,221.09,12.67,171,171,0,0,0,26.68-26.65l.31-.45C659.27,305.93,653.79,210.94,593.8,151Zm0,0a166.64,166.64,0,0,0-235.29,0c-1.61,1.61-3.26,3.33-5,5.24l-.34.46c.53.19,1.07.35,1.57.58s1.11.38,1.68.53c1.42-1.61,2.91-3.1,4.33-4.51a163.33,163.33,0,0,1,230.81,0c58.77,58.72,64.2,151.87,12.56,216.68l-.39.5a153.64,153.64,0,0,1-12.21,13.63,143.48,143.48,0,0,1-13.9,12.4A162.93,162.93,0,0,1,360.8,384.1c-55-55-63.47-141.76-20.25-206.27.61-.92,1.23-1.84,1.88-2.76l1-1.26-1.65-.62-1.56-.57-.43.61c-.65,1-1.3,1.88-1.91,2.84-44.1,65.77-35.41,154.2,20.64,210.33a166.15,166.15,0,0,0,221.09,12.67,171,171,0,0,0,26.68-26.65l.31-.45C659.27,305.93,653.79,210.94,593.8,151Zm0,0a166.64,166.64,0,0,0-235.29,0c-1.61,1.61-3.26,3.33-5,5.24l-.34.46c.53.19,1.07.35,1.57.58s1.11.38,1.68.53c1.42-1.61,2.91-3.1,4.33-4.51a163.33,163.33,0,0,1,230.81,0c58.77,58.72,64.2,151.87,12.56,216.68l-.39.5a153.64,153.64,0,0,1-12.21,13.63,143.48,143.48,0,0,1-13.9,12.4A162.93,162.93,0,0,1,360.8,384.1c-55-55-63.47-141.76-20.25-206.27.61-.92,1.23-1.84,1.88-2.76l1-1.26-1.65-.62-1.56-.57-.43.61c-.65,1-1.3,1.88-1.91,2.84-44.1,65.77-35.41,154.2,20.64,210.33a166.15,166.15,0,0,0,221.09,12.67,171,171,0,0,0,26.68-26.65l.31-.45C659.27,305.93,653.79,210.94,593.8,151Zm0,0a166.64,166.64,0,0,0-235.29,0c-1.61,1.61-3.26,3.33-5,5.24l-.34.46c.53.19,1.07.35,1.57.58s1.11.38,1.68.53c1.42-1.61,2.91-3.1,4.33-4.51a163.33,163.33,0,0,1,230.81,0c58.77,58.72,64.2,151.87,12.56,216.68l-.39.5a153.64,153.64,0,0,1-12.21,13.63,143.48,143.48,0,0,1-13.9,12.4A162.93,162.93,0,0,1,360.8,384.1c-55-55-63.47-141.76-20.25-206.27.61-.92,1.23-1.84,1.88-2.76l1-1.26-1.65-.62-1.56-.57-.43.61c-.65,1-1.3,1.88-1.91,2.84-44.1,65.77-35.41,154.2,20.64,210.33a166.15,166.15,0,0,0,221.09,12.67,171,171,0,0,0,26.68-26.65l.31-.45C659.27,305.93,653.79,210.94,593.8,151Zm0,0a166.64,166.64,0,0,0-235.29,0c-1.61,1.61-3.26,3.33-5,5.24l-.34.46c.53.19,1.07.35,1.57.58s1.11.38,1.68.53c1.42-1.61,2.91-3.1,4.33-4.51a163.33,163.33,0,0,1,230.81,0c58.77,58.72,64.2,151.87,12.56,216.68l-.39.5a153.64,153.64,0,0,1-12.21,13.63,143.48,143.48,0,0,1-13.9,12.4A162.93,162.93,0,0,1,360.8,384.1c-55-55-63.47-141.76-20.25-206.27.61-.92,1.23-1.84,1.88-2.76l1-1.26-1.65-.62-1.56-.57-.43.61c-.65,1-1.3,1.88-1.91,2.84-44.1,65.77-35.41,154.2,20.64,210.33a166.15,166.15,0,0,0,221.09,12.67,171,171,0,0,0,26.68-26.65l.31-.45C659.27,305.93,653.79,210.94,593.8,151Zm0,0a166.64,166.64,0,0,0-235.29,0c-1.61,1.61-3.26,3.33-5,5.24l-.34.46c.53.19,1.07.35,1.57.58s1.11.38,1.68.53c1.42-1.61,2.91-3.1,4.33-4.51a163.33,163.33,0,0,1,230.81,0c58.77,58.72,64.2,151.87,12.56,216.68l-.39.5a153.64,153.64,0,0,1-12.21,13.63,143.48,143.48,0,0,1-13.9,12.4A162.93,162.93,0,0,1,360.8,384.1c-55-55-63.47-141.76-20.25-206.27.61-.92,1.23-1.84,1.88-2.76l1-1.26-1.65-.62-1.56-.57-.43.61c-.65,1-1.3,1.88-1.91,2.84-44.1,65.77-35.41,154.2,20.64,210.33a166.15,166.15,0,0,0,221.09,12.67,171,171,0,0,0,26.68-26.65l.31-.45C659.27,305.93,653.79,210.94,593.8,151Zm0,0a166.64,166.64,0,0,0-235.29,0c-1.61,1.61-3.26,3.33-5,5.24l-.34.46c.53.19,1.07.35,1.57.58s1.11.38,1.68.53c1.42-1.61,2.91-3.1,4.33-4.51a163.33,163.33,0,0,1,230.81,0c58.77,58.72,64.2,151.87,12.56,216.68l-.39.5a153.64,153.64,0,0,1-12.21,13.63,143.48,143.48,0,0,1-13.9,12.4A162.93,162.93,0,0,1,360.8,384.1c-55-55-63.47-141.76-20.25-206.27.61-.92,1.23-1.84,1.88-2.76l1-1.26-1.65-.62-1.56-.57-.43.61c-.65,1-1.3,1.88-1.91,2.84-44.1,65.77-35.41,154.2,20.64,210.33a166.15,166.15,0,0,0,221.09,12.67,171,171,0,0,0,26.68-26.65l.31-.45C659.27,305.93,653.79,210.94,593.8,151Zm0,0a166.64,166.64,0,0,0-235.29,0c-1.61,1.61-3.26,3.33-5,5.24l-.34.46c.53.19,1.07.35,1.57.58s1.11.38,1.68.53c1.42-1.61,2.91-3.1,4.33-4.51a163.33,163.33,0,0,1,230.81,0c58.77,58.72,64.2,151.87,12.56,216.68l-.39.5a153.64,153.64,0,0,1-12.21,13.63,143.48,143.48,0,0,1-13.9,12.4A162.93,162.93,0,0,1,360.8,384.1c-55-55-63.47-141.76-20.25-206.27.61-.92,1.23-1.84,1.88-2.76l1-1.26-1.65-.62-1.56-.57-.43.61c-.65,1-1.3,1.88-1.91,2.84-44.1,65.77-35.41,154.2,20.64,210.33a166.15,166.15,0,0,0,221.09,12.67,171,171,0,0,0,26.68-26.65l.31-.45C659.27,305.93,653.79,210.94,593.8,151Zm0,0a166.64,166.64,0,0,0-235.29,0c-1.61,1.61-3.26,3.33-5,5.24l-.34.46c.53.19,1.07.35,1.57.58s1.11.38,1.68.53c1.42-1.61,2.91-3.1,4.33-4.51a163.33,163.33,0,0,1,230.81,0c58.77,58.72,64.2,151.87,12.56,216.68l-.39.5a153.64,153.64,0,0,1-12.21,13.63,143.48,143.48,0,0,1-13.9,12.4A162.93,162.93,0,0,1,360.8,384.1c-55-55-63.47-141.76-20.25-206.27.61-.92,1.23-1.84,1.88-2.76l1-1.26-1.65-.62-1.56-.57-.43.61c-.65,1-1.3,1.88-1.91,2.84-44.1,65.77-35.41,154.2,20.64,210.33a166.15,166.15,0,0,0,221.09,12.67,171,171,0,0,0,26.68-26.65l.31-.45C659.27,305.93,653.79,210.94,593.8,151Zm0,0a166.64,166.64,0,0,0-235.29,0c-1.61,1.61-3.26,3.33-5,5.24l-.34.46c.53.19,1.07.35,1.57.58s1.11.38,1.68.53c1.42-1.61,2.91-3.1,4.33-4.51a163.33,163.33,0,0,1,230.81,0c58.77,58.72,64.2,151.87,12.56,216.68l-.39.5a153.64,153.64,0,0,1-12.21,13.63,143.48,143.48,0,0,1-13.9,12.4A162.93,162.93,0,0,1,360.8,384.1c-55-55-63.47-141.76-20.25-206.27.61-.92,1.23-1.84,1.88-2.76l1-1.26-1.65-.62-1.56-.57-.43.61c-.65,1-1.3,1.88-1.91,2.84-44.1,65.77-35.41,154.2,20.64,210.33a166.15,166.15,0,0,0,221.09,12.67,171,171,0,0,0,26.68-26.65l.31-.45C659.27,305.93,653.79,210.94,593.8,151Zm0,0a166.64,166.64,0,0,0-235.29,0c-1.61,1.61-3.26,3.33-5,5.24l-.34.46c.53.19,1.07.35,1.57.58s1.11.38,1.68.53c1.42-1.61,2.91-3.1,4.33-4.51a163.33,163.33,0,0,1,230.81,0c58.77,58.72,64.2,151.87,12.56,216.68l-.39.5a153.64,153.64,0,0,1-12.21,13.63,143.48,143.48,0,0,1-13.9,12.4A162.93,162.93,0,0,1,360.8,384.1c-55-55-63.47-141.76-20.25-206.27.61-.92,1.23-1.84,1.88-2.76l1-1.26-1.65-.62-1.56-.57-.43.61c-.65,1-1.3,1.88-1.91,2.84-44.1,65.77-35.41,154.2,20.64,210.33a166.15,166.15,0,0,0,221.09,12.67,171,171,0,0,0,26.68-26.65l.31-.45C659.27,305.93,653.79,210.94,593.8,151Zm0,0a166.64,166.64,0,0,0-235.29,0c-1.61,1.61-3.26,3.33-5,5.24l-.34.46c.53.19,1.07.35,1.57.58s1.11.38,1.68.53c1.42-1.61,2.91-3.1,4.33-4.51a163.33,163.33,0,0,1,230.81,0c58.77,58.72,64.2,151.87,12.56,216.68l-.39.5a153.64,153.64,0,0,1-12.21,13.63,143.48,143.48,0,0,1-13.9,12.4A162.93,162.93,0,0,1,360.8,384.1c-55-55-63.47-141.76-20.25-206.27.61-.92,1.23-1.84,1.88-2.76l1-1.26-1.65-.62-1.56-.57-.43.61c-.65,1-1.3,1.88-1.91,2.84-44.1,65.77-35.41,154.2,20.64,210.33a166.15,166.15,0,0,0,221.09,12.67,171,171,0,0,0,26.68-26.65l.31-.45C659.27,305.93,653.79,210.94,593.8,151Zm0,0a166.64,166.64,0,0,0-235.29,0c-1.61,1.61-3.26,3.33-5,5.24l-.34.46c.53.19,1.07.35,1.57.58s1.11.38,1.68.53c1.42-1.61,2.91-3.1,4.33-4.51a163.33,163.33,0,0,1,230.81,0c58.77,58.72,64.2,151.87,12.56,216.68l-.39.5a153.64,153.64,0,0,1-12.21,13.63,143.48,143.48,0,0,1-13.9,12.4A162.93,162.93,0,0,1,360.8,384.1c-55-55-63.47-141.76-20.25-206.27.61-.92,1.23-1.84,1.88-2.76l1-1.26-1.65-.62-1.56-.57-.43.61c-.65,1-1.3,1.88-1.91,2.84-44.1,65.77-35.41,154.2,20.64,210.33a166.15,166.15,0,0,0,221.09,12.67,171,171,0,0,0,26.68-26.65l.31-.45C659.27,305.93,653.79,210.94,593.8,151Zm0,0a166.64,166.64,0,0,0-235.29,0c-1.61,1.61-3.26,3.33-5,5.24l-.34.46c.53.19,1.07.35,1.57.58s1.11.38,1.68.53c1.42-1.61,2.91-3.1,4.33-4.51a163.33,163.33,0,0,1,230.81,0c58.77,58.72,64.2,151.87,12.56,216.68l-.39.5a153.64,153.64,0,0,1-12.21,13.63,143.48,143.48,0,0,1-13.9,12.4A162.93,162.93,0,0,1,360.8,384.1c-55-55-63.47-141.76-20.25-206.27.61-.92,1.23-1.84,1.88-2.76l1-1.26-1.65-.62-1.56-.57-.43.61c-.65,1-1.3,1.88-1.91,2.84-44.1,65.77-35.41,154.2,20.64,210.33a166.15,166.15,0,0,0,221.09,12.67,171,171,0,0,0,26.68-26.65l.31-.45C659.27,305.93,653.79,210.94,593.8,151Zm0,0a166.64,166.64,0,0,0-235.29,0c-1.61,1.61-3.26,3.33-5,5.24l-.34.46c.53.19,1.07.35,1.57.58s1.11.38,1.68.53c1.42-1.61,2.91-3.1,4.33-4.51a163.33,163.33,0,0,1,230.81,0c58.77,58.72,64.2,151.87,12.56,216.68l-.39.5a153.64,153.64,0,0,1-12.21,13.63,143.48,143.48,0,0,1-13.9,12.4A162.93,162.93,0,0,1,360.8,384.1c-55-55-63.47-141.76-20.25-206.27.61-.92,1.23-1.84,1.88-2.76l1-1.26-1.65-.62-1.56-.57-.43.61c-.65,1-1.3,1.88-1.91,2.84-44.1,65.77-35.41,154.2,20.64,210.33a166.15,166.15,0,0,0,221.09,12.67,171,171,0,0,0,26.68-26.65l.31-.45C659.27,305.93,653.79,210.94,593.8,151Zm0,0a166.64,166.64,0,0,0-235.29,0c-1.61,1.61-3.26,3.33-5,5.24l-.34.46c.53.19,1.07.35,1.57.58s1.11.38,1.68.53c1.42-1.61,2.91-3.1,4.33-4.51a163.33,163.33,0,0,1,230.81,0c58.77,58.72,64.2,151.87,12.56,216.68l-.39.5a153.64,153.64,0,0,1-12.21,13.63,143.48,143.48,0,0,1-13.9,12.4A162.93,162.93,0,0,1,360.8,384.1c-55-55-63.47-141.76-20.25-206.27.61-.92,1.23-1.84,1.88-2.76l1-1.26-1.65-.62-1.56-.57-.43.61c-.65,1-1.3,1.88-1.91,2.84-44.1,65.77-35.41,154.2,20.64,210.33a166.15,166.15,0,0,0,221.09,12.67,171,171,0,0,0,26.68-26.65l.31-.45C659.27,305.93,653.79,210.94,593.8,151Zm0,0a166.64,166.64,0,0,0-235.29,0c-1.61,1.61-3.26,3.33-5,5.24l-.34.46c.53.19,1.07.35,1.57.58s1.11.38,1.68.53c1.42-1.61,2.91-3.1,4.33-4.51a163.33,163.33,0,0,1,230.81,0c58.77,58.72,64.2,151.87,12.56,216.68l-.39.5a153.64,153.64,0,0,1-12.21,13.63,143.48,143.48,0,0,1-13.9,12.4A162.93,162.93,0,0,1,360.8,384.1c-55-55-63.47-141.76-20.25-206.27.61-.92,1.23-1.84,1.88-2.76l1-1.26-1.65-.62-1.56-.57-.43.61c-.65,1-1.3,1.88-1.91,2.84-44.1,65.77-35.41,154.2,20.64,210.33a166.15,166.15,0,0,0,221.09,12.67,171,171,0,0,0,26.68-26.65l.31-.45C659.27,305.93,653.79,210.94,593.8,151Z"/><path class="cls-1" d="M710.64,470.36l-74.08-74.05c-1.07-1.07-8.11-7.58-8.11-7.58l3.1-4.44a193.68,193.68,0,0,0-292.3-252.56c-4.17,4.18-8,8.43-11.52,12.56-4.6,5.55-8.77,11.14-12.48,16.62-51.3,76.56-41.24,179.47,24,244.75A193.35,193.35,0,0,0,591.81,424l4.44-3.06s6.51,7.08,7.5,8.08l74.08,74.08a23.19,23.19,0,1,0,32.81-32.77Zm-98.08-92.88a182.61,182.61,0,0,1-13,14.55,167.84,167.84,0,0,1-14.89,13.28,174.18,174.18,0,0,1-231.77-13.25c-58.77-58.8-67.92-151.52-21.67-220.44.42-.57.84-1.22,1.3-1.87,2.57.92,5.13,1.87,7.74,2.87l1.56.57,1.65.62c19.79,7.46,42.53,15.73,71.32,22.13,22.44,5,38.79.22,50.58-8l-65.2,184.88h-9.65c10.65,20.44,46.63,35.53,89.43,35.53h.35c42.76,0,78.75-15.09,89.43-35.53h-9.65L486.26,163.43a90.51,90.51,0,0,0,5.55-13h0a13.28,13.28,0,0,0,2.15-7.28c0-7.79-6.67-14.1-14.87-14.1s-14.91,6.31-14.91,14.1a14.31,14.31,0,0,0,12.34,13.88c-8.12,13.4-26.61,33.87-59.06,22.16-16.93-6.05-39.36-13.9-61-21.37-.57-.15-1.11-.38-1.68-.53s-1-.39-1.57-.58l-8.31-2.91c2.56-2.83,5.2-5.7,8-8.42a174.42,174.42,0,0,1,260,231.77ZM472.67,181.85h0a61.92,61.92,0,0,0,4.81-5.23V372.81H405.14Zm10,191V168.26l.31.76,72,203.79Z"/></svg>