<svg id="Layer_1" data-name="Layer 1" xmlns="http://www.w3.org/2000/svg" viewBox="0 0 1000 1000"><defs><style>.cls-1{fill:#223260;}.cls-2{fill:#0096d2;}</style></defs><path class="cls-1" d="M88,632.46a10.3,10.3,0,0,1,2.14-2.25,13.12,13.12,0,0,1,1.89-1.4c1.84-1.33,3.69-2.78,5.54-4.27a20.54,20.54,0,0,0,4.55-5.18,68.3,68.3,0,0,0,3.25-6.92,13.29,13.29,0,0,0,1.25-5c0-1.68-.72-2.53-2.25-2.53a8.93,8.93,0,0,0-3.9,1.65,12.56,12.56,0,0,1-4.18,1.89c-.81.16-2,.36-3.62.52s-3,.24-4.18.24a18.33,18.33,0,0,1-6-1,61.92,61.92,0,0,0-11.06-2.53,37,37,0,0,0-7.56-.77,26.36,26.36,0,0,0-3.78.24,29,29,0,0,0-8.57,2.42,30.93,30.93,0,0,0-7.31,5.66,25.24,25.24,0,0,0-4.67,7.08,18.72,18.72,0,0,0-2.13,7.52,2.92,2.92,0,0,0,1.25,2.77,2.49,2.49,0,0,0,2.13.13,10.1,10.1,0,0,0,2.17-1.37c.84-.64,1.57-1.29,2.25-1.77A10.7,10.7,0,0,1,51,625.79,7.87,7.87,0,0,1,55.5,627a4,4,0,0,1,1.64,2.77,39.57,39.57,0,0,1,.49,5.55c.12,2.37.24,4.26.36,5.79a88,88,0,0,1-.24,11.34c-.32,3-.49,5.47-.49,7.28a47.74,47.74,0,0,0,.73,7.84,49.79,49.79,0,0,1,.52,6.27A79.27,79.27,0,0,1,58,682a3.22,3.22,0,0,1-.6,2,6.62,6.62,0,0,1-1.77,1.37c-.77.4-1.29.72-1.65.88a20.14,20.14,0,0,0-5,2.78,17,17,0,0,0-6,7.56c-1.17,2.85-1.77,4.78-1.77,5.79a2.24,2.24,0,0,0,2.53,2.53,7.45,7.45,0,0,0,2.86-.76l2.13-1a11,11,0,0,1,4.83-1.25,8.56,8.56,0,0,1,2.25.49c1.52.52,2.25,1.85,2.25,4l-.24,7.8c0,4.74.12,8,.24,9.85.16,3.66.16,7.32,0,10.82v5.54l.28,9.57a15.77,15.77,0,0,1-.76,5.43A11,11,0,0,1,54,759.52a86.89,86.89,0,0,0-7.56,6.56,38.58,38.58,0,0,0-5.79,8.28,15.72,15.72,0,0,0-1.49,5c0,2.21.32,3.37,1,3.53a2.8,2.8,0,0,0,2-.24,16.31,16.31,0,0,0,2.77-1.52,39.25,39.25,0,0,1,5.27-2.26,43.14,43.14,0,0,1,10.57-1,23.11,23.11,0,0,1,4.67.52,14.54,14.54,0,0,0,4.42.24,11.5,11.5,0,0,1,6.67,1.53,40.12,40.12,0,0,0,3.91,2,15.87,15.87,0,0,0,6.51,2,4.86,4.86,0,0,0,2-.52,7.31,7.31,0,0,0,2.13-1.77c.76-.8,1.29-1.41,1.65-1.73a23.37,23.37,0,0,0,2-1.77,22.81,22.81,0,0,0,2-2.29,18.26,18.26,0,0,1,2.65-2.61,16.41,16.41,0,0,0,2.38-2.42,10.8,10.8,0,0,0,2.05-4.3,5.06,5.06,0,0,0-1.05-3.26,23.19,23.19,0,0,0-5.51-4.3c-.68-.32-1.61-.68-2.77-1.12a9.64,9.64,0,0,1-3-1.61,9.68,9.68,0,0,1-3.54-3,7.74,7.74,0,0,1-1.89-3.78,42,42,0,0,1-.36-6.55c0-3.38-.12-6.15-.28-8.32-.16-1.49-.32-3.26-.52-5.27s-.24-4.38-.24-7.08a48.5,48.5,0,0,1,.24-5.51l.52-4.82a48.19,48.19,0,0,0,.16-5.15c-.12-1.41-.16-2.57-.16-3.42v-5.26a66.29,66.29,0,0,1,.28-7.28l.24-7.84c0-1.53-.2-4.79-.52-9.81a69.18,69.18,0,0,1,0-11.58c0-1,0-2.42.16-4.19s0-3.9-.16-6.39c-.52-6.87-.08-12.26,1.25-16.12A12.66,12.66,0,0,1,88,632.46Z"/><path class="cls-1" d="M218.7,758.28A18.52,18.52,0,0,1,215,755.1a19,19,0,0,0-1.4-1.61,11.65,11.65,0,0,1-2.26-4.58,36.67,36.67,0,0,1-.52-7.52v-5.31l-.24-7.32c-.16-2.17-.2-4.3-.16-6.51s.16-4,.16-5.55a56.53,56.53,0,0,0-.28-7c-.28-3.69-.48-6.31-.48-7.8l.24-7.31a38.83,38.83,0,0,0,.24-5.27l-.24-11.1a30.86,30.86,0,0,1,.24-4.78l.8-4.27a22.75,22.75,0,0,0,.24-3.29c0-2-.44-3.46-1.28-4.3a16,16,0,0,0-5-2.74,38.5,38.5,0,0,1-4.14-2.25,30.06,30.06,0,0,0-4.14-2.29c-.69-.16-1.85-.53-3.42-1a13.91,13.91,0,0,1-3.9-1.77,32.85,32.85,0,0,0-6.07-2.89,12.85,12.85,0,0,0-4-.65,4.46,4.46,0,0,0-2.74,1,25.61,25.61,0,0,0-3,3l-3.26,4a23.5,23.5,0,0,1-2.65,2.69,21.35,21.35,0,0,0-2.66,2.61l-4.26,4.55a21.82,21.82,0,0,0-2.13,2.65c-.92,1.25-1.65,1.81-2.13,1.61s-.68-.72-.4-1.77a11.22,11.22,0,0,0,.4-2,10.59,10.59,0,0,1,.72-2.9,4.85,4.85,0,0,0,.49-1.88,3.29,3.29,0,0,0-1-2.26,10,10,0,0,0-3.18-1.89c-1.4-.6-2.49-1-3.13-1.4a63.35,63.35,0,0,1-8.29-4.51,33.41,33.41,0,0,1-3.77-2.37,5.56,5.56,0,0,0-3.3-1.17,4.67,4.67,0,0,0-2,.53,6.41,6.41,0,0,0-2.13,1.73c-.77.88-1.33,1.48-1.65,1.77a13.21,13.21,0,0,0-2,1.76c-.85.85-1.49,1.61-2,2.26l-4.51,5.83c-2.69,3.49-4,6.71-4,9.57a6.09,6.09,0,0,0,3.26,5.3,21.47,21.47,0,0,1,3.66,3.1,11.46,11.46,0,0,0,1.37,1.65,8,8,0,0,1,1.89,3.9,66.26,66.26,0,0,1,.64,6.91c0,3.22.08,5.83.28,7.85l.48,9.32c-.2,1.17-.44,3.46-.76,6.92A92.82,92.82,0,0,0,127,726a114.8,114.8,0,0,0,.28,11.82l.24,7.84.28,11.06a29.35,29.35,0,0,1-.28,4.78l-.76,4.31a16.45,16.45,0,0,0-.25,3.25c0,2,.41,3.42,1.29,4.31s2.49,1.72,5,2.73a67.59,67.59,0,0,1,8.28,4.54,37.66,37.66,0,0,1,3.78,2.38,5.42,5.42,0,0,0,3.3,1.16,4.88,4.88,0,0,0,2-.52,8,8,0,0,0,2.13-1.77c.76-.8,1.32-1.41,1.61-1.73a16.06,16.06,0,0,0,2-1.77,20.32,20.32,0,0,0,2.05-2.29l4.54-5.79c2.17-2.69,3.26-5.19,3.26-7.56a5.3,5.3,0,0,0-2.54-4.5,20.76,20.76,0,0,1-3.65-3.18,15.25,15.25,0,0,0-1.37-1.61,8.31,8.31,0,0,1-1.89-3.66,61.58,61.58,0,0,1-.64-6.19c0-3,0-5.55-.25-7.56l-.24-7.32q0-1.2-.48-6.51a16.43,16.43,0,0,1,.12-4.78c.24-2.22.36-3.78.36-4.79v-.76l-.24-8a49.41,49.41,0,0,1,.12-8.44c.24-1.29,1.21-2.73,2.9-4.38a15.47,15.47,0,0,1,1.89-1.65A10.6,10.6,0,0,0,162,687a42.34,42.34,0,0,1,5.31-4.79,6.68,6.68,0,0,1,4.26-2,5.94,5.94,0,0,1,2.77.77,17.93,17.93,0,0,0,2.29,1,8.55,8.55,0,0,1,4.51,4.5c.84,2,1.16,5.31,1,9.86a54.84,54.84,0,0,0,.28,6.27c0,.36,0,1.37.12,3s.13,4.71.13,9.05c0,4.87-.09,8.65-.25,11.34,0,3.18,0,5.87.25,8a105.21,105.21,0,0,1,.24,11.62,32.16,32.16,0,0,0,0,6.27c.16,2.7.24,4.79.24,6.32a15.72,15.72,0,0,1-.24,3.25l-.77,4.31a17.39,17.39,0,0,0-.24,3.25c0,2,.4,3.42,1.25,4.31a16.48,16.48,0,0,0,5,2.73,64.34,64.34,0,0,1,8.33,4.54,44.43,44.43,0,0,1,3.78,2.38,5.3,5.3,0,0,0,3.25,1.16,4.82,4.82,0,0,0,2.05-.52,7.19,7.19,0,0,0,2.13-1.77c.73-.8,1.29-1.41,1.65-1.73a21.94,21.94,0,0,0,2-1.77,21.6,21.6,0,0,0,2-2.29l4.51-5.79c2.21-2.69,3.29-5.19,3.29-7.56A5.34,5.34,0,0,0,218.7,758.28Z"/><path class="cls-1" d="M275.72,660.81a9,9,0,0,0-3.9-.52h-2a28.5,28.5,0,0,0-3.3.16,8.07,8.07,0,0,1-2.37-.16,1,1,0,0,1-.89-1l.49-4.26a21.84,21.84,0,0,0,.16-3.78,22.35,22.35,0,0,1-.16-2.53l-.25-11.1a28.32,28.32,0,0,1,.25-4.74l.76-4.31a18,18,0,0,0,.24-3.25c0-2-.4-3.46-1.25-4.3a15.43,15.43,0,0,0-5-2.74,66.09,66.09,0,0,1-8.33-4.58,31.39,31.39,0,0,1-3.77-2.38,5.3,5.3,0,0,0-3.26-1.12,4.47,4.47,0,0,0-2,.48,8.8,8.8,0,0,0-2.17,1.77c-.77.85-1.29,1.45-1.61,1.77a15,15,0,0,0-2,1.77,15.17,15.17,0,0,0-2,2.29L228.71,624c-2.17,2.69-3.25,5.19-3.25,7.56a5.3,5.3,0,0,0,2.53,4.54,21.19,21.19,0,0,1,3.66,3.14,10.85,10.85,0,0,0,1.41,1.65,12.31,12.31,0,0,1,2.49,4.54,29.81,29.81,0,0,1,1,6.27l.53,6c0,1.2-.53,1.76-1.53,1.76l-5.55-.24a5.53,5.53,0,0,0-2.77.49c-.81.68-1.61,3-2.26,6.83l-1,5.79a14.69,14.69,0,0,0-.24,2.78,1.8,1.8,0,0,0,1.24,1.77,19.35,19.35,0,0,0,5.51.48,19,19,0,0,1,5,.36c.6.28.84,1.17.84,2.65l-.24,5.79a8,8,0,0,0,.24,2,19.71,19.71,0,0,1,.28,3.54c0,1.53-.16,4.14-.52,7.8,0,3,.12,5.31.24,6.8a40.25,40.25,0,0,1,0,9.33c0,1.16,0,2.61-.12,4.3a47.4,47.4,0,0,0,.12,5.27c.36,3.69.53,6.31.53,7.84l-.25,7.27a45.6,45.6,0,0,0-.28,5.31l.28,11.06a29.35,29.35,0,0,1-.28,4.78l-.72,4.31a14.52,14.52,0,0,0-.24,3.25c0,2,.4,3.42,1.24,4.31a16.18,16.18,0,0,0,5,2.73,64.41,64.41,0,0,1,8.32,4.54,41.45,41.45,0,0,1,3.78,2.38,5.33,5.33,0,0,0,3.26,1.16,4.55,4.55,0,0,0,2-.52,6.83,6.83,0,0,0,2.13-1.77c.77-.8,1.33-1.41,1.65-1.73a22.3,22.3,0,0,0,4-4.06l4.58-5.79c2.18-2.69,3.22-5.19,3.22-7.56a5.25,5.25,0,0,0-2.49-4.5,20.94,20.94,0,0,1-3.66-3.18,13.57,13.57,0,0,0-1.41-1.61,8.82,8.82,0,0,1-1.89-3.9,68.9,68.9,0,0,1-.6-7c0-3.18-.08-5.79-.24-7.8l-.24-3.26c-.2-1.33-.41-3.34-.65-6.07a54.62,54.62,0,0,1-.12-8.53c.32-3.54.49-9.33.49-17.41.36-3.66.52-6.79.52-9.33s-.12-4.54-.24-6.15a30.41,30.41,0,0,1-.28-3.66c0-1.16.36-1.85,1-2.13a11.62,11.62,0,0,1,4-.12,10.12,10.12,0,0,0,4.3-.28c.85-.64,1.61-2.94,2.3-6.75l1-5.84a13.9,13.9,0,0,0,.28-2.73A1.83,1.83,0,0,0,275.72,660.81Z"/><path class="cls-1" d="M359.43,737.37c-1,0-2.33.64-4,2l-8.56,7.52c-1,.88-1.81,1.61-2.38,2.17s-1,1-1.4,1.37l-4.51,4a4.59,4.59,0,0,1-2.81.76,12.56,12.56,0,0,1-4-.76,36.92,36.92,0,0,1-6.15-3c-2.3-1.37-3.94-2.29-4.91-2.81-3.06-1.33-4.78-2.9-5.31-4.75A18.65,18.65,0,0,1,315,741c-.12-1.25-.12-2.38-.12-3.38,0-2.86.36-4.91,1.13-6.15a9.51,9.51,0,0,1,3.13-3.18,50.85,50.85,0,0,0,4.55-3,37.66,37.66,0,0,1,3.25-2.26c.85-.52,4.39-3,10.58-7.56,3.86-3.37,6.71-5.46,8.6-6.31.48-.32,2.05-1.28,4.75-2.89a92.76,92.76,0,0,0,7.84-5.15c4.5-3.18,7.32-5.83,8.4-7.92s1.65-5.79,1.65-11q0-11.58-1.77-16.89c-1-2.81-3.42-5.26-7.32-7.27a6.06,6.06,0,0,0-1.65-.89c-.88-.44-2.17-1.16-3.86-2.13a31.18,31.18,0,0,0-3.66-2c-1.12-.52-1.88-.84-2.37-1a34.46,34.46,0,0,0-6.95-3.14,32.27,32.27,0,0,1-3.14-.89,16.77,16.77,0,0,0-2.53-.48,6.15,6.15,0,0,0-3.26.89,37.55,37.55,0,0,0-4,2.89l-2.53,2c-1.49,1.53-2.7,2.74-3.5,3.66a30.86,30.86,0,0,1-3.06,2.86,2.11,2.11,0,0,1-.6.8,1.61,1.61,0,0,0-.64.72l-4.31,4.55-4.26,4.26a54.31,54.31,0,0,1-4.3,4c-3.54,3.22-7,6.63-10.58,10.33-.8.89-1.85,1.85-3,2.94a19.28,19.28,0,0,0-2.94,3.26,9.51,9.51,0,0,0-1.4,4.18c-.12,3-.24,6.67-.24,11.06l-.25,8.56.25,6,.24,7.08-.24,12.82v9.81l-.25,11.06c0,3.74.33,6.11.89,7.2s2.17,2.25,4.66,3.42a28.19,28.19,0,0,1,4.14,2.25,27.84,27.84,0,0,0,4.19,2.25,54.19,54.19,0,0,1,10.29,4.3q8.56,4.77,14.59,5.31a11.13,11.13,0,0,0,4.71-1.53,23.27,23.27,0,0,0,5.91-4.78,34.13,34.13,0,0,1,5.51-4.55,39.11,39.11,0,0,0,6.59-6,31.24,31.24,0,0,1,4.39-4.54,49.27,49.27,0,0,0,4.18-4,36.67,36.67,0,0,0,3.78-3.9,14.65,14.65,0,0,1,3.21-3.14,8.07,8.07,0,0,0,4.06-7.32,5.83,5.83,0,0,0-1.76-4.26C363.13,738.86,361,737.37,359.43,737.37Zm-45.31-31c0-.48,0-1.49.12-3a17.11,17.11,0,0,0-.36-4.5,14.45,14.45,0,0,1-.29-3.3v-3.3a8.24,8.24,0,0,1,1.65-4.62,54.34,54.34,0,0,1,5.67-5.19l2-2c1.33-1.32,2.45-2,3.3-2a11.82,11.82,0,0,1,3.26,1.25l5.79,3.06,1,.48a12,12,0,0,1,2.78,1.77l.72.52c1.73,1.17,2.57,2.25,2.57,3.26s-1,2.53-3,4l-3.54,2.29-4,3a30.34,30.34,0,0,1-3,2,28.52,28.52,0,0,0-3,2,25.19,25.19,0,0,1-3.78,2.65c-1.37.76-2.34,1.29-3,1.61-2,1.36-3.3,2-3.78,2C314.48,708.38,314.12,707.73,314.12,706.37Z"/><path class="cls-1" d="M466.23,758.76q0-19.6-.53-25.65V728c0-2-.08-4.26-.24-6.8V709.91c0-4.87-.08-8.41-.28-10.58a40.94,40.94,0,0,1-.12-5.06c.12-1.81.12-3.14.12-4a28.44,28.44,0,0,0-.12-3,32.43,32.43,0,0,1,.12-4.26,40.47,40.47,0,0,0,.28-5.55v-5.55c0-4.18-.28-7.12-.88-8.81s-2.13-3.09-4.67-4.26a34.58,34.58,0,0,1-4-2.25,25.11,25.11,0,0,0-4-2.29c-.68-.16-1.81-.53-3.42-1a14.47,14.47,0,0,1-3.9-1.77,34.12,34.12,0,0,0-6.43-3.13,30.92,30.92,0,0,1-3.66-1.41,5,5,0,0,0-2.25-.48c-3.34,0-6.56,1.85-9.57,5.51l-3.26,4a19.87,19.87,0,0,1-2.65,2.69,18.83,18.83,0,0,0-2.66,2.61l-4.26,4.55-4.3,4.26a56.06,56.06,0,0,1-4.26,4c-3.54,3.22-7.08,6.63-10.58,10.33-.84.89-1.85,1.85-3,2.94a17.39,17.39,0,0,0-2.9,3.26,8.6,8.6,0,0,0-1.4,4.18c-.17,3-.25,6.67-.25,11.06l-.24,8.56.24,6,.25,7.08-.25,13.31v9.81l-.24,11.1q0,5.54.85,7.15c.6,1.13,2.17,2.25,4.66,3.42a35.83,35.83,0,0,1,4.18,2.29,31.29,31.29,0,0,0,4.14,2.25c.69.16,1.81.49,3.38,1a14.71,14.71,0,0,1,3.94,1.77,36.3,36.3,0,0,0,6.4,3.13,31.3,31.3,0,0,1,3.65,1.41,5.33,5.33,0,0,0,2.26.48c3.37,0,6.59-1.85,9.61-5.55l3.25-4c.85-1,1.69-2,2.54-2.89s1.64-1.89,2.49-2.9c1.69-2,2.81-3,3.3-3l.72.24c.52.36.6,1.61.28,3.78a36.86,36.86,0,0,0-.52,6l.76,7a14.09,14.09,0,0,1-.12,4.06,27.31,27.31,0,0,0-.4,4.3,44.84,44.84,0,0,0,.28,5.27l.24,5.55c0,3.17-.4,5.3-1.24,6.27-.2.36-2.22,2.61-6,6.79a13.34,13.34,0,0,0-2.53,2.66,12,12,0,0,1-2,2.17,6.94,6.94,0,0,1-4.54,2c-1,0-2.86-.6-5.51-1.77l-5.07-3.06c-2.37-1.16-4.86-2.37-7.56-3.61a16.38,16.38,0,0,0-6.79-1.89,5,5,0,0,0-4,1.77,49.09,49.09,0,0,0-5.19,7.51c-.88,1.89-1.45,3-1.61,3.3-.68,1.33-1.4,2.61-2.13,3.78a31.12,31.12,0,0,0-2.17,3.78,10.62,10.62,0,0,0-1,4,4.33,4.33,0,0,0,1,2.9,10.22,10.22,0,0,0,3.14,2.13c1.44.68,2.41,1.08,2.89,1.28,1.37.65,2.7,1.37,4,2.14l4.3,2.37A94.57,94.57,0,0,1,409.05,853a15.61,15.61,0,0,1,2.29,1,5.71,5.71,0,0,0,2.73.77,4.48,4.48,0,0,0,2-.49,6.72,6.72,0,0,0,2.14-1.77c.8-.84,1.32-1.4,1.64-1.76l4.07-4a27.12,27.12,0,0,0,2.61-2.37c1.08-1.12,2-2.09,2.65-2.93a52.58,52.58,0,0,1,6.07-6.92c2.3-2.25,4-3.9,5-4.9.64-.65,1.53-1.61,2.61-2.9a16.85,16.85,0,0,1,3.18-2.89,69.12,69.12,0,0,0,8-7.8l3.54-3.78c4.38-4.39,7-10.62,7.8-18.66l.52-6.8c0-2.69.08-5,.25-7a83.16,83.16,0,0,0,.24-8.85Zm-28.47-37.52a37.23,37.23,0,0,0-.49,6.32,29.91,29.91,0,0,0,.25,4.14,52.75,52.75,0,0,1,.24,5.67v2a8.2,8.2,0,0,1-2.78,5.79l-4,4a22.31,22.31,0,0,1-3.54,2.77c-.32.37-1,.49-2,.49-1.64,0-4.7-1.09-9.08-3.26-3-1.33-4.75-2.94-5.27-4.79-.32-.36-.52-2.37-.52-6l.28-8.32-.28-8.81-.25-3.53a91.76,91.76,0,0,1,.25-10.82l-.25-14.64a11.19,11.19,0,0,1,3.3-6.27,23.35,23.35,0,0,1,1.89-1.65,8.62,8.62,0,0,0,2.13-2.37,7.77,7.77,0,0,1,2.66-2.53c.92-.48,1.52-.85,1.89-1a4,4,0,0,1,2.49-1,6.59,6.59,0,0,1,3.78,1.89,21.57,21.57,0,0,0,3.78,2.65,8.41,8.41,0,0,1,4.82,4.79,6,6,0,0,1,.24,1.85,38.89,38.89,0,0,0,.25,4.18v7.8c0,.68-.08,1.77-.12,3.29a18.71,18.71,0,0,0,.12,4,40.22,40.22,0,0,1,.72,7.55A46.38,46.38,0,0,1,437.76,721.24Z"/><path class="cls-1" d="M963.16,758.76q0-19.6-.52-25.65V728c0-2-.08-4.26-.24-6.8V709.91c0-4.87-.08-8.41-.28-10.58a37.36,37.36,0,0,1-.12-5.06c.12-1.81.12-3.14.12-4a28.44,28.44,0,0,0-.12-3,29.28,29.28,0,0,1,.12-4.26,40.47,40.47,0,0,0,.28-5.55v-5.55c0-4.18-.28-7.12-.89-8.81s-2.13-3.09-4.66-4.26a33.78,33.78,0,0,1-4-2.25,25.54,25.54,0,0,0-4-2.29c-.69-.16-1.81-.53-3.42-1a14.32,14.32,0,0,1-3.9-1.77,34.41,34.41,0,0,0-6.43-3.13,30.92,30.92,0,0,1-3.66-1.41,5.08,5.08,0,0,0-2.26-.48c-3.33,0-6.55,1.85-9.56,5.51l-3.26,4a20.09,20.09,0,0,1-2.66,2.69,18.63,18.63,0,0,0-2.65,2.61l-4.26,4.55-4.3,4.26a53.75,53.75,0,0,1-4.27,4c-3.53,3.22-7.07,6.63-10.57,10.33-.84.89-1.85,1.85-3,2.94a17.31,17.31,0,0,0-2.89,3.26,8.5,8.5,0,0,0-1.41,4.18c-.16,3-.24,6.67-.24,11.06l-.24,8.56.24,6,.24,7.08-.24,13.31v9.81l-.24,11.1q0,5.54.84,7.15c.61,1.13,2.17,2.25,4.67,3.42a36.66,36.66,0,0,1,4.18,2.29,30.68,30.68,0,0,0,4.14,2.25c.68.16,1.81.49,3.38,1a14.86,14.86,0,0,1,3.94,1.77,35.92,35.92,0,0,0,6.39,3.13,30.92,30.92,0,0,1,3.66,1.41,5.28,5.28,0,0,0,2.25.48c3.38,0,6.6-1.85,9.61-5.55l3.26-4c.84-1,1.69-2,2.53-2.89s1.65-1.89,2.5-2.9c1.68-2,2.81-3,3.29-3l.73.24c.52.36.6,1.61.28,3.78a36.94,36.94,0,0,0-.53,6l.77,7a14.09,14.09,0,0,1-.12,4.06,27.31,27.31,0,0,0-.4,4.3,44.84,44.84,0,0,0,.28,5.27l.24,5.55c0,3.17-.4,5.3-1.25,6.27-.2.36-2.21,2.61-6,6.79a13.06,13.06,0,0,0-2.53,2.66,12.36,12.36,0,0,1-2,2.17,7,7,0,0,1-4.55,2c-1,0-2.85-.6-5.5-1.77l-5.07-3.06c-2.37-1.16-4.87-2.37-7.56-3.61a16.41,16.41,0,0,0-6.8-1.89,5,5,0,0,0-4,1.77,48.87,48.87,0,0,0-5.18,7.51c-.89,1.89-1.45,3-1.61,3.3-.69,1.33-1.41,2.61-2.13,3.78a29.85,29.85,0,0,0-2.17,3.78,10.44,10.44,0,0,0-1,4,4.28,4.28,0,0,0,1,2.9,10.28,10.28,0,0,0,3.13,2.13c1.45.68,2.41,1.08,2.9,1.28,1.36.65,2.69,1.37,4,2.14s2.81,1.56,4.3,2.37A93.7,93.7,0,0,1,906,853a15.18,15.18,0,0,1,2.3,1,5.68,5.68,0,0,0,2.73.77,4.51,4.51,0,0,0,2-.49,6.7,6.7,0,0,0,2.13-1.77c.81-.84,1.33-1.4,1.65-1.76l4.06-4a27,27,0,0,0,2.62-2.37c1.08-1.12,2-2.09,2.65-2.93a52.58,52.58,0,0,1,6.07-6.92c2.29-2.25,4-3.9,5-4.9.64-.65,1.52-1.61,2.61-2.9a16.55,16.55,0,0,1,3.18-2.89,69.92,69.92,0,0,0,8-7.8l3.54-3.78c4.38-4.39,6.95-10.62,7.8-18.66l.52-6.8c0-2.69.08-5,.24-7a83.16,83.16,0,0,0,.24-8.85Zm-28.47-37.52a37.3,37.3,0,0,0-.48,6.32,29.85,29.85,0,0,0,.24,4.14,52.75,52.75,0,0,1,.24,5.67v2a8.19,8.19,0,0,1-2.77,5.79l-4,4a22.78,22.78,0,0,1-3.54,2.77c-.32.37-1,.49-2,.49-1.65,0-4.71-1.09-9.09-3.26-3-1.33-4.74-2.94-5.26-4.79-.33-.36-.53-2.37-.53-6l.28-8.32-.28-8.81-.24-3.53a93.73,93.73,0,0,1,.24-10.82l-.24-14.64a11.13,11.13,0,0,1,3.3-6.27,21.67,21.67,0,0,1,1.89-1.65,8.78,8.78,0,0,0,2.13-2.37,7.75,7.75,0,0,1,2.65-2.53c.93-.48,1.53-.85,1.89-1a4.07,4.07,0,0,1,2.5-1,6.59,6.59,0,0,1,3.78,1.89,21.56,21.56,0,0,0,3.77,2.65,8.4,8.4,0,0,1,4.83,4.79,6,6,0,0,1,.24,1.85,38.32,38.32,0,0,0,.24,4.18v7.8c0,.68-.08,1.77-.12,3.29a18.71,18.71,0,0,0,.12,4,40.23,40.23,0,0,1,.73,7.55A45,45,0,0,1,934.69,721.24Z"/><path class="cls-1" d="M574.47,666c-1-1.09-3.58-3-7.76-5.67a26.54,26.54,0,0,1-5.07-3,65.46,65.46,0,0,0-16.12-7.07,21.7,21.7,0,0,0-2.5-.49,6.88,6.88,0,0,0-3.29.89,47,47,0,0,0-4,2.89l-2.5,2-4.78,4.79-3.78,4-1.53,1.53a26.63,26.63,0,0,0-2.13,2.65c-.93,1.25-1.65,1.81-2.13,1.61s-.65-.72-.4-1.77a8.43,8.43,0,0,0,.4-2,12.27,12.27,0,0,1,.72-2.9,4.32,4.32,0,0,0,.52-1.88,3.16,3.16,0,0,0-1-2.26,10,10,0,0,0-3.18-1.89c-1.4-.6-2.45-1-3.13-1.4a63.35,63.35,0,0,1-8.29-4.51,34.59,34.59,0,0,1-3.78-2.37,5.51,5.51,0,0,0-3.29-1.17,4.82,4.82,0,0,0-2,.53,7.31,7.31,0,0,0-2.13,1.73c-.77.88-1.33,1.48-1.65,1.77a17.77,17.77,0,0,0-2,1.76,26.62,26.62,0,0,0-2,2.26l-4.55,5.83c-2.65,3.49-4,6.71-4,9.57a6.05,6.05,0,0,0,3.3,5.3,23.75,23.75,0,0,1,3.66,3.1,12.8,12.8,0,0,0,1.32,1.65,7.74,7.74,0,0,1,1.89,3.78,35.46,35.46,0,0,1,.41,6.55c0,3.34.08,6.15.28,8.33l.48,9.32c-.68,7-1,12.59-1,16.61a104.84,104.84,0,0,0,.24,11.82l.28,7.84.24,11.06a30.86,30.86,0,0,1-.24,4.78l-.81,4.31a21.68,21.68,0,0,0-.24,3.25,6,6,0,0,0,1.29,4.31,16,16,0,0,0,5,2.73,64.64,64.64,0,0,1,8.29,4.54,33.55,33.55,0,0,1,3.78,2.38,5.5,5.5,0,0,0,3.29,1.16,4.88,4.88,0,0,0,2-.52,8,8,0,0,0,2.13-1.77c.76-.8,1.32-1.41,1.64-1.73a18.45,18.45,0,0,0,2-1.77,24.15,24.15,0,0,0,2-2.29l4.54-5.79c2.17-2.69,3.3-5.19,3.3-7.56a5.34,5.34,0,0,0-2.58-4.5A20.64,20.64,0,0,1,522,755.1a20.44,20.44,0,0,0-1.36-1.61,7.55,7.55,0,0,1-1.89-3.66,49.05,49.05,0,0,1-.69-6.19c0-3,0-5.55-.24-7.56l-.24-7.32q0-1.2-.48-6.51a19.94,19.94,0,0,1,.12-4.78c.24-2.22.36-3.78.36-4.79v-.76l-.24-8a49.41,49.41,0,0,1,.12-8.44c.24-1.29,1.21-2.73,2.9-4.38l5.83-5.83a44.25,44.25,0,0,1,6-4.91c2.49-1.73,4.42-2.29,5.75-1.61.68.29,1.56.69,2.69,1.09a12,12,0,0,1,3.1,1.89,52.28,52.28,0,0,0,5.83,3.3c4.5,2.69,7.6,4,9.33,4s3.25-.93,4.74-2.78c.68-.64,1.69-1.69,3.06-3a23.82,23.82,0,0,0,3-3.54,24.24,24.24,0,0,0,3.26-4.26,9.48,9.48,0,0,0,1.49-3.3,11.29,11.29,0,0,1,.52-1.77C575.67,668.53,575.51,667.08,574.47,666Z"/><path class="cls-1" d="M619.94,615.7A17.91,17.91,0,0,0,615,612a38.56,38.56,0,0,1-3.26-2.53,16.81,16.81,0,0,0-3.3-2.26c-1.16-.68-2.37-1.44-3.62-2.29a6.66,6.66,0,0,0-3.66-1.24,4.49,4.49,0,0,0-2.65.76,13.14,13.14,0,0,0-2.65,2.49,9.86,9.86,0,0,0-2.13,2.41c-.77,1.09-1.33,1.77-1.65,2.14l-4,5.3c-1.85,2.5-2.78,4.71-2.78,6.52v.52a5.14,5.14,0,0,0,2,4,48.69,48.69,0,0,0,6.8,4.54c.52.37,1.89,1.33,4.14,3s4.26,2.49,6,2.49a5.11,5.11,0,0,0,3.38-1.32,29.54,29.54,0,0,0,3.42-3.66c1.16-1.53,2-2.62,2.53-3.3s1.57-1.93,3.26-3.78a18.6,18.6,0,0,0,3.78-6.31A3.65,3.65,0,0,0,619.94,615.7Z"/><path class="cls-1" d="M632.41,758.28a22.62,22.62,0,0,1-3.66-3.18,15.25,15.25,0,0,0-1.37-1.61,8,8,0,0,1-1.89-3.66,61.58,61.58,0,0,1-.64-6.19c0-3-.08-5.55-.24-7.56L624.36,726a15.91,15.91,0,0,0,0-4,17.23,17.23,0,0,1,0-4.06,49.36,49.36,0,0,0,.25-5.79,19.26,19.26,0,0,0-.49-5.27,30,30,0,0,1-1-7.8c0-1.85.16-4.26.48-7.32a37.66,37.66,0,0,0,.52-5.31l-.28-11.05a29.14,29.14,0,0,1,.28-4.79l.73-4.3a14.67,14.67,0,0,0,.28-3.26c0-2-.44-3.41-1.29-4.26a15.87,15.87,0,0,0-5-2.81,63.07,63.07,0,0,1-8.33-4.51,44.59,44.59,0,0,1-3.78-2.37,5.31,5.31,0,0,0-3.25-1.17,4.53,4.53,0,0,0-2,.53,6.53,6.53,0,0,0-2.14,1.73,23.54,23.54,0,0,1-1.64,1.77,17.77,17.77,0,0,0-2,1.76,21.06,21.06,0,0,0-2,2.26l-4.55,5.83c-2.21,2.69-3.3,5.18-3.3,7.56a5.26,5.26,0,0,0,2.54,4.5,20.9,20.9,0,0,1,3.66,3.18c.6.72,1,1.28,1.4,1.64a8.68,8.68,0,0,1,1.89,3.74,38.54,38.54,0,0,1,.37,6.32c0,1,.16,3.86.48,8.56a81.74,81.74,0,0,1,.52,11.06L596.38,721a8,8,0,0,1-.24,2.26,20.66,20.66,0,0,0-.48,4.78c0,2.21.16,5.63.48,10.33l.52,7.32.24,11.06a30.86,30.86,0,0,1-.24,4.78l-.76,4.31a17.39,17.39,0,0,0-.24,3.25c0,2,.4,3.42,1.24,4.31a16.69,16.69,0,0,0,5,2.73,64.41,64.41,0,0,1,8.32,4.54,36.54,36.54,0,0,1,3.78,2.38,5.35,5.35,0,0,0,3.3,1.16,4.84,4.84,0,0,0,2-.52,7.87,7.87,0,0,0,2.13-1.77c.72-.8,1.29-1.41,1.65-1.73s1.12-1,2-1.77a22.81,22.81,0,0,0,2-2.29l4.54-5.79c2.17-2.69,3.26-5.19,3.26-7.56A5.29,5.29,0,0,0,632.41,758.28Z"/><path class="cls-1" d="M697,660.81a9.09,9.09,0,0,0-3.94-.52h-2a27.8,27.8,0,0,0-3.26.16,8.52,8.52,0,0,1-2.41-.16,1,1,0,0,1-.84-1L685,655a18,18,0,0,0,.12-3.78c-.08-1-.12-1.89-.12-2.53l-.24-11.1a29.88,29.88,0,0,1,.24-4.74l.76-4.31a18,18,0,0,0,.24-3.25c0-2-.4-3.46-1.24-4.3a15.62,15.62,0,0,0-5-2.74,66.17,66.17,0,0,1-8.32-4.58,34.23,34.23,0,0,1-3.78-2.38,5.28,5.28,0,0,0-3.26-1.12,4.53,4.53,0,0,0-2,.48,9,9,0,0,0-2.17,1.77,19.16,19.16,0,0,1-1.65,1.77,18.88,18.88,0,0,0-2,1.77,29.36,29.36,0,0,0-2,2.29l-4.5,5.75c-2.21,2.69-3.3,5.19-3.3,7.56a5.33,5.33,0,0,0,2.53,4.54,19.07,19.07,0,0,1,3.62,3.14c.61.76,1.09,1.33,1.41,1.65a12.26,12.26,0,0,1,2.53,4.54,29.11,29.11,0,0,1,1,6.27l.48,6c0,1.2-.48,1.76-1.49,1.76l-5.55-.24a5.36,5.36,0,0,0-2.77.49c-.84.68-1.57,3-2.25,6.83l-1,5.79a11.89,11.89,0,0,0-.28,2.78,1.84,1.84,0,0,0,1.29,1.77,19.4,19.4,0,0,0,5.55.48,18.16,18.16,0,0,1,4.86.36c.61.28.93,1.17.93,2.65l-.24,5.79a5.46,5.46,0,0,0,.24,2,20.35,20.35,0,0,1,.24,3.54c0,1.53-.2,4.14-.48,7.8a59.14,59.14,0,0,0,.24,6.8,45.25,45.25,0,0,1,0,9.33c0,1.16-.08,2.61-.12,4.3a29.4,29.4,0,0,0,.12,5.27c.32,3.69.48,6.31.48,7.84l-.24,7.27a39.12,39.12,0,0,0-.24,5.31l.24,11.06a30.86,30.86,0,0,1-.24,4.78l-.77,4.31a16.87,16.87,0,0,0-.28,3.25,6,6,0,0,0,1.29,4.31,16,16,0,0,0,5,2.73,64.64,64.64,0,0,1,8.29,4.54,33.55,33.55,0,0,1,3.78,2.38,5.5,5.5,0,0,0,3.29,1.16,4.8,4.8,0,0,0,2-.52,7.43,7.43,0,0,0,2.18-1.77c.72-.8,1.28-1.41,1.6-1.73a14.75,14.75,0,0,0,2-1.77c.85-.84,1.49-1.61,2.06-2.29l4.5-5.79c2.17-2.69,3.3-5.19,3.3-7.56a5.39,5.39,0,0,0-2.54-4.5,19.83,19.83,0,0,1-3.66-3.18,20.44,20.44,0,0,0-1.36-1.61,7.63,7.63,0,0,1-1.89-3.9,65.5,65.5,0,0,1-.65-7c0-3.18-.08-5.79-.28-7.8l-.24-3.26c-.16-1.33-.36-3.34-.6-6.07a60,60,0,0,1-.12-8.53c.32-3.54.48-9.33.48-17.41.36-3.66.48-6.79.48-9.33a53.36,53.36,0,0,0-.24-6.15c-.16-1.57-.24-2.81-.24-3.66,0-1.16.36-1.85,1-2.13a12,12,0,0,1,4.07-.12,9.93,9.93,0,0,0,4.26-.28c.84-.64,1.57-2.94,2.25-6.75l1-5.84a10.89,10.89,0,0,0,.29-2.73A1.91,1.91,0,0,0,697,660.81Z"/><path class="cls-1" d="M742.62,615.7a18.46,18.46,0,0,0-5-3.74,38.54,38.54,0,0,1-3.25-2.53,15,15,0,0,0-3.3-2.26c-1.17-.68-2.37-1.44-3.66-2.29a6.39,6.39,0,0,0-3.66-1.24,4.54,4.54,0,0,0-2.61.76,13.15,13.15,0,0,0-2.66,2.49,11.28,11.28,0,0,0-2.13,2.41,17.7,17.7,0,0,1-1.65,2.14l-4,5.3c-1.85,2.5-2.77,4.71-2.77,6.52v.52a5.15,5.15,0,0,0,2,4,43.64,43.64,0,0,0,6.75,4.54c.53.37,1.89,1.33,4.19,3s4.22,2.49,5.91,2.49a5.25,5.25,0,0,0,3.41-1.32,32,32,0,0,0,3.38-3.66l2.53-3.3c.49-.64,1.57-1.93,3.26-3.78a18.29,18.29,0,0,0,3.78-6.31A3.84,3.84,0,0,0,742.62,615.7Z"/><path class="cls-1" d="M755,758.28a21.33,21.33,0,0,1-3.66-3.18,14.29,14.29,0,0,0-1.36-1.61,7.82,7.82,0,0,1-1.85-3.66,42.45,42.45,0,0,1-.69-6.19c0-3-.08-5.55-.24-7.56L747,726a16.89,16.89,0,0,0,0-4,13.81,13.81,0,0,1,0-4.06,52.19,52.19,0,0,0,.24-5.79,19.79,19.79,0,0,0-.48-5.27,30.06,30.06,0,0,1-1-7.8,73.14,73.14,0,0,1,.53-7.32,45,45,0,0,0,.52-5.31l-.24-11.05a26.24,26.24,0,0,1,.24-4.79l.72-4.3a18,18,0,0,0,.24-3.26c0-2-.4-3.41-1.2-4.26a18.07,18.07,0,0,0-5.07-2.81,65.83,65.83,0,0,1-8.32-4.51c-1.49-.84-2.74-1.65-3.78-2.37a5.25,5.25,0,0,0-3.26-1.17,4.75,4.75,0,0,0-2,.53A6.94,6.94,0,0,0,722,650.2,17,17,0,0,1,720.3,652a16.17,16.17,0,0,0-2,1.76,22.22,22.22,0,0,0-2,2.26l-4.54,5.83c-2.17,2.69-3.26,5.18-3.26,7.56a5.32,5.32,0,0,0,2.49,4.5,19.12,19.12,0,0,1,3.66,3.18c.61.72,1,1.28,1.41,1.64a8.26,8.26,0,0,1,1.89,3.74,40,40,0,0,1,.36,6.32c0,1,.16,3.86.48,8.56a79.72,79.72,0,0,1,.53,11.06L719.06,721a9.17,9.17,0,0,1-.29,2.26,20.66,20.66,0,0,0-.48,4.78c0,2.21.16,5.63.48,10.33l.53,7.32.24,11.06a30.86,30.86,0,0,1-.24,4.78l-.77,4.31a17.39,17.39,0,0,0-.24,3.25c0,2,.4,3.42,1.25,4.31a16.31,16.31,0,0,0,5.06,2.73,67.49,67.49,0,0,1,8.29,4.54,37.66,37.66,0,0,1,3.78,2.38,5.3,5.3,0,0,0,3.25,1.16,4.52,4.52,0,0,0,2-.52,7.43,7.43,0,0,0,2.18-1.77c.76-.8,1.28-1.41,1.6-1.73a14.75,14.75,0,0,0,2-1.77,22.5,22.5,0,0,0,2-2.29l4.55-5.79c2.17-2.69,3.26-5.19,3.26-7.56A5.3,5.3,0,0,0,755,758.28Z"/><path class="cls-1" d="M864.61,758.28A21.09,21.09,0,0,1,861,755.1c-.56-.76-1.08-1.29-1.37-1.65a10.84,10.84,0,0,1-2.29-4.54,40,40,0,0,1-.52-7.56v-5.27l-.24-7.28c-.16-2.21-.16-4.38-.12-6.55s.12-4,.12-5.51a59.67,59.67,0,0,0-.24-7.08c-.32-3.69-.49-6.31-.49-7.8l.25-7.31a46.71,46.71,0,0,0,.24-5.27l-.24-11.1a30.5,30.5,0,0,1,.24-4.78l.76-4.27a18.48,18.48,0,0,0,.24-3.29c0-2-.4-3.46-1.24-4.3a16.44,16.44,0,0,0-5-2.74,35.83,35.83,0,0,1-4.18-2.29,31.29,31.29,0,0,0-4.14-2.25c-.69-.16-1.77-.53-3.42-1a14.32,14.32,0,0,1-3.9-1.77,39.26,39.26,0,0,0-6-2.93,14.12,14.12,0,0,0-4.06-.61,4.46,4.46,0,0,0-2.74,1,25.76,25.76,0,0,0-3,3l-3.26,4a23.64,23.64,0,0,1-2.65,2.69,18.25,18.25,0,0,0-2.66,2.61l-4.26,4.55a27.91,27.91,0,0,0-2.17,2.61c-.93,1.29-1.65,1.85-2.13,1.65s-.61-.72-.4-1.73a9.21,9.21,0,0,0,.4-2,9,9,0,0,1,.76-2.94,5.64,5.64,0,0,0,.48-1.88,3.16,3.16,0,0,0-1-2.26,11,11,0,0,0-3.14-1.89c-1.44-.6-2.49-1-3.17-1.4a63.35,63.35,0,0,1-8.29-4.51,36.31,36.31,0,0,1-3.78-2.37,5.4,5.4,0,0,0-3.25-1.17,5.08,5.08,0,0,0-2,.49,7.34,7.34,0,0,0-2.17,1.81,22,22,0,0,1-1.65,1.73,17.77,17.77,0,0,0-2,1.76c-.81.89-1.49,1.61-2,2.26l-4.51,5.83c-2.69,3.49-4.06,6.71-4.06,9.57a6.09,6.09,0,0,0,3.26,5.3,18.91,18.91,0,0,1,3.66,3.1,21.24,21.24,0,0,0,1.4,1.65,7.71,7.71,0,0,1,1.85,3.9,52.58,52.58,0,0,1,.69,6.95c0,3.18,0,5.79.24,7.81l.52,9.32c-.2,1.17-.44,3.46-.76,6.92a92.37,92.37,0,0,0-.53,9.69,108.52,108.52,0,0,0,.25,11.82l.28,7.84.24,11.06a35.91,35.91,0,0,1-.24,4.74l-.77,4.35a14.17,14.17,0,0,0-.28,3.25c0,2,.44,3.46,1.29,4.31a17.4,17.4,0,0,0,5,2.73,64.34,64.34,0,0,1,8.33,4.54,32.62,32.62,0,0,1,3.74,2.38,5.5,5.5,0,0,0,3.29,1.16,4.73,4.73,0,0,0,2-.52,7.53,7.53,0,0,0,2.17-1.77c.72-.8,1.28-1.41,1.6-1.73a23.18,23.18,0,0,0,2-1.77,19.53,19.53,0,0,0,2-2.29l4.54-5.79c2.17-2.69,3.3-5.19,3.3-7.52a5.31,5.31,0,0,0-2.54-4.54,23.28,23.28,0,0,1-3.66-3.18c-.6-.76-1-1.29-1.36-1.65a7.61,7.61,0,0,1-1.89-3.62,43.87,43.87,0,0,1-.65-6.19c0-3-.08-5.55-.24-7.56l-.24-7.28c0-.84-.2-3-.52-6.55a18.39,18.39,0,0,1,.12-4.83,40.16,40.16,0,0,0,.4-4.74v-.76l-.28-8a44.82,44.82,0,0,1,.16-8.48c.24-1.25,1.21-2.69,2.86-4.38.36-.32,1-.89,1.89-1.61a9.92,9.92,0,0,0,2.13-2.41,46.12,46.12,0,0,1,5.3-4.79,6.81,6.81,0,0,1,4.31-2,6.36,6.36,0,0,1,2.77.73,14.45,14.45,0,0,0,2.25,1,8.63,8.63,0,0,1,4.55,4.5c.8,2,1.12,5.31,1,9.86,0,2.53.08,4.58.24,6.27,0,.36,0,1.37.12,3s.16,4.67.16,9.05c0,4.87-.12,8.65-.28,11.34,0,3.18.08,5.87.28,8a99.63,99.63,0,0,1,.2,11.62,40.17,40.17,0,0,0,0,6.27c.21,2.7.29,4.79.29,6.32a11.78,11.78,0,0,1-.29,3.21l-.72,4.35a14.17,14.17,0,0,0-.28,3.25c0,2,.4,3.46,1.29,4.31a16.32,16.32,0,0,0,5,2.73,64.64,64.64,0,0,1,8.29,4.54,40,40,0,0,1,3.82,2.38,5.3,5.3,0,0,0,3.25,1.16,4.8,4.8,0,0,0,2-.52,7.81,7.81,0,0,0,2.17-1.77c.73-.8,1.29-1.41,1.61-1.73a15.37,15.37,0,0,0,2-1.77,21.6,21.6,0,0,0,2-2.29l4.55-5.79c2.21-2.69,3.29-5.19,3.29-7.52A5.4,5.4,0,0,0,864.61,758.28Z"/><path class="cls-2" d="M598.51,199.5a175,175,0,0,0-247.12,0c-1.69,1.69-3.42,3.5-5.23,5.51l-.35.48c.55.2,1.12.37,1.64.61s1.17.4,1.77.55c1.49-1.69,3-3.25,4.55-4.73a171.54,171.54,0,0,1,242.41,0c61.72,61.67,67.43,159.5,13.19,227.57L609,430a160,160,0,0,1-12.82,14.32,150.37,150.37,0,0,1-14.6,13A171.1,171.1,0,0,1,353.8,444.29c-57.74-57.74-66.66-148.89-21.27-216.64.64-1,1.29-1.93,2-2.9l1.09-1.32-1.74-.65-1.63-.6-.46.64c-.68,1-1.36,2-2,3-46.32,69.08-37.19,162,21.67,220.9A174.5,174.5,0,0,0,583.64,460a166.44,166.44,0,0,0,14.87-13.31A163.9,163.9,0,0,0,611.66,432l.33-.47C667.27,362.19,661.52,262.42,598.51,199.5Zm0,0a175,175,0,0,0-247.12,0c-1.69,1.69-3.42,3.5-5.23,5.51l-.35.48c.55.2,1.12.37,1.64.61s1.17.4,1.77.55c1.49-1.69,3-3.25,4.55-4.73a171.54,171.54,0,0,1,242.41,0c61.72,61.67,67.43,159.5,13.19,227.57L609,430a160,160,0,0,1-12.82,14.32,150.37,150.37,0,0,1-14.6,13A171.1,171.1,0,0,1,353.8,444.29c-57.74-57.74-66.66-148.89-21.27-216.64.64-1,1.29-1.93,2-2.9l1.09-1.32-1.74-.65-1.63-.6-.46.64c-.68,1-1.36,2-2,3-46.32,69.08-37.19,162,21.67,220.9A174.5,174.5,0,0,0,583.64,460a166.44,166.44,0,0,0,14.87-13.31A163.9,163.9,0,0,0,611.66,432l.33-.47C667.27,362.19,661.52,262.42,598.51,199.5Zm0,0a175,175,0,0,0-247.12,0c-1.69,1.69-3.42,3.5-5.23,5.51l-.35.48c.55.2,1.12.37,1.64.61s1.17.4,1.77.55c1.49-1.69,3-3.25,4.55-4.73a171.54,171.54,0,0,1,242.41,0c61.72,61.67,67.43,159.5,13.19,227.57L609,430a160,160,0,0,1-12.82,14.32,150.37,150.37,0,0,1-14.6,13A171.1,171.1,0,0,1,353.8,444.29c-57.74-57.74-66.66-148.89-21.27-216.64.64-1,1.29-1.93,2-2.9l1.09-1.32-1.74-.65-1.63-.6-.46.64c-.68,1-1.36,2-2,3-46.32,69.08-37.19,162,21.67,220.9A174.5,174.5,0,0,0,583.64,460a166.44,166.44,0,0,0,14.87-13.31A163.9,163.9,0,0,0,611.66,432l.33-.47C667.27,362.19,661.52,262.42,598.51,199.5Zm0,0a175,175,0,0,0-247.12,0c-1.69,1.69-3.42,3.5-5.23,5.51l-.35.48c.55.2,1.12.37,1.64.61s1.17.4,1.77.55c1.49-1.69,3-3.25,4.55-4.73a171.54,171.54,0,0,1,242.41,0c61.72,61.67,67.43,159.5,13.19,227.57L609,430a160,160,0,0,1-12.82,14.32,150.37,150.37,0,0,1-14.6,13A171.1,171.1,0,0,1,353.8,444.29c-57.74-57.74-66.66-148.89-21.27-216.64.64-1,1.29-1.93,2-2.9l1.09-1.32-1.74-.65-1.63-.6-.46.64c-.68,1-1.36,2-2,3-46.32,69.08-37.19,162,21.67,220.9A174.5,174.5,0,0,0,583.64,460a166.44,166.44,0,0,0,14.87-13.31A163.9,163.9,0,0,0,611.66,432l.33-.47C667.27,362.19,661.52,262.42,598.51,199.5Zm0,0a175,175,0,0,0-247.12,0c-1.69,1.69-3.42,3.5-5.23,5.51l-.35.48c.55.2,1.12.37,1.64.61s1.17.4,1.77.55c1.49-1.69,3-3.25,4.55-4.73a171.54,171.54,0,0,1,242.41,0c61.72,61.67,67.43,159.5,13.19,227.57L609,430a160,160,0,0,1-12.82,14.32,150.37,150.37,0,0,1-14.6,13A171.1,171.1,0,0,1,353.8,444.29c-57.74-57.74-66.66-148.89-21.27-216.64.64-1,1.29-1.93,2-2.9l1.09-1.32-1.74-.65-1.63-.6-.46.64c-.68,1-1.36,2-2,3-46.32,69.08-37.19,162,21.67,220.9A174.5,174.5,0,0,0,583.64,460a166.44,166.44,0,0,0,14.87-13.31A163.9,163.9,0,0,0,611.66,432l.33-.47C667.27,362.19,661.52,262.42,598.51,199.5Zm0,0a175,175,0,0,0-247.12,0c-1.69,1.69-3.42,3.5-5.23,5.51l-.35.48c.55.2,1.12.37,1.64.61s1.17.4,1.77.55c1.49-1.69,3-3.25,4.55-4.73a171.54,171.54,0,0,1,242.41,0c61.72,61.67,67.43,159.5,13.19,227.57L609,430a160,160,0,0,1-12.82,14.32,150.37,150.37,0,0,1-14.6,13A171.1,171.1,0,0,1,353.8,444.29c-57.74-57.74-66.66-148.89-21.27-216.64.64-1,1.29-1.93,2-2.9l1.09-1.32-1.74-.65-1.63-.6-.46.64c-.68,1-1.36,2-2,3-46.32,69.08-37.19,162,21.67,220.9A174.5,174.5,0,0,0,583.64,460a166.44,166.44,0,0,0,14.87-13.31A163.9,163.9,0,0,0,611.66,432l.33-.47C667.27,362.19,661.52,262.42,598.51,199.5Zm0,0a175,175,0,0,0-247.12,0c-1.69,1.69-3.42,3.5-5.23,5.51l-.35.48c.55.2,1.12.37,1.64.61s1.17.4,1.77.55c1.49-1.69,3-3.25,4.55-4.73a171.54,171.54,0,0,1,242.41,0c61.72,61.67,67.43,159.5,13.19,227.57L609,430a160,160,0,0,1-12.82,14.32,150.37,150.37,0,0,1-14.6,13A171.1,171.1,0,0,1,353.8,444.29c-57.74-57.74-66.66-148.89-21.27-216.64.64-1,1.29-1.93,2-2.9l1.09-1.32-1.74-.65-1.63-.6-.46.64c-.68,1-1.36,2-2,3-46.32,69.08-37.19,162,21.67,220.9A174.5,174.5,0,0,0,583.64,460a166.44,166.44,0,0,0,14.87-13.31A163.9,163.9,0,0,0,611.66,432l.33-.47C667.27,362.19,661.52,262.42,598.51,199.5Zm0,0a175,175,0,0,0-247.12,0c-1.69,1.69-3.42,3.5-5.23,5.51l-.35.48c.55.2,1.12.37,1.64.61s1.17.4,1.77.55c1.49-1.69,3-3.25,4.55-4.73a171.54,171.54,0,0,1,242.41,0c61.72,61.67,67.43,159.5,13.19,227.57L609,430a160,160,0,0,1-12.82,14.32,150.37,150.37,0,0,1-14.6,13A171.1,171.1,0,0,1,353.8,444.29c-57.74-57.74-66.66-148.89-21.27-216.64.64-1,1.29-1.93,2-2.9l1.09-1.32-1.74-.65-1.63-.6-.46.64c-.68,1-1.36,2-2,3-46.32,69.08-37.19,162,21.67,220.9A174.5,174.5,0,0,0,583.64,460a166.44,166.44,0,0,0,14.87-13.31A163.9,163.9,0,0,0,611.66,432l.33-.47C667.27,362.19,661.52,262.42,598.51,199.5Zm0,0a175,175,0,0,0-247.12,0c-1.69,1.69-3.42,3.5-5.23,5.51l-.35.48c.55.2,1.12.37,1.64.61s1.17.4,1.77.55c1.49-1.69,3-3.25,4.55-4.73a171.54,171.54,0,0,1,242.41,0c61.72,61.67,67.43,159.5,13.19,227.57L609,430a160,160,0,0,1-12.82,14.32,150.37,150.37,0,0,1-14.6,13A171.1,171.1,0,0,1,353.8,444.29c-57.74-57.74-66.66-148.89-21.27-216.64.64-1,1.29-1.93,2-2.9l1.09-1.32-1.74-.65-1.63-.6-.46.64c-.68,1-1.36,2-2,3-46.32,69.08-37.19,162,21.67,220.9A174.5,174.5,0,0,0,583.64,460a166.44,166.44,0,0,0,14.87-13.31A163.9,163.9,0,0,0,611.66,432l.33-.47C667.27,362.19,661.52,262.42,598.51,199.5Zm0,0a175,175,0,0,0-247.12,0c-1.69,1.69-3.42,3.5-5.23,5.51l-.35.48c.55.2,1.12.37,1.64.61s1.17.4,1.77.55c1.49-1.69,3-3.25,4.55-4.73a171.54,171.54,0,0,1,242.41,0c61.72,61.67,67.43,159.5,13.19,227.57L609,430a160,160,0,0,1-12.82,14.32,150.37,150.37,0,0,1-14.6,13A171.1,171.1,0,0,1,353.8,444.29c-57.74-57.74-66.66-148.89-21.27-216.64.64-1,1.29-1.93,2-2.9l1.09-1.32-1.74-.65-1.63-.6-.46.64c-.68,1-1.36,2-2,3-46.32,69.08-37.19,162,21.67,220.9A174.5,174.5,0,0,0,583.64,460a166.44,166.44,0,0,0,14.87-13.31A163.9,163.9,0,0,0,611.66,432l.33-.47C667.27,362.19,661.52,262.42,598.51,199.5Zm0,0a175,175,0,0,0-247.12,0c-1.69,1.69-3.42,3.5-5.23,5.51l-.35.48c.55.2,1.12.37,1.64.61s1.17.4,1.77.55c1.49-1.69,3-3.25,4.55-4.73a171.54,171.54,0,0,1,242.41,0c61.72,61.67,67.43,159.5,13.19,227.57L609,430a160,160,0,0,1-12.82,14.32,150.37,150.37,0,0,1-14.6,13A171.1,171.1,0,0,1,353.8,444.29c-57.74-57.74-66.66-148.89-21.27-216.64.64-1,1.29-1.93,2-2.9l1.09-1.32-1.74-.65-1.63-.6-.46.64c-.68,1-1.36,2-2,3-46.32,69.08-37.19,162,21.67,220.9A174.5,174.5,0,0,0,583.64,460a166.44,166.44,0,0,0,14.87-13.31A163.9,163.9,0,0,0,611.66,432l.33-.47C667.27,362.19,661.52,262.42,598.51,199.5Zm0,0a175,175,0,0,0-247.12,0c-1.69,1.69-3.42,3.5-5.23,5.51l-.35.48c.55.2,1.12.37,1.64.61s1.17.4,1.77.55c1.49-1.69,3-3.25,4.55-4.73a171.54,171.54,0,0,1,242.41,0c61.72,61.67,67.43,159.5,13.19,227.57L609,430a160,160,0,0,1-12.82,14.32,150.37,150.37,0,0,1-14.6,13A171.1,171.1,0,0,1,353.8,444.29c-57.74-57.74-66.66-148.89-21.27-216.64.64-1,1.29-1.93,2-2.9l1.09-1.32-1.74-.65-1.63-.6-.46.64c-.68,1-1.36,2-2,3-46.32,69.08-37.19,162,21.67,220.9A174.5,174.5,0,0,0,583.64,460a166.44,166.44,0,0,0,14.87-13.31A163.9,163.9,0,0,0,611.66,432l.33-.47C667.27,362.19,661.52,262.42,598.51,199.5Zm0,0a175,175,0,0,0-247.12,0c-1.69,1.69-3.42,3.5-5.23,5.51l-.35.48c.55.2,1.12.37,1.64.61s1.17.4,1.77.55c1.49-1.69,3-3.25,4.55-4.73a171.54,171.54,0,0,1,242.41,0c61.72,61.67,67.43,159.5,13.19,227.57L609,430a160,160,0,0,1-12.82,14.32,150.37,150.37,0,0,1-14.6,13A171.1,171.1,0,0,1,353.8,444.29c-57.74-57.74-66.66-148.89-21.27-216.64.64-1,1.29-1.93,2-2.9l1.09-1.32-1.74-.65-1.63-.6-.46.64c-.68,1-1.36,2-2,3-46.32,69.08-37.19,162,21.67,220.9A174.5,174.5,0,0,0,583.64,460a166.44,166.44,0,0,0,14.87-13.31A163.9,163.9,0,0,0,611.66,432l.33-.47C667.27,362.19,661.52,262.42,598.51,199.5Zm0,0a175,175,0,0,0-247.12,0c-1.69,1.69-3.42,3.5-5.23,5.51l-.35.48c.55.2,1.12.37,1.64.61s1.17.4,1.77.55c1.49-1.69,3-3.25,4.55-4.73a171.54,171.54,0,0,1,242.41,0c61.72,61.67,67.43,159.5,13.19,227.57L609,430a160,160,0,0,1-12.82,14.32,150.37,150.37,0,0,1-14.6,13A171.1,171.1,0,0,1,353.8,444.29c-57.74-57.74-66.66-148.89-21.27-216.64.64-1,1.29-1.93,2-2.9l1.09-1.32-1.74-.65-1.63-.6-.46.64c-.68,1-1.36,2-2,3-46.32,69.08-37.19,162,21.67,220.9A174.5,174.5,0,0,0,583.64,460a166.44,166.44,0,0,0,14.87-13.31A163.9,163.9,0,0,0,611.66,432l.33-.47C667.27,362.19,661.52,262.42,598.51,199.5Zm0,0a175,175,0,0,0-247.12,0c-1.69,1.69-3.42,3.5-5.23,5.51l-.35.48c.55.2,1.12.37,1.64.61s1.17.4,1.77.55c1.49-1.69,3-3.25,4.55-4.73a171.54,171.54,0,0,1,242.41,0c61.72,61.67,67.43,159.5,13.19,227.57L609,430a160,160,0,0,1-12.82,14.32,150.37,150.37,0,0,1-14.6,13A171.1,171.1,0,0,1,353.8,444.29c-57.74-57.74-66.66-148.89-21.27-216.64.64-1,1.29-1.93,2-2.9l1.09-1.32-1.74-.65-1.63-.6-.46.64c-.68,1-1.36,2-2,3-46.32,69.08-37.19,162,21.67,220.9A174.5,174.5,0,0,0,583.64,460a166.44,166.44,0,0,0,14.87-13.31A163.9,163.9,0,0,0,611.66,432l.33-.47C667.27,362.19,661.52,262.42,598.51,199.5Zm0,0a175,175,0,0,0-247.12,0c-1.69,1.69-3.42,3.5-5.23,5.51l-.35.48c.55.2,1.12.37,1.64.61s1.17.4,1.77.55c1.49-1.69,3-3.25,4.55-4.73a171.54,171.54,0,0,1,242.41,0c61.72,61.67,67.43,159.5,13.19,227.57L609,430a160,160,0,0,1-12.82,14.32,150.37,150.37,0,0,1-14.6,13A171.1,171.1,0,0,1,353.8,444.29c-57.74-57.74-66.66-148.89-21.27-216.64.64-1,1.29-1.93,2-2.9l1.09-1.32-1.74-.65-1.63-.6-.46.64c-.68,1-1.36,2-2,3-46.32,69.08-37.19,162,21.67,220.9A174.5,174.5,0,0,0,583.64,460a166.44,166.44,0,0,0,14.87-13.31A163.9,163.9,0,0,0,611.66,432l.33-.47C667.27,362.19,661.52,262.42,598.51,199.5Zm0,0a175,175,0,0,0-247.12,0c-1.69,1.69-3.42,3.5-5.23,5.51l-.35.48c.55.2,1.12.37,1.64.61s1.17.4,1.77.55c1.49-1.69,3-3.25,4.55-4.73a171.54,171.54,0,0,1,242.41,0c61.72,61.67,67.43,159.5,13.19,227.57L609,430a160,160,0,0,1-12.82,14.32,150.37,150.37,0,0,1-14.6,13A171.1,171.1,0,0,1,353.8,444.29c-57.74-57.74-66.66-148.89-21.27-216.64.64-1,1.29-1.93,2-2.9l1.09-1.32-1.74-.65-1.63-.6-.46.64c-.68,1-1.36,2-2,3-46.32,69.08-37.19,162,21.67,220.9A174.5,174.5,0,0,0,583.64,460a166.44,166.44,0,0,0,14.87-13.31A163.9,163.9,0,0,0,611.66,432l.33-.47C667.27,362.19,661.52,262.42,598.51,199.5Zm0,0a175,175,0,0,0-247.12,0c-1.69,1.69-3.42,3.5-5.23,5.51l-.35.48c.55.2,1.12.37,1.64.61s1.17.4,1.77.55c1.49-1.69,3-3.25,4.55-4.73a171.54,171.54,0,0,1,242.41,0c61.72,61.67,67.43,159.5,13.19,227.57L609,430a160,160,0,0,1-12.82,14.32,150.37,150.37,0,0,1-14.6,13A171.1,171.1,0,0,1,353.8,444.29c-57.74-57.74-66.66-148.89-21.27-216.64.64-1,1.29-1.93,2-2.9l1.09-1.32-1.74-.65-1.63-.6-.46.64c-.68,1-1.36,2-2,3-46.32,69.08-37.19,162,21.67,220.9A174.5,174.5,0,0,0,583.64,460a166.44,166.44,0,0,0,14.87-13.31A163.9,163.9,0,0,0,611.66,432l.33-.47C667.27,362.19,661.52,262.42,598.51,199.5Zm0,0a175,175,0,0,0-247.12,0c-1.69,1.69-3.42,3.5-5.23,5.51l-.35.48c.55.2,1.12.37,1.64.61s1.17.4,1.77.55c1.49-1.69,3-3.25,4.55-4.73a171.54,171.54,0,0,1,242.41,0c61.72,61.67,67.43,159.5,13.19,227.57L609,430a160,160,0,0,1-12.82,14.32,150.37,150.37,0,0,1-14.6,13A171.1,171.1,0,0,1,353.8,444.29c-57.74-57.74-66.66-148.89-21.27-216.64.64-1,1.29-1.93,2-2.9l1.09-1.32-1.74-.65-1.63-.6-.46.64c-.68,1-1.36,2-2,3-46.32,69.08-37.19,162,21.67,220.9A174.5,174.5,0,0,0,583.64,460a166.44,166.44,0,0,0,14.87-13.31A163.9,163.9,0,0,0,611.66,432l.33-.47C667.27,362.19,661.52,262.42,598.51,199.5Zm0,0a175,175,0,0,0-247.12,0c-1.69,1.69-3.42,3.5-5.23,5.51l-.35.48c.55.2,1.12.37,1.64.61s1.17.4,1.77.55c1.49-1.69,3-3.25,4.55-4.73a171.54,171.54,0,0,1,242.41,0c61.72,61.67,67.43,159.5,13.19,227.57L609,430a160,160,0,0,1-12.82,14.32,150.37,150.37,0,0,1-14.6,13A171.1,171.1,0,0,1,353.8,444.29c-57.74-57.74-66.66-148.89-21.27-216.64.64-1,1.29-1.93,2-2.9l1.09-1.32-1.74-.65-1.63-.6-.46.64c-.68,1-1.36,2-2,3-46.32,69.08-37.19,162,21.67,220.9A174.5,174.5,0,0,0,583.64,460a166.44,166.44,0,0,0,14.87-13.31A163.9,163.9,0,0,0,611.66,432l.33-.47C667.27,362.19,661.52,262.42,598.51,199.5Zm0,0a175,175,0,0,0-247.12,0c-1.69,1.69-3.42,3.5-5.23,5.51l-.35.48c.55.2,1.12.37,1.64.61s1.17.4,1.77.55c1.49-1.69,3-3.25,4.55-4.73a171.54,171.54,0,0,1,242.41,0c61.72,61.67,67.43,159.5,13.19,227.57L609,430a160,160,0,0,1-12.82,14.32,150.37,150.37,0,0,1-14.6,13A171.1,171.1,0,0,1,353.8,444.29c-57.74-57.74-66.66-148.89-21.27-216.64.64-1,1.29-1.93,2-2.9l1.09-1.32-1.74-.65-1.63-.6-.46.64c-.68,1-1.36,2-2,3-46.32,69.08-37.19,162,21.67,220.9A174.5,174.5,0,0,0,583.64,460a166.44,166.44,0,0,0,14.87-13.31A163.9,163.9,0,0,0,611.66,432l.33-.47C667.27,362.19,661.52,262.42,598.51,199.5Zm0,0a175,175,0,0,0-247.12,0c-1.69,1.69-3.42,3.5-5.23,5.51l-.35.48c.55.2,1.12.37,1.64.61s1.17.4,1.77.55c1.49-1.69,3-3.25,4.55-4.73a171.54,171.54,0,0,1,242.41,0c61.72,61.67,67.43,159.5,13.19,227.57L609,430a160,160,0,0,1-12.82,14.32,150.37,150.37,0,0,1-14.6,13A171.1,171.1,0,0,1,353.8,444.29c-57.74-57.74-66.66-148.89-21.27-216.64.64-1,1.29-1.93,2-2.9l1.09-1.32-1.74-.65-1.63-.6-.46.64c-.68,1-1.36,2-2,3-46.32,69.08-37.19,162,21.67,220.9A174.5,174.5,0,0,0,583.64,460a166.44,166.44,0,0,0,14.87-13.31A163.9,163.9,0,0,0,611.66,432l.33-.47C667.27,362.19,661.52,262.42,598.51,199.5Zm0,0a175,175,0,0,0-247.12,0c-1.69,1.69-3.42,3.5-5.23,5.51l-.35.48c.55.2,1.12.37,1.64.61s1.17.4,1.77.55c1.49-1.69,3-3.25,4.55-4.73a171.54,171.54,0,0,1,242.41,0c61.72,61.67,67.43,159.5,13.19,227.57L609,430a160,160,0,0,1-12.82,14.32,150.37,150.37,0,0,1-14.6,13A171.1,171.1,0,0,1,353.8,444.29c-57.74-57.74-66.66-148.89-21.27-216.64.64-1,1.29-1.93,2-2.9l1.09-1.32-1.74-.65-1.63-.6-.46.64c-.68,1-1.36,2-2,3-46.32,69.08-37.19,162,21.67,220.9A174.5,174.5,0,0,0,583.64,460a166.44,166.44,0,0,0,14.87-13.31A163.9,163.9,0,0,0,611.66,432l.33-.47C667.27,362.19,661.52,262.42,598.51,199.5Zm0,0a175,175,0,0,0-247.12,0c-1.69,1.69-3.42,3.5-5.23,5.51l-.35.48c.55.2,1.12.37,1.64.61s1.17.4,1.77.55c1.49-1.69,3-3.25,4.55-4.73a171.54,171.54,0,0,1,242.41,0c61.72,61.67,67.43,159.5,13.19,227.57L609,430a160,160,0,0,1-12.82,14.32,150.37,150.37,0,0,1-14.6,13A171.1,171.1,0,0,1,353.8,444.29c-57.74-57.74-66.66-148.89-21.27-216.64.64-1,1.29-1.93,2-2.9l1.09-1.32-1.74-.65-1.63-.6-.46.64c-.68,1-1.36,2-2,3-46.32,69.08-37.19,162,21.67,220.9A174.5,174.5,0,0,0,583.64,460a166.44,166.44,0,0,0,14.87-13.31A163.9,163.9,0,0,0,611.66,432l.33-.47C667.27,362.19,661.52,262.42,598.51,199.5Zm0,0a175,175,0,0,0-247.12,0c-1.69,1.69-3.42,3.5-5.23,5.51l-.35.48c.55.2,1.12.37,1.64.61s1.17.4,1.77.55c1.49-1.69,3-3.25,4.55-4.73a171.54,171.54,0,0,1,242.41,0c61.72,61.67,67.43,159.5,13.19,227.57L609,430a160,160,0,0,1-12.82,14.32,150.37,150.37,0,0,1-14.6,13A171.1,171.1,0,0,1,353.8,444.29c-57.74-57.74-66.66-148.89-21.27-216.64.64-1,1.29-1.93,2-2.9l1.09-1.32-1.74-.65-1.63-.6-.46.64c-.68,1-1.36,2-2,3-46.32,69.08-37.19,162,21.67,220.9A174.5,174.5,0,0,0,583.64,460a166.44,166.44,0,0,0,14.87-13.31A163.9,163.9,0,0,0,611.66,432l.33-.47C667.27,362.19,661.52,262.42,598.51,199.5Zm0,0a175,175,0,0,0-247.12,0c-1.69,1.69-3.42,3.5-5.23,5.51l-.35.48c.55.2,1.12.37,1.64.61s1.17.4,1.77.55c1.49-1.69,3-3.25,4.55-4.73a171.54,171.54,0,0,1,242.41,0c61.72,61.67,67.43,159.5,13.19,227.57L609,430a160,160,0,0,1-12.82,14.32,150.37,150.37,0,0,1-14.6,13A171.1,171.1,0,0,1,353.8,444.29c-57.74-57.74-66.66-148.89-21.27-216.64.64-1,1.29-1.93,2-2.9l1.09-1.32-1.74-.65-1.63-.6-.46.64c-.68,1-1.36,2-2,3-46.32,69.08-37.19,162,21.67,220.9A174.5,174.5,0,0,0,583.64,460a166.44,166.44,0,0,0,14.87-13.31A163.9,163.9,0,0,0,611.66,432l.33-.47C667.27,362.19,661.52,262.42,598.51,199.5Zm131,327.06-77.8-77.81c-.2-.24-.64-.64-1.25-1.21A215.16,215.16,0,0,0,322.85,170.91c-4.55,4.58-8.86,9.25-12.84,14-5,6.07-9.68,12.31-13.83,18.5-57.05,85-45.83,199.39,26.67,271.93a214.8,214.8,0,0,0,276.63,23.28l79,79.05A35.6,35.6,0,0,0,704,588.11a35.9,35.9,0,0,0,36.11-36A35.6,35.6,0,0,0,729.51,526.56Zm-2.33,48.69a32.91,32.91,0,0,1-46.32,0L603,497.44l-3.14-3.3-1.21.9a211.43,211.43,0,0,1-273.49-22.16c-71.34-71.37-82.35-184-26.23-267.67,4.11-6.11,8.73-12.22,13.64-18.17,3.9-4.63,8.16-9.26,12.62-13.75A211.79,211.79,0,0,1,646.89,446.78L646,448l2.06,1.9c.6.6,1.08,1.05,1.32,1.24L727.18,529a32.76,32.76,0,0,1,0,46.28ZM598.51,199.5a175,175,0,0,0-247.12,0c-1.69,1.69-3.42,3.5-5.23,5.51l-.35.48c.55.2,1.12.37,1.64.61s1.17.4,1.77.55c1.49-1.69,3-3.25,4.55-4.73a171.54,171.54,0,0,1,242.41,0c61.72,61.67,67.43,159.5,13.19,227.57L609,430a160,160,0,0,1-12.82,14.32,150.37,150.37,0,0,1-14.6,13A171.1,171.1,0,0,1,353.8,444.29c-57.74-57.74-66.66-148.89-21.27-216.64.64-1,1.29-1.93,2-2.9l1.09-1.32-1.74-.65-1.63-.6-.46.64c-.68,1-1.36,2-2,3-46.32,69.08-37.19,162,21.67,220.9A174.5,174.5,0,0,0,583.64,460a166.44,166.44,0,0,0,14.87-13.31A163.9,163.9,0,0,0,611.66,432l.33-.47C667.27,362.19,661.52,262.42,598.51,199.5Zm0,0a175,175,0,0,0-247.12,0c-1.69,1.69-3.42,3.5-5.23,5.51l-.35.48c.55.2,1.12.37,1.64.61s1.17.4,1.77.55c1.49-1.69,3-3.25,4.55-4.73a171.54,171.54,0,0,1,242.41,0c61.72,61.67,67.43,159.5,13.19,227.57L609,430a160,160,0,0,1-12.82,14.32,150.37,150.37,0,0,1-14.6,13A171.1,171.1,0,0,1,353.8,444.29c-57.74-57.74-66.66-148.89-21.27-216.64.64-1,1.29-1.93,2-2.9l1.09-1.32-1.74-.65-1.63-.6-.46.64c-.68,1-1.36,2-2,3-46.32,69.08-37.19,162,21.67,220.9A174.5,174.5,0,0,0,583.64,460a166.44,166.44,0,0,0,14.87-13.31A163.9,163.9,0,0,0,611.66,432l.33-.47C667.27,362.19,661.52,262.42,598.51,199.5Zm0,0a175,175,0,0,0-247.12,0c-1.69,1.69-3.42,3.5-5.23,5.51l-.35.48c.55.2,1.12.37,1.64.61s1.17.4,1.77.55c1.49-1.69,3-3.25,4.55-4.73a171.54,171.54,0,0,1,242.41,0c61.72,61.67,67.43,159.5,13.19,227.57L609,430a160,160,0,0,1-12.82,14.32,150.37,150.37,0,0,1-14.6,13A171.1,171.1,0,0,1,353.8,444.29c-57.74-57.74-66.66-148.89-21.27-216.64.64-1,1.29-1.93,2-2.9l1.09-1.32-1.74-.65-1.63-.6-.46.64c-.68,1-1.36,2-2,3-46.32,69.08-37.19,162,21.67,220.9A174.5,174.5,0,0,0,583.64,460a166.44,166.44,0,0,0,14.87-13.31A163.9,163.9,0,0,0,611.66,432l.33-.47C667.27,362.19,661.52,262.42,598.51,199.5Zm0,0a175,175,0,0,0-247.12,0c-1.69,1.69-3.42,3.5-5.23,5.51l-.35.48c.55.2,1.12.37,1.64.61s1.17.4,1.77.55c1.49-1.69,3-3.25,4.55-4.73a171.54,171.54,0,0,1,242.41,0c61.72,61.67,67.43,159.5,13.19,227.57L609,430a160,160,0,0,1-12.82,14.32,150.37,150.37,0,0,1-14.6,13A171.1,171.1,0,0,1,353.8,444.29c-57.74-57.74-66.66-148.89-21.27-216.64.64-1,1.29-1.93,2-2.9l1.09-1.32-1.74-.65-1.63-.6-.46.64c-.68,1-1.36,2-2,3-46.32,69.08-37.19,162,21.67,220.9A174.5,174.5,0,0,0,583.64,460a166.44,166.44,0,0,0,14.87-13.31A163.9,163.9,0,0,0,611.66,432l.33-.47C667.27,362.19,661.52,262.42,598.51,199.5Zm0,0a175,175,0,0,0-247.12,0c-1.69,1.69-3.42,3.5-5.23,5.51l-.35.48c.55.2,1.12.37,1.64.61s1.17.4,1.77.55c1.49-1.69,3-3.25,4.55-4.73a171.54,171.54,0,0,1,242.41,0c61.72,61.67,67.43,159.5,13.19,227.57L609,430a160,160,0,0,1-12.82,14.32,150.37,150.37,0,0,1-14.6,13A171.1,171.1,0,0,1,353.8,444.29c-57.74-57.74-66.66-148.89-21.27-216.64.64-1,1.29-1.93,2-2.9l1.09-1.32-1.74-.65-1.63-.6-.46.64c-.68,1-1.36,2-2,3-46.32,69.08-37.19,162,21.67,220.9A174.5,174.5,0,0,0,583.64,460a166.44,166.44,0,0,0,14.87-13.31A163.9,163.9,0,0,0,611.66,432l.33-.47C667.27,362.19,661.52,262.42,598.51,199.5Zm0,0a175,175,0,0,0-247.12,0c-1.69,1.69-3.42,3.5-5.23,5.51l-.35.48c.55.2,1.12.37,1.64.61s1.17.4,1.77.55c1.49-1.69,3-3.25,4.55-4.73a171.54,171.54,0,0,1,242.41,0c61.72,61.67,67.43,159.5,13.19,227.57L609,430a160,160,0,0,1-12.82,14.32,150.37,150.37,0,0,1-14.6,13A171.1,171.1,0,0,1,353.8,444.29c-57.74-57.74-66.66-148.89-21.27-216.64.64-1,1.29-1.93,2-2.9l1.09-1.32-1.74-.65-1.63-.6-.46.64c-.68,1-1.36,2-2,3-46.32,69.08-37.19,162,21.67,220.9A174.5,174.5,0,0,0,583.64,460a166.44,166.44,0,0,0,14.87-13.31A163.9,163.9,0,0,0,611.66,432l.33-.47C667.27,362.19,661.52,262.42,598.51,199.5Zm0,0a175,175,0,0,0-247.12,0c-1.69,1.69-3.42,3.5-5.23,5.51l-.35.48c.55.2,1.12.37,1.64.61s1.17.4,1.77.55c1.49-1.69,3-3.25,4.55-4.73a171.54,171.54,0,0,1,242.41,0c61.72,61.67,67.43,159.5,13.19,227.57L609,430a160,160,0,0,1-12.82,14.32,150.37,150.37,0,0,1-14.6,13A171.1,171.1,0,0,1,353.8,444.29c-57.74-57.74-66.66-148.89-21.27-216.64.64-1,1.29-1.93,2-2.9l1.09-1.32-1.74-.65-1.63-.6-.46.64c-.68,1-1.36,2-2,3-46.32,69.08-37.19,162,21.67,220.9A174.5,174.5,0,0,0,583.64,460a166.44,166.44,0,0,0,14.87-13.31A163.9,163.9,0,0,0,611.66,432l.33-.47C667.27,362.19,661.52,262.42,598.51,199.5Zm0,0a175,175,0,0,0-247.12,0c-1.69,1.69-3.42,3.5-5.23,5.51l-.35.48c.55.2,1.12.37,1.64.61s1.17.4,1.77.55c1.49-1.69,3-3.25,4.55-4.73a171.54,171.54,0,0,1,242.41,0c61.72,61.67,67.43,159.5,13.19,227.57L609,430a160,160,0,0,1-12.82,14.32,150.37,150.37,0,0,1-14.6,13A171.1,171.1,0,0,1,353.8,444.29c-57.74-57.74-66.66-148.89-21.27-216.64.64-1,1.29-1.93,2-2.9l1.09-1.32-1.74-.65-1.63-.6-.46.64c-.68,1-1.36,2-2,3-46.32,69.08-37.19,162,21.67,220.9A174.5,174.5,0,0,0,583.64,460a166.44,166.44,0,0,0,14.87-13.31A163.9,163.9,0,0,0,611.66,432l.33-.47C667.27,362.19,661.52,262.42,598.51,199.5Zm0,0a175,175,0,0,0-247.12,0c-1.69,1.69-3.42,3.5-5.23,5.51l-.35.48c.55.2,1.12.37,1.64.61s1.17.4,1.77.55c1.49-1.69,3-3.25,4.55-4.73a171.54,171.54,0,0,1,242.41,0c61.72,61.67,67.43,159.5,13.19,227.57L609,430a160,160,0,0,1-12.82,14.32,150.37,150.37,0,0,1-14.6,13A171.1,171.1,0,0,1,353.8,444.29c-57.74-57.74-66.66-148.89-21.27-216.64.64-1,1.29-1.93,2-2.9l1.09-1.32-1.74-.65-1.63-.6-.46.64c-.68,1-1.36,2-2,3-46.32,69.08-37.19,162,21.67,220.9A174.5,174.5,0,0,0,583.64,460a166.44,166.44,0,0,0,14.87-13.31A163.9,163.9,0,0,0,611.66,432l.33-.47C667.27,362.19,661.52,262.42,598.51,199.5Zm0,0a175,175,0,0,0-247.12,0c-1.69,1.69-3.42,3.5-5.23,5.51l-.35.48c.55.2,1.12.37,1.64.61s1.17.4,1.77.55c1.49-1.69,3-3.25,4.55-4.73a171.54,171.54,0,0,1,242.41,0c61.72,61.67,67.43,159.5,13.19,227.57L609,430a160,160,0,0,1-12.82,14.32,150.37,150.37,0,0,1-14.6,13A171.1,171.1,0,0,1,353.8,444.29c-57.74-57.74-66.66-148.89-21.27-216.64.64-1,1.29-1.93,2-2.9l1.09-1.32-1.74-.65-1.63-.6-.46.64c-.68,1-1.36,2-2,3-46.32,69.08-37.19,162,21.67,220.9A174.5,174.5,0,0,0,583.64,460a166.44,166.44,0,0,0,14.87-13.31A163.9,163.9,0,0,0,611.66,432l.33-.47C667.27,362.19,661.52,262.42,598.51,199.5Zm0,0a175,175,0,0,0-247.12,0c-1.69,1.69-3.42,3.5-5.23,5.51l-.35.48c.55.2,1.12.37,1.64.61s1.17.4,1.77.55c1.49-1.69,3-3.25,4.55-4.73a171.54,171.54,0,0,1,242.41,0c61.72,61.67,67.43,159.5,13.19,227.57L609,430a160,160,0,0,1-12.82,14.32,150.37,150.37,0,0,1-14.6,13A171.1,171.1,0,0,1,353.8,444.29c-57.74-57.74-66.66-148.89-21.27-216.64.64-1,1.29-1.93,2-2.9l1.09-1.32-1.74-.65-1.63-.6-.46.64c-.68,1-1.36,2-2,3-46.32,69.08-37.19,162,21.67,220.9A174.5,174.5,0,0,0,583.64,460a166.44,166.44,0,0,0,14.87-13.31A163.9,163.9,0,0,0,611.66,432l.33-.47C667.27,362.19,661.52,262.42,598.51,199.5Zm0,0a175,175,0,0,0-247.12,0c-1.69,1.69-3.42,3.5-5.23,5.51l-.35.48c.55.2,1.12.37,1.64.61s1.17.4,1.77.55c1.49-1.69,3-3.25,4.55-4.73a171.54,171.54,0,0,1,242.41,0c61.72,61.67,67.43,159.5,13.19,227.57L609,430a160,160,0,0,1-12.82,14.32,150.37,150.37,0,0,1-14.6,13A171.1,171.1,0,0,1,353.8,444.29c-57.74-57.74-66.66-148.89-21.27-216.64.64-1,1.29-1.93,2-2.9l1.09-1.32-1.74-.65-1.63-.6-.46.64c-.68,1-1.36,2-2,3-46.32,69.08-37.19,162,21.67,220.9A174.5,174.5,0,0,0,583.64,460a166.44,166.44,0,0,0,14.87-13.31A163.9,163.9,0,0,0,611.66,432l.33-.47C667.27,362.19,661.52,262.42,598.51,199.5Zm0,0a175,175,0,0,0-247.12,0c-1.69,1.69-3.42,3.5-5.23,5.51l-.35.48c.55.2,1.12.37,1.64.61s1.17.4,1.77.55c1.49-1.69,3-3.25,4.55-4.73a171.54,171.54,0,0,1,242.41,0c61.72,61.67,67.43,159.5,13.19,227.57L609,430a160,160,0,0,1-12.82,14.32,150.37,150.37,0,0,1-14.6,13A171.1,171.1,0,0,1,353.8,444.29c-57.74-57.74-66.66-148.89-21.27-216.64.64-1,1.29-1.93,2-2.9l1.09-1.32-1.74-.65-1.63-.6-.46.64c-.68,1-1.36,2-2,3-46.32,69.08-37.19,162,21.67,220.9A174.5,174.5,0,0,0,583.64,460a166.44,166.44,0,0,0,14.87-13.31A163.9,163.9,0,0,0,611.66,432l.33-.47C667.27,362.19,661.52,262.42,598.51,199.5Zm0,0a175,175,0,0,0-247.12,0c-1.69,1.69-3.42,3.5-5.23,5.51l-.35.48c.55.2,1.12.37,1.64.61s1.17.4,1.77.55c1.49-1.69,3-3.25,4.55-4.73a171.54,171.54,0,0,1,242.41,0c61.72,61.67,67.43,159.5,13.19,227.57L609,430a160,160,0,0,1-12.82,14.32,150.37,150.37,0,0,1-14.6,13A171.1,171.1,0,0,1,353.8,444.29c-57.74-57.74-66.66-148.89-21.27-216.64.64-1,1.29-1.93,2-2.9l1.09-1.32-1.74-.65-1.63-.6-.46.64c-.68,1-1.36,2-2,3-46.32,69.08-37.19,162,21.67,220.9A174.5,174.5,0,0,0,583.64,460a166.44,166.44,0,0,0,14.87-13.31A163.9,163.9,0,0,0,611.66,432l.33-.47C667.27,362.19,661.52,262.42,598.51,199.5Zm0,0a175,175,0,0,0-247.12,0c-1.69,1.69-3.42,3.5-5.23,5.51l-.35.48c.55.2,1.12.37,1.64.61s1.17.4,1.77.55c1.49-1.69,3-3.25,4.55-4.73a171.54,171.54,0,0,1,242.41,0c61.72,61.67,67.43,159.5,13.19,227.57L609,430a160,160,0,0,1-12.82,14.32,150.37,150.37,0,0,1-14.6,13A171.1,171.1,0,0,1,353.8,444.29c-57.74-57.74-66.66-148.89-21.27-216.64.64-1,1.29-1.93,2-2.9l1.09-1.32-1.74-.65-1.63-.6-.46.64c-.68,1-1.36,2-2,3-46.32,69.08-37.19,162,21.67,220.9A174.5,174.5,0,0,0,583.64,460a166.44,166.44,0,0,0,14.87-13.31A163.9,163.9,0,0,0,611.66,432l.33-.47C667.27,362.19,661.52,262.42,598.51,199.5Zm0,0a175,175,0,0,0-247.12,0c-1.69,1.69-3.42,3.5-5.23,5.51l-.35.48c.55.2,1.12.37,1.64.61s1.17.4,1.77.55c1.49-1.69,3-3.25,4.55-4.73a171.54,171.54,0,0,1,242.41,0c61.72,61.67,67.43,159.5,13.19,227.57L609,430a160,160,0,0,1-12.82,14.32,150.37,150.37,0,0,1-14.6,13A171.1,171.1,0,0,1,353.8,444.29c-57.74-57.74-66.66-148.89-21.27-216.64.64-1,1.29-1.93,2-2.9l1.09-1.32-1.74-.65-1.63-.6-.46.64c-.68,1-1.36,2-2,3-46.32,69.08-37.19,162,21.67,220.9A174.5,174.5,0,0,0,583.64,460a166.44,166.44,0,0,0,14.87-13.31A163.9,163.9,0,0,0,611.66,432l.33-.47C667.27,362.19,661.52,262.42,598.51,199.5Zm0,0a175,175,0,0,0-247.12,0c-1.69,1.69-3.42,3.5-5.23,5.51l-.35.48c.55.2,1.12.37,1.64.61s1.17.4,1.77.55c1.49-1.69,3-3.25,4.55-4.73a171.54,171.54,0,0,1,242.41,0c61.72,61.67,67.43,159.5,13.19,227.57L609,430a160,160,0,0,1-12.82,14.32,150.37,150.37,0,0,1-14.6,13A171.1,171.1,0,0,1,353.8,444.29c-57.74-57.74-66.66-148.89-21.27-216.64.64-1,1.29-1.93,2-2.9l1.09-1.32-1.74-.65-1.63-.6-.46.64c-.68,1-1.36,2-2,3-46.32,69.08-37.19,162,21.67,220.9A174.5,174.5,0,0,0,583.64,460a166.44,166.44,0,0,0,14.87-13.31A163.9,163.9,0,0,0,611.66,432l.33-.47C667.27,362.19,661.52,262.42,598.51,199.5Zm0,0a175,175,0,0,0-247.12,0c-1.69,1.69-3.42,3.5-5.23,5.51l-.35.48c.55.2,1.12.37,1.64.61s1.17.4,1.77.55c1.49-1.69,3-3.25,4.55-4.73a171.54,171.54,0,0,1,242.41,0c61.72,61.67,67.43,159.5,13.19,227.57L609,430a160,160,0,0,1-12.82,14.32,150.37,150.37,0,0,1-14.6,13A171.1,171.1,0,0,1,353.8,444.29c-57.74-57.74-66.66-148.89-21.27-216.64.64-1,1.29-1.93,2-2.9l1.09-1.32-1.74-.65-1.63-.6-.46.64c-.68,1-1.36,2-2,3-46.32,69.08-37.19,162,21.67,220.9A174.5,174.5,0,0,0,583.64,460a166.44,166.44,0,0,0,14.87-13.31A163.9,163.9,0,0,0,611.66,432l.33-.47C667.27,362.19,661.52,262.42,598.51,199.5Zm0,0a175,175,0,0,0-247.12,0c-1.69,1.69-3.42,3.5-5.23,5.51l-.35.48c.55.2,1.12.37,1.64.61s1.17.4,1.77.55c1.49-1.69,3-3.25,4.55-4.73a171.54,171.54,0,0,1,242.41,0c61.72,61.67,67.43,159.5,13.19,227.57L609,430a160,160,0,0,1-12.82,14.32,150.37,150.37,0,0,1-14.6,13A171.1,171.1,0,0,1,353.8,444.29c-57.74-57.74-66.66-148.89-21.27-216.64.64-1,1.29-1.93,2-2.9l1.09-1.32-1.74-.65-1.63-.6-.46.64c-.68,1-1.36,2-2,3-46.32,69.08-37.19,162,21.67,220.9A174.5,174.5,0,0,0,583.64,460a166.44,166.44,0,0,0,14.87-13.31A163.9,163.9,0,0,0,611.66,432l.33-.47C667.27,362.19,661.52,262.42,598.51,199.5Zm0,0a175,175,0,0,0-247.12,0c-1.69,1.69-3.42,3.5-5.23,5.51l-.35.48c.55.2,1.12.37,1.64.61s1.17.4,1.77.55c1.49-1.69,3-3.25,4.55-4.73a171.54,171.54,0,0,1,242.41,0c61.72,61.67,67.43,159.5,13.19,227.57L609,430a160,160,0,0,1-12.82,14.32,150.37,150.37,0,0,1-14.6,13A171.1,171.1,0,0,1,353.8,444.29c-57.74-57.74-66.66-148.89-21.27-216.64.64-1,1.29-1.93,2-2.9l1.09-1.32-1.74-.65-1.63-.6-.46.64c-.68,1-1.36,2-2,3-46.32,69.08-37.19,162,21.67,220.9A174.5,174.5,0,0,0,583.64,460a166.44,166.44,0,0,0,14.87-13.31A163.9,163.9,0,0,0,611.66,432l.33-.47C667.27,362.19,661.52,262.42,598.51,199.5Zm0,0a175,175,0,0,0-247.12,0c-1.69,1.69-3.42,3.5-5.23,5.51l-.35.48c.55.2,1.12.37,1.64.61s1.17.4,1.77.55c1.49-1.69,3-3.25,4.55-4.73a171.54,171.54,0,0,1,242.41,0c61.72,61.67,67.43,159.5,13.19,227.57L609,430a160,160,0,0,1-12.82,14.32,150.37,150.37,0,0,1-14.6,13A171.1,171.1,0,0,1,353.8,444.29c-57.74-57.74-66.66-148.89-21.27-216.64.64-1,1.29-1.93,2-2.9l1.09-1.32-1.74-.65-1.63-.6-.46.64c-.68,1-1.36,2-2,3-46.32,69.08-37.19,162,21.67,220.9A174.5,174.5,0,0,0,583.64,460a166.44,166.44,0,0,0,14.87-13.31A163.9,163.9,0,0,0,611.66,432l.33-.47C667.27,362.19,661.52,262.42,598.51,199.5Zm0,0a175,175,0,0,0-247.12,0c-1.69,1.69-3.42,3.5-5.23,5.51l-.35.48c.55.2,1.12.37,1.64.61s1.17.4,1.77.55c1.49-1.69,3-3.25,4.55-4.73a171.54,171.54,0,0,1,242.41,0c61.72,61.67,67.43,159.5,13.19,227.57L609,430a160,160,0,0,1-12.82,14.32,150.37,150.37,0,0,1-14.6,13A171.1,171.1,0,0,1,353.8,444.29c-57.74-57.74-66.66-148.89-21.27-216.64.64-1,1.29-1.93,2-2.9l1.09-1.32-1.74-.65-1.63-.6-.46.64c-.68,1-1.36,2-2,3-46.32,69.08-37.19,162,21.67,220.9A174.5,174.5,0,0,0,583.64,460a166.44,166.44,0,0,0,14.87-13.31A163.9,163.9,0,0,0,611.66,432l.33-.47C667.27,362.19,661.52,262.42,598.51,199.5Zm0,0a175,175,0,0,0-247.12,0c-1.69,1.69-3.42,3.5-5.23,5.51l-.35.48c.55.2,1.12.37,1.64.61s1.17.4,1.77.55c1.49-1.69,3-3.25,4.55-4.73a171.54,171.54,0,0,1,242.41,0c61.72,61.67,67.43,159.5,13.19,227.57L609,430a160,160,0,0,1-12.82,14.32,150.37,150.37,0,0,1-14.6,13A171.1,171.1,0,0,1,353.8,444.29c-57.74-57.74-66.66-148.89-21.27-216.64.64-1,1.29-1.93,2-2.9l1.09-1.32-1.74-.65-1.63-.6-.46.64c-.68,1-1.36,2-2,3-46.32,69.08-37.19,162,21.67,220.9A174.5,174.5,0,0,0,583.64,460a166.44,166.44,0,0,0,14.87-13.31A163.9,163.9,0,0,0,611.66,432l.33-.47C667.27,362.19,661.52,262.42,598.51,199.5Zm0,0a175,175,0,0,0-247.12,0c-1.69,1.69-3.42,3.5-5.23,5.51l-.35.48c.55.2,1.12.37,1.64.61s1.17.4,1.77.55c1.49-1.69,3-3.25,4.55-4.73a171.54,171.54,0,0,1,242.41,0c61.72,61.67,67.43,159.5,13.19,227.57L609,430a160,160,0,0,1-12.82,14.32,150.37,150.37,0,0,1-14.6,13A171.1,171.1,0,0,1,353.8,444.29c-57.74-57.74-66.66-148.89-21.27-216.64.64-1,1.29-1.93,2-2.9l1.09-1.32-1.74-.65-1.63-.6-.46.64c-.68,1-1.36,2-2,3-46.32,69.08-37.19,162,21.67,220.9A174.5,174.5,0,0,0,583.64,460a166.44,166.44,0,0,0,14.87-13.31A163.9,163.9,0,0,0,611.66,432l.33-.47C667.27,362.19,661.52,262.42,598.51,199.5Zm0,0a175,175,0,0,0-247.12,0c-1.69,1.69-3.42,3.5-5.23,5.51l-.35.48c.55.2,1.12.37,1.64.61s1.17.4,1.77.55c1.49-1.69,3-3.25,4.55-4.73a171.54,171.54,0,0,1,242.41,0c61.72,61.67,67.43,159.5,13.19,227.57L609,430a160,160,0,0,1-12.82,14.32,150.37,150.37,0,0,1-14.6,13A171.1,171.1,0,0,1,353.8,444.29c-57.74-57.74-66.66-148.89-21.27-216.64.64-1,1.29-1.93,2-2.9l1.09-1.32-1.74-.65-1.63-.6-.46.64c-.68,1-1.36,2-2,3-46.32,69.08-37.19,162,21.67,220.9A174.5,174.5,0,0,0,583.64,460a166.44,166.44,0,0,0,14.87-13.31A163.9,163.9,0,0,0,611.66,432l.33-.47C667.27,362.19,661.52,262.42,598.51,199.5Z"/><path class="cls-1" d="M721.22,534.88l-77.8-77.77c-1.12-1.12-8.52-8-8.52-8l3.26-4.66a203.41,203.41,0,0,0-307-265.26c-4.39,4.39-8.41,8.86-12.1,13.19-4.84,5.83-9.21,11.7-13.11,17.46-53.88,80.41-43.31,188.49,25.16,257.05a203.05,203.05,0,0,0,265.3,19.29l4.66-3.21s6.84,7.44,7.88,8.49l77.8,77.8a24.35,24.35,0,0,0,34.46-34.42Zm-103-97.55a189.49,189.49,0,0,1-13.67,15.29,177.07,177.07,0,0,1-15.64,13.94,182.93,182.93,0,0,1-243.42-13.91c-61.72-61.76-71.33-159.14-22.76-231.52.44-.6.88-1.28,1.37-2,2.69,1,5.38,2,8.13,3l1.63.6,1.74.65c20.78,7.83,44.66,16.52,74.9,23.24,23.57,5.22,40.74.23,53.12-8.41L395.14,432.43H385c11.19,21.47,49,37.32,93.93,37.32h.36c44.91,0,82.71-15.85,93.93-37.32H563.08l-77.52-219.9a93.76,93.76,0,0,0,5.83-13.64h0a13.92,13.92,0,0,0,2.26-7.64c0-8.18-7-14.81-15.62-14.81s-15.66,6.63-15.66,14.81a15,15,0,0,0,13,14.57c-8.52,14.08-27.94,35.58-62,23.28-17.78-6.36-41.33-14.6-64-22.45-.6-.15-1.17-.39-1.77-.55s-1.09-.41-1.64-.61l-8.73-3.06c2.69-3,5.46-6,8.36-8.84A183.19,183.19,0,0,1,618.45,437ZM471.29,231.87h0a63.25,63.25,0,0,0,5.05-5.49V432.43h-76Zm10.54,200.56V217.6l.32.8,75.67,214Z"/></svg>