<svg id="Layer_1" data-name="Layer 1" xmlns="http://www.w3.org/2000/svg" viewBox="0 0 2000 1000"><defs><style>.cls-1{fill:#223260;}.cls-2{fill:#333;}</style></defs><path class="cls-1" d="M767.6,264.05a12.91,12.91,0,0,1,2.75-2.91,18.76,18.76,0,0,1,2.43-1.81c2.39-1.71,4.77-3.58,7.15-5.49a26.29,26.29,0,0,0,5.86-6.69,90.75,90.75,0,0,0,4.2-8.91,17.2,17.2,0,0,0,1.6-6.48c0-2.17-.93-3.26-2.9-3.26-1.09,0-2.74.72-5,2.12a16.4,16.4,0,0,1-5.39,2.44c-1,.21-2.59.46-4.67.67s-3.83.31-5.39.31a23.49,23.49,0,0,1-7.77-1.29,80,80,0,0,0-14.25-3.27,48.4,48.4,0,0,0-9.74-1,33.11,33.11,0,0,0-4.87.31,37,37,0,0,0-11,3.11,40,40,0,0,0-9.43,7.3,32.31,32.31,0,0,0-6,9.12c-1.82,3.84-2.75,7.1-2.75,9.7,0,1.76.52,2.9,1.61,3.57a3.25,3.25,0,0,0,2.75.16,12.66,12.66,0,0,0,2.79-1.77c1.09-.82,2-1.65,2.91-2.28a13.83,13.83,0,0,1,7.46-2.28,10.11,10.11,0,0,1,5.85,1.61,5.2,5.2,0,0,1,2.13,3.58,52.51,52.51,0,0,1,.62,7.15c.15,3.05.31,5.49.47,7.46a113.62,113.62,0,0,1-.32,14.61c-.41,3.89-.62,7-.62,9.38a60.26,60.26,0,0,0,.94,10.11,65,65,0,0,1,.67,8.08,103.17,103.17,0,0,1-.67,10.41,4.18,4.18,0,0,1-.78,2.6,8.41,8.41,0,0,1-2.28,1.76c-1,.52-1.66.93-2.13,1.14a25.49,25.49,0,0,0-6.47,3.57,21.9,21.9,0,0,0-7.78,9.74c-1.5,3.68-2.28,6.17-2.28,7.47q0,3.25,3.27,3.26a9.59,9.59,0,0,0,3.68-1c1.45-.68,2.33-1.09,2.74-1.3a14,14,0,0,1,6.22-1.61,10.61,10.61,0,0,1,2.9.63c2,.67,2.91,2.38,2.91,5.18l-.32,10c0,6.12.16,10.26.32,12.7.2,4.71.2,9.43,0,13.94v7.15l.36,12.33a20.1,20.1,0,0,1-1,7c-.62,1.6-2.12,3.36-4.56,5.33a112.5,112.5,0,0,0-9.74,8.45,49.86,49.86,0,0,0-7.46,10.67,20.28,20.28,0,0,0-1.92,6.48c0,2.85.42,4.35,1.3,4.56a3.75,3.75,0,0,0,2.59-.31,21.07,21.07,0,0,0,3.57-2,51.39,51.39,0,0,1,6.79-2.9,55.32,55.32,0,0,1,13.63-1.3,29.4,29.4,0,0,1,6,.68,18.73,18.73,0,0,0,5.7.31,14.78,14.78,0,0,1,8.6,2,55.57,55.57,0,0,0,5,2.59c3.47,1.71,6.27,2.59,8.39,2.59a6.3,6.3,0,0,0,2.65-.67,9.53,9.53,0,0,0,2.74-2.28c1-1,1.66-1.82,2.13-2.23s1.5-1.25,2.59-2.28a28.84,28.84,0,0,0,2.59-3,23.79,23.79,0,0,1,3.42-3.36,21.68,21.68,0,0,0,3.06-3.11,13.93,13.93,0,0,0,2.64-5.55,6.49,6.49,0,0,0-1.35-4.2,29.45,29.45,0,0,0-7.1-5.54c-.88-.41-2.07-.88-3.57-1.45a12.1,12.1,0,0,1-3.89-2.07A12.35,12.35,0,0,1,767.6,420a9.82,9.82,0,0,1-2.43-4.87,53.94,53.94,0,0,1-.47-8.45c0-4.35-.16-7.93-.36-10.72-.21-1.92-.42-4.2-.68-6.79s-.31-5.65-.31-9.12a63.83,63.83,0,0,1,.31-7.1l.68-6.22a61.27,61.27,0,0,0,.2-6.63c-.15-1.82-.2-3.32-.2-4.41v-6.79a84.7,84.7,0,0,1,.36-9.37l.31-10.11c0-2-.26-6.17-.67-12.64a87.6,87.6,0,0,1,0-14.93c0-1.29,0-3.11.2-5.39s0-5-.2-8.23c-.68-8.87-.11-15.81,1.6-20.78A16.26,16.26,0,0,1,767.6,264.05ZM936.06,426.19a23.29,23.29,0,0,1-4.71-4.1,23.13,23.13,0,0,0-1.82-2.07,15,15,0,0,1-2.9-5.91,47.47,47.47,0,0,1-.67-9.69v-6.84l-.31-9.43c-.21-2.8-.26-5.54-.21-8.39s.21-5.19.21-7.15a74.45,74.45,0,0,0-.36-9.07c-.37-4.77-.63-8.14-.63-10.06l.31-9.43a49.25,49.25,0,0,0,.32-6.78L925,323a39,39,0,0,1,.32-6.16l1-5.5a28.45,28.45,0,0,0,.31-4.24c0-2.6-.57-4.46-1.66-5.55A20.18,20.18,0,0,0,918.5,298a49.15,49.15,0,0,1-5.34-2.9,39.17,39.17,0,0,0-5.34-3c-.88-.21-2.38-.67-4.4-1.29a18.61,18.61,0,0,1-5-2.28,41.62,41.62,0,0,0-7.82-3.73,16.4,16.4,0,0,0-5.18-.83,5.69,5.69,0,0,0-3.53,1.29,34.14,34.14,0,0,0-3.94,3.89l-4.19,5.18a30.25,30.25,0,0,1-3.42,3.47,25.92,25.92,0,0,0-3.42,3.37l-5.5,5.86a29,29,0,0,0-2.74,3.42c-1.19,1.6-2.13,2.33-2.75,2.07s-.88-.93-.52-2.28a14.82,14.82,0,0,0,.52-2.59,13.81,13.81,0,0,1,.93-3.73,6.23,6.23,0,0,0,.63-2.44,4.17,4.17,0,0,0-1.25-2.9,12.77,12.77,0,0,0-4.09-2.44c-1.82-.77-3.21-1.34-4-1.81a81.71,81.71,0,0,1-10.68-5.8,43.28,43.28,0,0,1-4.87-3.06,7.06,7.06,0,0,0-4.25-1.5,6.08,6.08,0,0,0-2.59.67,8.53,8.53,0,0,0-2.75,2.23,26.92,26.92,0,0,1-2.12,2.28,16.56,16.56,0,0,0-2.59,2.28c-1.09,1.09-1.92,2.07-2.64,2.9l-5.81,7.51c-3.47,4.51-5.18,8.66-5.18,12.34q0,4.19,4.2,6.84a26.89,26.89,0,0,1,4.71,4,15.45,15.45,0,0,0,1.77,2.12,10.18,10.18,0,0,1,2.43,5,85.61,85.61,0,0,1,.83,8.91c0,4.15.1,7.51.36,10.1l.62,12c-.26,1.5-.57,4.45-1,8.91a118,118,0,0,0-.67,12.49,144.39,144.39,0,0,0,.36,15.23l.31,10.11.36,14.25a37.41,37.41,0,0,1-.36,6.16l-1,5.55a22,22,0,0,0-.32,4.2c0,2.59.52,4.4,1.66,5.54s3.21,2.23,6.48,3.52a87.4,87.4,0,0,1,10.67,5.86,48,48,0,0,1,4.88,3.06,7,7,0,0,0,4.24,1.5,6.35,6.35,0,0,0,2.6-.67,10.4,10.4,0,0,0,2.74-2.28c1-1,1.71-1.82,2.07-2.23a21.32,21.32,0,0,0,2.6-2.28,25.61,25.61,0,0,0,2.64-3l5.85-7.46c2.8-3.47,4.2-6.68,4.2-9.74a6.84,6.84,0,0,0-3.26-5.8,26.8,26.8,0,0,1-4.72-4.1,18,18,0,0,0-1.76-2.07,10.88,10.88,0,0,1-2.44-4.72,79.73,79.73,0,0,1-.83-8c0-3.88-.05-7.15-.31-9.74l-.31-9.43c0-1-.2-3.83-.62-8.39a20.88,20.88,0,0,1,.16-6.17c.31-2.85.46-4.87.46-6.17v-1l-.31-10.36c-.21-5.65-.15-9.28.16-10.89s1.55-3.52,3.73-5.64a19.84,19.84,0,0,1,2.43-2.13,13.39,13.39,0,0,0,2.75-3.11,57.32,57.32,0,0,1,6.84-6.16c1.92-1.71,3.78-2.6,5.49-2.6a7.86,7.86,0,0,1,3.58,1,21.55,21.55,0,0,0,3,1.29,11,11,0,0,1,5.81,5.81c1.08,2.59,1.5,6.84,1.29,12.69a70.28,70.28,0,0,0,.36,8.09c0,.46,0,1.76.16,3.94s.15,6.06.15,11.65q0,9.42-.31,14.62c0,4.09.06,7.56.31,10.36a136.17,136.17,0,0,1,.32,15,41.07,41.07,0,0,0,0,8.08c.2,3.47.31,6.17.31,8.14a20.72,20.72,0,0,1-.31,4.19l-1,5.55a22.08,22.08,0,0,0-.31,4.2c0,2.59.52,4.4,1.61,5.54s3.26,2.23,6.47,3.52a82.65,82.65,0,0,1,10.73,5.86,52.67,52.67,0,0,1,4.87,3.06,6.88,6.88,0,0,0,4.2,1.5,6.29,6.29,0,0,0,2.64-.67,9.69,9.69,0,0,0,2.75-2.28c.93-1,1.66-1.82,2.12-2.23.62-.47,1.5-1.25,2.59-2.28a28.84,28.84,0,0,0,2.59-3l5.81-7.46c2.85-3.47,4.25-6.68,4.25-9.74A6.89,6.89,0,0,0,936.06,426.19Zm73.48-125.61c-.77-.47-2.43-.68-5-.68h-2.59a37.54,37.54,0,0,0-4.25.21,10.35,10.35,0,0,1-3.06-.21,1.3,1.3,0,0,1-1.14-1.29l.62-5.49a28.15,28.15,0,0,0,.21-4.87,27.94,27.94,0,0,1-.21-3.27l-.31-14.3a38.2,38.2,0,0,1,.31-6.12l1-5.54a23.89,23.89,0,0,0,.31-4.2c0-2.64-.52-4.45-1.61-5.54s-3.26-2.28-6.48-3.53a86.52,86.52,0,0,1-10.72-5.9,40.82,40.82,0,0,1-4.87-3.06,6.76,6.76,0,0,0-4.2-1.45,5.84,5.84,0,0,0-2.59.62,11.45,11.45,0,0,0-2.8,2.28c-1,1.09-1.66,1.87-2.07,2.28a19.31,19.31,0,0,0-2.59,2.28,21,21,0,0,0-2.6,2.95l-5.9,7.41c-2.8,3.48-4.2,6.69-4.2,9.75a6.86,6.86,0,0,0,3.26,5.85,27.18,27.18,0,0,1,4.72,4,15.55,15.55,0,0,0,1.81,2.13,16,16,0,0,1,3.22,5.85,38.58,38.58,0,0,1,1.29,8.09l.68,7.77c0,1.55-.68,2.28-2,2.28l-7.15-.31a7.39,7.39,0,0,0-3.58.62c-1,.88-2.07,3.84-2.9,8.81l-1.3,7.46a18.58,18.58,0,0,0-.31,3.58,2.31,2.31,0,0,0,1.61,2.28c1.09.41,3.42.62,7.1.62,3.47,0,5.59.15,6.37.47s1.09,1.5,1.09,3.42l-.31,7.46a10.11,10.11,0,0,0,.31,2.59,25,25,0,0,1,.36,4.56c0,2-.21,5.34-.67,10,0,3.89.15,6.84.31,8.76a51.18,51.18,0,0,1,0,12c0,1.5,0,3.37-.16,5.54a60.53,60.53,0,0,0,.16,6.79c.47,4.77.67,8.14.67,10.11l-.31,9.38a57.81,57.81,0,0,0-.36,6.84l.36,14.25a37.41,37.41,0,0,1-.36,6.16l-.93,5.55a18.59,18.59,0,0,0-.31,4.2c0,2.59.51,4.4,1.6,5.54s3.27,2.23,6.48,3.52a83.32,83.32,0,0,1,10.73,5.86,55.52,55.52,0,0,1,4.87,3.06,6.83,6.83,0,0,0,4.19,1.5,5.87,5.87,0,0,0,2.59-.67,8.83,8.83,0,0,0,2.75-2.28c1-1,1.71-1.82,2.13-2.23a27.2,27.2,0,0,0,2.59-2.28,24.65,24.65,0,0,0,2.59-3l5.9-7.46c2.8-3.47,4.15-6.68,4.15-9.74a6.79,6.79,0,0,0-3.21-5.8,26.8,26.8,0,0,1-4.72-4.1A18.22,18.22,0,0,0,998.3,420a11.36,11.36,0,0,1-2.44-5,86.71,86.71,0,0,1-.77-9c0-4.09-.11-7.46-.32-10l-.31-4.2c-.26-1.71-.51-4.3-.83-7.83a69.89,69.89,0,0,1-.15-11c.41-4.56.62-12,.62-22.44.47-4.71.67-8.76.67-12s-.15-5.86-.31-7.93a38.77,38.77,0,0,1-.36-4.71c0-1.51.47-2.39,1.3-2.75a15.08,15.08,0,0,1,5.18-.16c2.59.21,4.45.11,5.54-.36,1.09-.83,2.08-3.78,3-8.7l1.24-7.52a17.73,17.73,0,0,0,.36-3.52A2.34,2.34,0,0,0,1009.54,300.58Zm107.89,98.66c-1.3,0-3,.83-5.18,2.59l-11,9.69c-1.3,1.14-2.33,2.07-3.06,2.8s-1.34,1.35-1.81,1.76l-5.8,5.18a5.9,5.9,0,0,1-3.63,1,16,16,0,0,1-5.18-1,46.93,46.93,0,0,1-7.93-3.83c-3-1.76-5.08-2.95-6.32-3.63-3.94-1.71-6.17-3.73-6.84-6.11a23.21,23.21,0,0,1-.47-3.79,42.34,42.34,0,0,1-.16-4.35c0-3.68.47-6.32,1.45-7.93a12.36,12.36,0,0,1,4-4.09,65.92,65.92,0,0,0,5.85-3.89,49.89,49.89,0,0,1,4.2-2.9c1.09-.67,5.65-3.89,13.63-9.74,5-4.35,8.65-7.05,11.09-8.14.62-.41,2.64-1.65,6.11-3.73a118.71,118.71,0,0,0,10.11-6.63c5.8-4.09,9.43-7.51,10.83-10.21s2.12-7.46,2.12-14.14c0-9.95-.78-17.21-2.28-21.77-1.29-3.63-4.4-6.79-9.43-9.38a8.4,8.4,0,0,0-2.12-1.14c-1.14-.57-2.8-1.5-5-2.74a41,41,0,0,0-4.71-2.59c-1.46-.68-2.44-1.09-3.06-1.35a43.91,43.91,0,0,0-9-4c-2-.52-3.36-.88-4-1.14a21.19,21.19,0,0,0-3.26-.63,8.06,8.06,0,0,0-4.2,1.14,48.71,48.71,0,0,0-5.18,3.74l-3.27,2.59c-1.91,2-3.47,3.52-4.5,4.71a39.78,39.78,0,0,1-3.94,3.68,2.76,2.76,0,0,1-.78,1,2.1,2.1,0,0,0-.83.93l-5.54,5.86-5.5,5.49a69.7,69.7,0,0,1-5.54,5.18c-4.56,4.15-9.07,8.55-13.63,13.32-1,1.14-2.38,2.38-3.83,3.78a25.22,25.22,0,0,0-3.79,4.2,12.31,12.31,0,0,0-1.81,5.39c-.16,3.83-.31,8.6-.31,14.25l-.31,11,.31,7.78.31,9.12-.31,16.53v12.64l-.31,14.25c0,4.82.41,7.88,1.14,9.28s2.8,2.9,6,4.4a39.1,39.1,0,0,1,5.34,2.9,35.13,35.13,0,0,0,5.38,2.9c6.48,2.18,10.89,4.05,13.27,5.55q11,6.13,18.81,6.84c1.56,0,3.52-.67,6.06-2a30.15,30.15,0,0,0,7.62-6.17,43.6,43.6,0,0,1,7.1-5.85,51.08,51.08,0,0,0,8.5-7.77,39.23,39.23,0,0,1,5.65-5.86,60.42,60.42,0,0,0,5.39-5.18,47.59,47.59,0,0,0,4.87-5,19.18,19.18,0,0,1,4.14-4,10.42,10.42,0,0,0,5.24-9.43,7.46,7.46,0,0,0-2.28-5.49C1122.2,401.16,1119.4,399.24,1117.43,399.24ZM1059,359.29c0-.62,0-1.92.15-3.89a21.86,21.86,0,0,0-.46-5.8,19.32,19.32,0,0,1-.36-4.25V341.1a10.54,10.54,0,0,1,2.12-6,67.36,67.36,0,0,1,7.31-6.68l2.59-2.59c1.71-1.71,3.16-2.6,4.25-2.6a14.79,14.79,0,0,1,4.19,1.61l7.47,3.94,1.29.62a15.77,15.77,0,0,1,3.58,2.28l.93.67c2.23,1.51,3.32,2.91,3.32,4.2,0,1.5-1.35,3.27-3.94,5.18l-4.56,3-5.18,3.88a39.12,39.12,0,0,1-3.89,2.59,40.89,40.89,0,0,0-3.89,2.6,32.3,32.3,0,0,1-4.87,3.42c-1.76,1-3,1.65-3.88,2.07-2.59,1.76-4.25,2.59-4.87,2.59C1059.5,361.88,1059,361.05,1059,359.29Zm196,67.52c0-16.84-.21-27.88-.67-33.06v-6.53c0-2.59-.11-5.49-.32-8.76V363.85c0-6.27-.1-10.83-.36-13.63a50.57,50.57,0,0,1-.15-6.53c.15-2.33.15-4,.15-5.18a38,38,0,0,0-.15-3.89,39.7,39.7,0,0,1,.15-5.49,51.67,51.67,0,0,0,.36-7.15v-7.15c0-5.39-.36-9.17-1.14-11.35s-2.74-4-6-5.49a45.06,45.06,0,0,1-5.18-2.9,33.81,33.81,0,0,0-5.18-3c-.88-.21-2.33-.67-4.4-1.29a19.05,19.05,0,0,1-5-2.28,44.24,44.24,0,0,0-8.29-4.05,36.86,36.86,0,0,1-4.72-1.81,6.51,6.51,0,0,0-2.9-.62c-4.3,0-8.45,2.38-12.33,7.1l-4.2,5.18a25.26,25.26,0,0,1-3.42,3.47,23.09,23.09,0,0,0-3.42,3.37l-5.49,5.86-5.55,5.49a71.85,71.85,0,0,1-5.49,5.18c-4.56,4.15-9.12,8.55-13.63,13.32-1.09,1.14-2.38,2.38-3.88,3.78a22.79,22.79,0,0,0-3.74,4.2,11.15,11.15,0,0,0-1.81,5.39c-.21,3.83-.31,8.6-.31,14.25l-.31,11,.31,7.78.31,9.12-.31,17.15v12.64l-.31,14.3c0,4.77.36,7.83,1.09,9.23s2.8,2.9,6,4.4a47.29,47.29,0,0,1,5.39,3,42.41,42.41,0,0,0,5.33,2.9c.89.21,2.34.62,4.36,1.29a19.88,19.88,0,0,1,5.08,2.28,47.07,47.07,0,0,0,8.24,4.05,36.56,36.56,0,0,1,4.71,1.81,6.86,6.86,0,0,0,2.9.62q6.54,0,12.39-7.15l4.19-5.18q1.64-1.95,3.27-3.73c1.09-1.19,2.12-2.44,3.21-3.73,2.18-2.59,3.63-3.89,4.25-3.89l.93.31c.68.47.78,2.07.37,4.87a47,47,0,0,0-.68,7.77l1,9.07a18.41,18.41,0,0,1-.16,5.24,35.06,35.06,0,0,0-.52,5.54,56.54,56.54,0,0,0,.37,6.79l.31,7.15c0,4.09-.52,6.84-1.61,8.08-.26.47-2.85,3.37-7.77,8.76a16.82,16.82,0,0,0-3.27,3.42,15.28,15.28,0,0,1-2.59,2.8,9,9,0,0,1-5.85,2.59c-1.3,0-3.68-.78-7.1-2.28l-6.53-3.94c-3.06-1.5-6.27-3.05-9.74-4.66a21.26,21.26,0,0,0-8.76-2.44,6.42,6.42,0,0,0-5.18,2.28,63.75,63.75,0,0,0-6.69,9.69c-1.14,2.44-1.86,3.84-2.07,4.25-.88,1.71-1.81,3.37-2.75,4.87a41.3,41.3,0,0,0-2.79,4.87,13.56,13.56,0,0,0-1.3,5.19,5.54,5.54,0,0,0,1.3,3.73,13,13,0,0,0,4,2.74c1.86.88,3.11,1.4,3.73,1.66,1.76.83,3.47,1.76,5.18,2.75s3.63,2,5.54,3.06a120.08,120.08,0,0,1,15.91,7.51,19,19,0,0,1,3,1.24,7.34,7.34,0,0,0,3.52,1,6,6,0,0,0,2.59-.62,8.94,8.94,0,0,0,2.75-2.28c1-1.09,1.71-1.82,2.12-2.28l5.24-5.19a33.34,33.34,0,0,0,3.36-3.05c1.4-1.45,2.54-2.7,3.42-3.79a67.63,67.63,0,0,1,7.83-8.91c2.95-2.9,5.18-5,6.48-6.32.83-.83,2-2.07,3.36-3.73a21.75,21.75,0,0,1,4.1-3.73,88.51,88.51,0,0,0,10.36-10.06l4.56-4.87c5.65-5.65,9-13.68,10-24l.68-8.76c0-3.47.1-6.48.31-9.07a105.65,105.65,0,0,0,.31-11.4Zm-36.69-48.35a48.25,48.25,0,0,0-.62,8.14,37.9,37.9,0,0,0,.31,5.33,67,67,0,0,1,.31,7.31v2.59q0,3.89-3.57,7.46l-5.19,5.19a28.9,28.9,0,0,1-4.56,3.57c-.41.47-1.29.62-2.59.62-2.12,0-6.06-1.4-11.71-4.19-3.83-1.71-6.11-3.79-6.79-6.17-.41-.47-.67-3.06-.67-7.77l.36-10.73-.36-11.35-.31-4.56a120.1,120.1,0,0,1,.31-13.94L1183,341.1a14.31,14.31,0,0,1,4.25-8.08,27,27,0,0,1,2.43-2.13,11.23,11.23,0,0,0,2.75-3.06,10.13,10.13,0,0,1,3.42-3.26c1.19-.62,2-1.09,2.44-1.3a5.23,5.23,0,0,1,3.21-1.29c1.29,0,3,.83,4.87,2.43a27.66,27.66,0,0,0,4.87,3.42c3.27,1.51,5.34,3.58,6.22,6.17a7.88,7.88,0,0,1,.31,2.38,48.69,48.69,0,0,0,.31,5.39v10.06c0,.88-.1,2.28-.15,4.25a23.47,23.47,0,0,0,.15,5.18A51.82,51.82,0,0,1,1219,371,58.8,58.8,0,0,1,1218.37,378.46Zm176.18-71.25c-1.24-1.4-4.61-3.83-10-7.31A33.81,33.81,0,0,1,1378,296a84.08,84.08,0,0,0-20.77-9.12,29.68,29.68,0,0,0-3.22-.62,8.81,8.81,0,0,0-4.25,1.14,62.14,62.14,0,0,0-5.18,3.73l-3.21,2.59-6.17,6.16-4.87,5.19-2,2a35.42,35.42,0,0,0-2.74,3.42c-1.2,1.6-2.13,2.33-2.75,2.07s-.83-.93-.52-2.28a11.14,11.14,0,0,0,.52-2.59,16,16,0,0,1,.93-3.73,5.62,5.62,0,0,0,.68-2.44,4,4,0,0,0-1.3-2.9,12.77,12.77,0,0,0-4.09-2.44c-1.82-.77-3.16-1.34-4-1.81a81.71,81.71,0,0,1-10.68-5.8,43.28,43.28,0,0,1-4.87-3.06,7.06,7.06,0,0,0-4.25-1.5,6.27,6.27,0,0,0-2.59.67,9.73,9.73,0,0,0-2.75,2.23,26.92,26.92,0,0,1-2.12,2.28,23.8,23.8,0,0,0-2.59,2.28,35.71,35.71,0,0,0-2.59,2.9l-5.86,7.51c-3.42,4.51-5.18,8.66-5.18,12.34,0,2.79,1.4,5.07,4.25,6.84a29,29,0,0,1,4.71,4,17,17,0,0,0,1.71,2.12,10.09,10.09,0,0,1,2.44,4.87,47.15,47.15,0,0,1,.52,8.45c0,4.3.1,7.93.36,10.72l.62,12c-.88,9.06-1.29,16.22-1.29,21.4a138.94,138.94,0,0,0,.31,15.23l.36,10.11.31,14.25a39.25,39.25,0,0,1-.31,6.16l-1,5.55a28.53,28.53,0,0,0-.31,4.2c0,2.59.57,4.4,1.66,5.54s3.21,2.23,6.48,3.52a83.78,83.78,0,0,1,10.67,5.86,41.89,41.89,0,0,1,4.87,3.06,7.13,7.13,0,0,0,4.25,1.5,6.27,6.27,0,0,0,2.59-.67,10.26,10.26,0,0,0,2.75-2.28c1-1,1.71-1.82,2.13-2.23a27.2,27.2,0,0,0,2.59-2.28,31.51,31.51,0,0,0,2.59-3l5.85-7.46c2.8-3.47,4.25-6.68,4.25-9.74a6.9,6.9,0,0,0-3.31-5.8,26,26,0,0,1-4.67-4.1c-.78-1-1.35-1.66-1.76-2.07a9.9,9.9,0,0,1-2.44-4.72,64.46,64.46,0,0,1-.88-8c0-3.88,0-7.15-.31-9.74l-.31-9.43q0-1.54-.62-8.39a25.09,25.09,0,0,1,.16-6.17c.31-2.85.46-4.87.46-6.17v-1l-.31-10.36c-.21-5.65-.15-9.28.16-10.89s1.55-3.52,3.73-5.64l7.51-7.52a58.63,58.63,0,0,1,7.77-6.32c3.22-2.23,5.7-2.95,7.41-2.07.88.36,2,.88,3.48,1.4a15.7,15.7,0,0,1,4,2.43,66.47,66.47,0,0,0,7.51,4.25c5.8,3.47,9.79,5.18,12,5.18s4.2-1.19,6.12-3.57c.88-.83,2.17-2.18,3.93-3.89a29.87,29.87,0,0,0,3.89-4.56c2.59-3,4-4.87,4.2-5.49a11.83,11.83,0,0,0,1.91-4.25,14.08,14.08,0,0,1,.68-2.28C1396.11,310.53,1395.9,308.66,1394.55,307.21Zm58.61-64.77a23.12,23.12,0,0,0-6.32-4.82,46.54,46.54,0,0,1-4.2-3.27,21.31,21.31,0,0,0-4.25-2.9q-2.25-1.32-4.66-2.95a8.57,8.57,0,0,0-4.72-1.61,5.77,5.77,0,0,0-3.42,1,17.12,17.12,0,0,0-3.42,3.21,12.81,12.81,0,0,0-2.74,3.11,29.9,29.9,0,0,1-2.13,2.74l-5.18,6.84c-2.38,3.22-3.57,6.07-3.57,8.4v.67a6.59,6.59,0,0,0,2.59,5.19,62.86,62.86,0,0,0,8.75,5.85c.68.47,2.44,1.71,5.34,3.89s5.49,3.21,7.67,3.21a6.56,6.56,0,0,0,4.35-1.71,35.48,35.48,0,0,0,4.41-4.72l3.26-4.24c.62-.83,2-2.49,4.2-4.88a23.55,23.55,0,0,0,4.87-8.13A4.72,4.72,0,0,0,1453.16,242.44Zm16.07,183.75a28.87,28.87,0,0,1-4.72-4.1,19,19,0,0,0-1.76-2.07,10.27,10.27,0,0,1-2.44-4.72,79.73,79.73,0,0,1-.83-8c0-3.88-.1-7.15-.31-9.74l-.31-12.95a21.37,21.37,0,0,0,0-5.18,21.87,21.87,0,0,1,0-5.24,66.21,66.21,0,0,0,.31-7.46,25.2,25.2,0,0,0-.62-6.79,38.48,38.48,0,0,1-1.29-10,92.56,92.56,0,0,1,.62-9.43,49.31,49.31,0,0,0,.67-6.84l-.36-14.25a37.11,37.11,0,0,1,.36-6.17l.93-5.54a18.76,18.76,0,0,0,.37-4.2c0-2.59-.57-4.4-1.66-5.49s-3.21-2.28-6.48-3.63a82,82,0,0,1-10.73-5.8c-1.91-1.09-3.57-2.13-4.87-3.06a6.77,6.77,0,0,0-4.19-1.5,5.83,5.83,0,0,0-2.59.67,8.32,8.32,0,0,0-2.75,2.23,26.52,26.52,0,0,1-2.13,2.28,23.8,23.8,0,0,0-2.59,2.28,29.42,29.42,0,0,0-2.59,2.9l-5.85,7.51c-2.85,3.48-4.25,6.69-4.25,9.75a6.78,6.78,0,0,0,3.26,5.8,26.86,26.86,0,0,1,4.72,4.09c.78.94,1.34,1.66,1.81,2.13a11.21,11.21,0,0,1,2.44,4.82,51.35,51.35,0,0,1,.46,8.13q0,1.95.63,11a106,106,0,0,1,.67,14.25l-.36,16.27a10.49,10.49,0,0,1-.31,2.9,26.33,26.33,0,0,0-.63,6.17c0,2.85.21,7.25.63,13.32l.67,9.43.31,14.25a39.25,39.25,0,0,1-.31,6.16l-1,5.55a23,23,0,0,0-.31,4.2c0,2.59.52,4.4,1.61,5.54s3.26,2.23,6.48,3.52a83.39,83.39,0,0,1,10.72,5.86,46.67,46.67,0,0,1,4.87,3.06,6.91,6.91,0,0,0,4.25,1.5,6.27,6.27,0,0,0,2.59-.67,10.26,10.26,0,0,0,2.75-2.28,29.85,29.85,0,0,1,2.13-2.23c.62-.47,1.45-1.25,2.59-2.28a31.51,31.51,0,0,0,2.59-3l5.85-7.46c2.8-3.47,4.2-6.68,4.2-9.74A6.84,6.84,0,0,0,1469.23,426.19Zm83.27-125.61c-.78-.47-2.44-.68-5.08-.68h-2.59a36.87,36.87,0,0,0-4.2.21,10.93,10.93,0,0,1-3.11-.21,1.31,1.31,0,0,1-1.09-1.29l.63-5.49a23.92,23.92,0,0,0,.15-4.87q-.15-2-.15-3.27l-.31-14.3a38.2,38.2,0,0,1,.31-6.12l1-5.54a23,23,0,0,0,.31-4.2c0-2.64-.52-4.45-1.6-5.54s-3.27-2.28-6.48-3.53a86.44,86.44,0,0,1-10.73-5.9,46.36,46.36,0,0,1-4.87-3.06,6.74,6.74,0,0,0-4.2-1.45,5.84,5.84,0,0,0-2.59.62,11.64,11.64,0,0,0-2.8,2.28,24.66,24.66,0,0,1-2.12,2.28,25,25,0,0,0-2.59,2.28,36.63,36.63,0,0,0-2.59,2.95l-5.81,7.41c-2.85,3.48-4.25,6.69-4.25,9.75a6.85,6.85,0,0,0,3.27,5.85,24.39,24.39,0,0,1,4.66,4,26.24,26.24,0,0,0,1.82,2.13,15.93,15.93,0,0,1,3.26,5.85,38.51,38.51,0,0,1,1.3,8.09l.62,7.77c0,1.55-.62,2.28-1.92,2.28l-7.15-.31a7.15,7.15,0,0,0-3.58.62c-1.08.88-2,3.84-2.9,8.81l-1.29,7.46a15.15,15.15,0,0,0-.37,3.58,2.36,2.36,0,0,0,1.66,2.28c1,.41,3.47.62,7.15.62,3.42,0,5.55.15,6.27.47s1.2,1.5,1.2,3.42l-.32,7.46a7,7,0,0,0,.32,2.59,26.78,26.78,0,0,1,.31,4.56c0,2-.26,5.34-.63,10a75.1,75.1,0,0,0,.32,8.76,58.62,58.62,0,0,1,0,12c0,1.5-.11,3.37-.16,5.54a37.19,37.19,0,0,0,.16,6.79q.62,7.16.62,10.11l-.31,9.38a49.92,49.92,0,0,0-.31,6.84l.31,14.25a40.56,40.56,0,0,1-.31,6.16l-1,5.55a21.44,21.44,0,0,0-.36,4.2c0,2.59.57,4.4,1.66,5.54s3.21,2.23,6.47,3.52a83,83,0,0,1,10.68,5.86,41.89,41.89,0,0,1,4.87,3.06,7.13,7.13,0,0,0,4.25,1.5,6.27,6.27,0,0,0,2.59-.67,9.8,9.8,0,0,0,2.8-2.28c.93-1,1.66-1.82,2.07-2.23a22.16,22.16,0,0,0,2.59-2.28,38.26,38.26,0,0,0,2.64-3l5.81-7.46c2.8-3.47,4.25-6.68,4.25-9.74a7,7,0,0,0-3.27-5.8,24.85,24.85,0,0,1-4.71-4.1c-.78-1-1.35-1.66-1.76-2.07a9.88,9.88,0,0,1-2.44-5,85.47,85.47,0,0,1-.83-9c0-4.09-.1-7.46-.36-10l-.31-4.2c-.21-1.71-.47-4.3-.78-7.83a78,78,0,0,1-.16-11c.42-4.56.63-12,.63-22.44.46-4.71.62-8.76.62-12a68.26,68.26,0,0,0-.31-7.93c-.21-2-.31-3.63-.31-4.71,0-1.51.46-2.39,1.29-2.75a15.44,15.44,0,0,1,5.24-.16c2.59.21,4.4.11,5.49-.36,1.09-.83,2-3.78,2.9-8.7l1.3-7.52a15.18,15.18,0,0,0,.36-3.52A2.45,2.45,0,0,0,1552.5,300.58Zm58.76-58.14a23.67,23.67,0,0,0-6.37-4.82,45.17,45.17,0,0,1-4.2-3.27,18.81,18.81,0,0,0-4.25-2.9c-1.5-.88-3.06-1.86-4.72-2.95a8.18,8.18,0,0,0-4.71-1.61,5.82,5.82,0,0,0-3.37,1,17.12,17.12,0,0,0-3.42,3.21,14.22,14.22,0,0,0-2.75,3.11,22.1,22.1,0,0,1-2.12,2.74l-5.18,6.84c-2.39,3.22-3.58,6.07-3.58,8.4v.67a6.66,6.66,0,0,0,2.65,5.19,56.68,56.68,0,0,0,8.7,5.85c.67.47,2.44,1.71,5.39,3.89s5.44,3.21,7.62,3.21a6.78,6.78,0,0,0,4.4-1.71,39.05,39.05,0,0,0,4.35-4.72c1.51-2,2.6-3.36,3.27-4.24s2-2.49,4.2-4.88a23.7,23.7,0,0,0,4.87-8.13A4.93,4.93,0,0,0,1611.26,242.44Zm16,183.75a26.63,26.63,0,0,1-4.71-4.1,17.81,17.81,0,0,0-1.77-2.07,10.22,10.22,0,0,1-2.38-4.72,55.87,55.87,0,0,1-.88-8c0-3.88-.1-7.15-.31-9.74l-.31-12.95a21.37,21.37,0,0,0,0-5.18,17.7,17.7,0,0,1,0-5.24,66.21,66.21,0,0,0,.31-7.46,25.62,25.62,0,0,0-.62-6.79,38.53,38.53,0,0,1-1.35-10c0-2.38.26-5.49.67-9.43a57,57,0,0,0,.68-6.84l-.31-14.25a33.56,33.56,0,0,1,.31-6.17l.93-5.54a23,23,0,0,0,.31-4.2c0-2.59-.52-4.4-1.55-5.49s-3.32-2.28-6.53-3.63a85.43,85.43,0,0,1-10.73-5.8c-1.92-1.09-3.52-2.13-4.87-3.06a6.67,6.67,0,0,0-4.2-1.5,6.08,6.08,0,0,0-2.59.67,9,9,0,0,0-2.74,2.23,20.26,20.26,0,0,1-2.13,2.28,19.84,19.84,0,0,0-2.59,2.28,28.18,28.18,0,0,0-2.59,2.9l-5.86,7.51c-2.79,3.48-4.19,6.69-4.19,9.75a6.82,6.82,0,0,0,3.21,5.8,24.9,24.9,0,0,1,4.71,4.09c.78.94,1.35,1.66,1.82,2.13a10.66,10.66,0,0,1,2.43,4.82,51.07,51.07,0,0,1,.47,8.13q0,1.95.62,11a104,104,0,0,1,.68,14.25l-.32,16.27a12.17,12.17,0,0,1-.36,2.9,26.92,26.92,0,0,0-.62,6.17c0,2.85.21,7.25.62,13.32l.68,9.43.31,14.25a40.56,40.56,0,0,1-.31,6.16l-1,5.55a22.08,22.08,0,0,0-.31,4.2c0,2.59.52,4.4,1.61,5.54s3.26,2.23,6.53,3.52a87.4,87.4,0,0,1,10.67,5.86,46.67,46.67,0,0,1,4.87,3.06,6.88,6.88,0,0,0,4.2,1.5,5.9,5.9,0,0,0,2.59-.67,9.8,9.8,0,0,0,2.8-2.28c1-1,1.66-1.82,2.07-2.23a22.16,22.16,0,0,0,2.59-2.28,30,30,0,0,0,2.64-3l5.86-7.46c2.8-3.47,4.2-6.68,4.2-9.74A6.83,6.83,0,0,0,1627.27,426.19Zm141.21,0a27,27,0,0,1-4.72-4.1c-.72-1-1.4-1.66-1.76-2.12a13.94,13.94,0,0,1-3-5.86,50.65,50.65,0,0,1-.68-9.74v-6.79l-.31-9.38c-.21-2.85-.21-5.64-.15-8.44s.15-5.19.15-7.1a76.28,76.28,0,0,0-.31-9.12c-.41-4.77-.62-8.14-.62-10.06l.31-9.43a59.08,59.08,0,0,0,.31-6.78l-.31-14.31a38.9,38.9,0,0,1,.31-6.16l1-5.5a24.31,24.31,0,0,0,.31-4.24c0-2.6-.52-4.46-1.61-5.55A20.86,20.86,0,0,0,1751,298a47.29,47.29,0,0,1-5.39-3,42.41,42.41,0,0,0-5.33-2.9c-.88-.21-2.28-.67-4.41-1.29a19.13,19.13,0,0,1-5-2.28,49.85,49.85,0,0,0-7.78-3.79,18.3,18.3,0,0,0-5.23-.77,5.66,5.66,0,0,0-3.52,1.29,33.54,33.54,0,0,0-3.89,3.89l-4.2,5.18a28.79,28.79,0,0,1-3.42,3.47,23,23,0,0,0-3.42,3.37l-5.49,5.86a37.78,37.78,0,0,0-2.8,3.36c-1.19,1.66-2.12,2.39-2.75,2.13s-.77-.93-.51-2.23a11.93,11.93,0,0,0,.51-2.59,11.38,11.38,0,0,1,1-3.78,7.45,7.45,0,0,0,.62-2.44,4,4,0,0,0-1.29-2.9,14.14,14.14,0,0,0-4.05-2.44c-1.86-.77-3.21-1.34-4.09-1.81a82.45,82.45,0,0,1-10.67-5.8,46.6,46.6,0,0,1-4.88-3.06,6.87,6.87,0,0,0-4.19-1.5,6.56,6.56,0,0,0-2.59.62,9.62,9.62,0,0,0-2.8,2.33,23.6,23.6,0,0,1-2.13,2.23,23.8,23.8,0,0,0-2.59,2.28c-1,1.14-1.92,2.07-2.59,2.9l-5.8,7.51c-3.47,4.51-5.24,8.66-5.24,12.34q0,4.19,4.2,6.84a23.61,23.61,0,0,1,4.72,4,26,26,0,0,0,1.81,2.12,9.93,9.93,0,0,1,2.38,5,67.52,67.52,0,0,1,.88,9c0,4.1.06,7.46.32,10.05l.67,12c-.26,1.5-.57,4.45-1,8.91a120,120,0,0,0-.67,12.49c-.21,2.17-.1,7.2.31,15.23L1651,410l.32,14.25a44.8,44.8,0,0,1-.32,6.11l-1,5.6a18.15,18.15,0,0,0-.36,4.2c0,2.59.57,4.45,1.66,5.54s3.26,2.23,6.47,3.52a83.32,83.32,0,0,1,10.73,5.86,40.77,40.77,0,0,1,4.82,3.06,7.13,7.13,0,0,0,4.25,1.5,6.08,6.08,0,0,0,2.59-.67,9.8,9.8,0,0,0,2.8-2.28c.93-1,1.66-1.82,2.07-2.23.62-.47,1.5-1.25,2.59-2.28a23.79,23.79,0,0,0,2.59-3l5.86-7.46c2.8-3.47,4.25-6.68,4.25-9.69a6.85,6.85,0,0,0-3.27-5.85,28.9,28.9,0,0,1-4.71-4.1c-.78-1-1.35-1.66-1.77-2.12a10,10,0,0,1-2.43-4.67,57.71,57.71,0,0,1-.83-8c0-3.88-.1-7.15-.31-9.74l-.31-9.38c0-1.08-.26-3.88-.68-8.44a24,24,0,0,1,.16-6.22,52.43,52.43,0,0,0,.52-6.12v-1l-.36-10.36c-.21-5.65-.16-9.23.2-10.94s1.56-3.47,3.68-5.65c.47-.41,1.3-1.14,2.44-2.07a12.47,12.47,0,0,0,2.74-3.11,61.82,61.82,0,0,1,6.84-6.16c2-1.71,3.79-2.6,5.55-2.6a8.34,8.34,0,0,1,3.57.94,17.68,17.68,0,0,0,2.91,1.34,11.11,11.11,0,0,1,5.85,5.81c1,2.59,1.45,6.84,1.3,12.69,0,3.27.1,5.91.31,8.09,0,.46,0,1.76.15,3.94s.21,6,.21,11.65c0,6.28-.16,11.15-.36,14.62,0,4.09.1,7.56.36,10.36.36,7.36.52,12.33.26,15a50.81,50.81,0,0,0,0,8.08c.26,3.47.36,6.17.36,8.14a15.81,15.81,0,0,1-.36,4.14l-.93,5.6a18.06,18.06,0,0,0-.37,4.2c0,2.59.52,4.45,1.66,5.54s3.21,2.23,6.48,3.52a83.09,83.09,0,0,1,10.67,5.86,49.38,49.38,0,0,1,4.93,3.06,6.83,6.83,0,0,0,4.19,1.5,6.27,6.27,0,0,0,2.59-.67,10.22,10.22,0,0,0,2.8-2.28c.94-1,1.66-1.82,2.08-2.23a22.16,22.16,0,0,0,2.59-2.28,31.51,31.51,0,0,0,2.59-3l5.85-7.46c2.85-3.47,4.25-6.68,4.25-9.69A7,7,0,0,0,1768.48,426.19Zm126,.62c0-16.84-.21-27.88-.67-33.06v-6.53c0-2.59-.11-5.49-.31-8.76V363.85c0-6.27-.11-10.83-.37-13.63a54.44,54.44,0,0,1-.15-6.53c.1-2.33.15-4,.15-5.18s-.05-2.33-.15-3.89a43.12,43.12,0,0,1,.15-5.49,51.4,51.4,0,0,0,.37-7.15v-7.15c0-5.39-.42-9.17-1.14-11.35s-2.75-4-6-5.49a45.06,45.06,0,0,1-5.18-2.9,33.81,33.81,0,0,0-5.18-3c-.88-.21-2.33-.67-4.4-1.29a19.36,19.36,0,0,1-5-2.28,44,44,0,0,0-8.29-4.05,36.86,36.86,0,0,1-4.72-1.81,6.51,6.51,0,0,0-2.9-.62c-4.3,0-8.44,2.38-12.33,7.1l-4.2,5.18a25.26,25.26,0,0,1-3.42,3.47,23.6,23.6,0,0,0-3.42,3.37l-5.49,5.86-5.55,5.49a71.85,71.85,0,0,1-5.49,5.18c-4.56,4.15-9.12,8.55-13.63,13.32-1.08,1.14-2.38,2.38-3.88,3.78a22.35,22.35,0,0,0-3.73,4.2,11.05,11.05,0,0,0-1.82,5.39c-.2,3.83-.31,8.6-.31,14.25l-.31,11,.31,7.78.31,9.12-.31,17.15v12.64l-.31,14.3c0,4.77.36,7.83,1.09,9.23s2.8,2.9,6,4.4a46.45,46.45,0,0,1,5.39,3,41.76,41.76,0,0,0,5.34,2.9c.88.21,2.33.62,4.35,1.29a19.88,19.88,0,0,1,5.08,2.28,47.07,47.07,0,0,0,8.24,4.05,36.56,36.56,0,0,1,4.71,1.81,6.86,6.86,0,0,0,2.9.62q6.54,0,12.39-7.15l4.2-5.18q1.62-1.95,3.26-3.73c1.09-1.19,2.12-2.44,3.21-3.73,2.18-2.59,3.63-3.89,4.25-3.89l.93.31c.68.47.78,2.07.37,4.87a47,47,0,0,0-.68,7.77l1,9.07a18.05,18.05,0,0,1-.16,5.24,30,30,0,0,0-.52,5.54,56.54,56.54,0,0,0,.37,6.79l.31,7.15c0,4.09-.52,6.84-1.61,8.08-.26.47-2.85,3.37-7.77,8.76a16.82,16.82,0,0,0-3.27,3.42,15,15,0,0,1-1.45,1.76v30c.68-.78,1.25-1.45,1.77-2.08a66.8,66.8,0,0,1,7.82-8.91c3-2.9,5.18-5,6.43-6.32a47.11,47.11,0,0,0,3.42-3.73,21.42,21.42,0,0,1,4.09-3.73,88.51,88.51,0,0,0,10.36-10.06l4.56-4.87c5.65-5.65,9-13.68,10.06-24l.67-8.76c0-3.47.1-6.48.31-9.07a105.65,105.65,0,0,0,.31-11.4Zm-36.69-48.35a48.25,48.25,0,0,0-.62,8.14,37.9,37.9,0,0,0,.31,5.33,67,67,0,0,1,.31,7.31v2.59q0,3.89-3.57,7.46l-5.18,5.19a29.87,29.87,0,0,1-4.56,3.57c-.42.47-1.3.62-2.6.62-2.12,0-6.06-1.4-11.71-4.19-3.83-1.71-6.11-3.79-6.78-6.17-.42-.47-.68-3.06-.68-7.77l.36-10.73-.36-11.35-.31-4.56a120.1,120.1,0,0,1,.31-13.94l-.31-18.86a14.37,14.37,0,0,1,4.25-8.08,26.1,26.1,0,0,1,2.44-2.13,11.35,11.35,0,0,0,2.74-3.06,10.13,10.13,0,0,1,3.42-3.26c1.19-.62,2-1.09,2.44-1.3a5.23,5.23,0,0,1,3.21-1.29c1.3,0,2.95.83,4.87,2.43a27.66,27.66,0,0,0,4.87,3.42c3.27,1.51,5.34,3.58,6.22,6.17a7.56,7.56,0,0,1,.31,2.38,48.69,48.69,0,0,0,.31,5.39v10.06c0,.88-.1,2.28-.15,4.25a20.77,20.77,0,0,0,.15,5.18,51.82,51.82,0,0,1,.93,9.74A58.8,58.8,0,0,1,1857.81,378.46Z"/><path class="cls-2" d="M932.62,561.19h31.24v17.43H905V561.19h9.69V544.56c-.78-11.27,3.47-16.24,12.84-15h36.35v17.88H940.61C934.45,547.44,931.77,552,932.62,561.19ZM753.39,578.43a13.44,13.44,0,0,0,6.35,1.64,13.62,13.62,0,0,0,6.35-1.64,11.58,11.58,0,0,0,4.8-4.71,13,13,0,0,0,1.67-6.31,12.46,12.46,0,0,0-1.75-6.35,13.15,13.15,0,0,0-4.8-4.8,12.68,12.68,0,0,0-12.58,0,12.35,12.35,0,0,0-4.71,4.8,13.26,13.26,0,0,0-1.72,6.35,13.4,13.4,0,0,0,1.64,6.31A10.81,10.81,0,0,0,753.39,578.43Zm-28.08,0a13.41,13.41,0,0,0,6.35,1.64,13.62,13.62,0,0,0,6.35-1.64,11.14,11.14,0,0,0,4.8-4.71,13.15,13.15,0,0,0,1.71-6.31,12.61,12.61,0,0,0-1.79-6.35,12.79,12.79,0,0,0-11.07-6.47,12.59,12.59,0,0,0-6.27,1.67,12.18,12.18,0,0,0-4.75,4.8,13.21,13.21,0,0,0-1.68,6.35,13.35,13.35,0,0,0,1.6,6.31A10.81,10.81,0,0,0,725.31,578.43Zm121.4,152a12.51,12.51,0,0,0-12.56,0,12,12,0,0,0-4.73,4.79,13,13,0,0,0-1.7,6.33,13.45,13.45,0,0,0,1.63,6.34,10.92,10.92,0,0,0,4.73,4.71,13.27,13.27,0,0,0,12.71,0,11.41,11.41,0,0,0,4.8-4.71,13.09,13.09,0,0,0,1.7-6.34,13.18,13.18,0,0,0-6.58-11.12Zm28.07,0a12.49,12.49,0,0,0-12.55,0,11.92,11.92,0,0,0-4.73,4.79,13,13,0,0,0-1.7,6.33,13.55,13.55,0,0,0,1.62,6.34,11,11,0,0,0,4.73,4.71,13.27,13.27,0,0,0,12.71,0,11.36,11.36,0,0,0,4.8-4.71,13.09,13.09,0,0,0,1.7-6.34,13.12,13.12,0,0,0-6.58-11.12ZM968.1,598.64V709.53H702.38V626c-.42-17.67,7.15-26.79,22.59-27.36h56v83.22h59.33V598.64h27.93v83.22h72.23V598.64ZM753.21,627H742.74c-8.86-.57-13,3.1-12.43,11.08v43.43h22.9Zm552.37-48.61a13.13,13.13,0,0,0,12.71,0,11.17,11.17,0,0,0,4.79-4.71,12.63,12.63,0,0,0,1.72-6.31,13.08,13.08,0,0,0-6.59-11.15,12.62,12.62,0,0,0-12.55,0,12.15,12.15,0,0,0-4.71,4.8,12.83,12.83,0,0,0-1.72,6.35,13.4,13.4,0,0,0,1.64,6.31A10.77,10.77,0,0,0,1305.58,578.43Zm-28.08,0a13.68,13.68,0,0,0,6.35,1.64,13.38,13.38,0,0,0,6.35-1.64,11.45,11.45,0,0,0,4.84-4.71,12.51,12.51,0,0,0-.08-12.66,13.2,13.2,0,0,0-4.79-4.8,12.7,12.7,0,0,0-12.59,0,12.42,12.42,0,0,0-4.71,4.8,12.83,12.83,0,0,0-1.72,6.35,13.4,13.4,0,0,0,1.64,6.31A11,11,0,0,0,1277.5,578.43Zm134.73,0a13.65,13.65,0,0,0,6.35,1.64,13.5,13.5,0,0,0,6.35-1.64,11.14,11.14,0,0,0,4.8-4.71,12.72,12.72,0,0,0,1.71-6.31,13,13,0,0,0-6.59-11.15,12.67,12.67,0,0,0-6.27-1.67,12.81,12.81,0,0,0-6.27,1.67,12,12,0,0,0-4.71,4.8,12.83,12.83,0,0,0-1.72,6.35,13.4,13.4,0,0,0,1.64,6.31A10.67,10.67,0,0,0,1412.23,578.43Zm-28.08,0a13.65,13.65,0,0,0,6.35,1.64,13.41,13.41,0,0,0,6.35-1.64,11.37,11.37,0,0,0,4.83-4.71,12.91,12.91,0,0,0-4.87-17.46,12.68,12.68,0,0,0-12.58,0,12.28,12.28,0,0,0-4.71,4.8,12.83,12.83,0,0,0-1.72,6.35,13.4,13.4,0,0,0,1.64,6.31A10.88,10.88,0,0,0,1384.15,578.43Zm286,20.21V709.53H1033.29l-52,.16V486.09h29V681.86H1055V635.17h28.24v46.69h12.9V598.64h87.47q23.48-.46,29.38,26.22l14.35,57h79.91V669.79h-50.68V620.56q-1.32-22.77,22.64-21.92H1335v83.22h52.85V598.64h27.93v83.22h138.46V598.64h27.72v83.22h16.28V598.64h27.93v83.22h16.11V598.64ZM1194,681.86l-10.37-42.6c-3.52-8.8-9.38-12.85-17.56-12.07H1124v54.67Zm113.17-56.28h-13.74q-9.87-.47-9.12,8.87v13.21h22.86ZM1746.85,675q.9,13.85-7.95,19.61l-63.83,51.09,17.57,23,73-59.64c7.31-5.19,10.71-13.42,10.23-24.6V513.88h-29Zm-19-100.74h-29.24V710.81l29.24-27.52Zm76.25-88.2V738.13l29-28.88V486.08Z"/><path class="cls-2" d="M474,331.25a190.64,190.64,0,0,0-269.17,0c-1.84,1.84-3.73,3.81-5.7,6l-.39.53c.61.22,1.23.4,1.8.66s1.27.44,1.92.61c1.63-1.84,3.33-3.55,5-5.16a186.85,186.85,0,0,1,264.05,0c67.23,67.17,73.44,173.74,14.37,247.88l-.45.57a174.94,174.94,0,0,1-14,15.59,162.53,162.53,0,0,1-15.9,14.19,186.4,186.4,0,0,1-248.06-14.23c-62.89-62.89-72.61-162.17-23.17-236,.7-1.06,1.41-2.11,2.15-3.16l1.18-1.44-1.88-.71c-.61-.22-1.18-.44-1.79-.65l-.49.69c-.74,1.1-1.49,2.15-2.19,3.25-50.45,75.24-40.5,176.41,23.62,240.62A190.06,190.06,0,0,0,457.82,615,181.73,181.73,0,0,0,474,600.51a179.81,179.81,0,0,0,14.32-16l.36-.51C548.91,508.45,542.65,399.78,474,331.25Zm0,0a190.64,190.64,0,0,0-269.17,0c-1.84,1.84-3.73,3.81-5.7,6l-.39.53c.61.22,1.23.4,1.8.66s1.27.44,1.92.61c1.63-1.84,3.33-3.55,5-5.16a186.85,186.85,0,0,1,264.05,0c67.23,67.17,73.44,173.74,14.37,247.88l-.45.57a174.94,174.94,0,0,1-14,15.59,162.53,162.53,0,0,1-15.9,14.19,186.4,186.4,0,0,1-248.06-14.23c-62.89-62.89-72.61-162.17-23.17-236,.7-1.06,1.41-2.11,2.15-3.16l1.18-1.44-1.88-.71c-.61-.22-1.18-.44-1.79-.65l-.49.69c-.74,1.1-1.49,2.15-2.19,3.25-50.45,75.24-40.5,176.41,23.62,240.62A190.06,190.06,0,0,0,457.82,615,181.73,181.73,0,0,0,474,600.51a179.81,179.81,0,0,0,14.32-16l.36-.51C548.91,508.45,542.65,399.78,474,331.25Zm0,0a190.64,190.64,0,0,0-269.17,0c-1.84,1.84-3.73,3.81-5.7,6l-.39.53c.61.22,1.23.4,1.8.66s1.27.44,1.92.61c1.63-1.84,3.33-3.55,5-5.16a186.85,186.85,0,0,1,264.05,0c67.23,67.17,73.44,173.74,14.37,247.88l-.45.57a174.94,174.94,0,0,1-14,15.59,162.53,162.53,0,0,1-15.9,14.19,186.4,186.4,0,0,1-248.06-14.23c-62.89-62.89-72.61-162.17-23.17-236,.7-1.06,1.41-2.11,2.15-3.16l1.18-1.44-1.88-.71c-.61-.22-1.18-.44-1.79-.65l-.49.69c-.74,1.1-1.49,2.15-2.19,3.25-50.45,75.24-40.5,176.41,23.62,240.62A190.06,190.06,0,0,0,457.82,615,181.73,181.73,0,0,0,474,600.51a179.81,179.81,0,0,0,14.32-16l.36-.51C548.91,508.45,542.65,399.78,474,331.25Zm0,0a190.64,190.64,0,0,0-269.17,0c-1.84,1.84-3.73,3.81-5.7,6l-.39.53c.61.22,1.23.4,1.8.66s1.27.44,1.92.61c1.63-1.84,3.33-3.55,5-5.16a186.85,186.85,0,0,1,264.05,0c67.23,67.17,73.44,173.74,14.37,247.88l-.45.57a174.94,174.94,0,0,1-14,15.59,162.53,162.53,0,0,1-15.9,14.19,186.4,186.4,0,0,1-248.06-14.23c-62.89-62.89-72.61-162.17-23.17-236,.7-1.06,1.41-2.11,2.15-3.16l1.18-1.44-1.88-.71c-.61-.22-1.18-.44-1.79-.65l-.49.69c-.74,1.1-1.49,2.15-2.19,3.25-50.45,75.24-40.5,176.41,23.62,240.62A190.06,190.06,0,0,0,457.82,615,181.73,181.73,0,0,0,474,600.51a179.81,179.81,0,0,0,14.32-16l.36-.51C548.91,508.45,542.65,399.78,474,331.25Zm0,0a190.64,190.64,0,0,0-269.17,0c-1.84,1.84-3.73,3.81-5.7,6l-.39.53c.61.22,1.23.4,1.8.66s1.27.44,1.92.61c1.63-1.84,3.33-3.55,5-5.16a186.85,186.85,0,0,1,264.05,0c67.23,67.17,73.44,173.74,14.37,247.88l-.45.57a174.94,174.94,0,0,1-14,15.59,162.53,162.53,0,0,1-15.9,14.19,186.4,186.4,0,0,1-248.06-14.23c-62.89-62.89-72.61-162.17-23.17-236,.7-1.06,1.41-2.11,2.15-3.16l1.18-1.44-1.88-.71c-.61-.22-1.18-.44-1.79-.65l-.49.69c-.74,1.1-1.49,2.15-2.19,3.25-50.45,75.24-40.5,176.41,23.62,240.62A190.06,190.06,0,0,0,457.82,615,181.73,181.73,0,0,0,474,600.51a179.81,179.81,0,0,0,14.32-16l.36-.51C548.91,508.45,542.65,399.78,474,331.25Zm0,0a190.64,190.64,0,0,0-269.17,0c-1.84,1.84-3.73,3.81-5.7,6l-.39.53c.61.22,1.23.4,1.8.66s1.27.44,1.92.61c1.63-1.84,3.33-3.55,5-5.16a186.85,186.85,0,0,1,264.05,0c67.23,67.17,73.44,173.74,14.37,247.88l-.45.57a174.94,174.94,0,0,1-14,15.59,162.53,162.53,0,0,1-15.9,14.19,186.4,186.4,0,0,1-248.06-14.23c-62.89-62.89-72.61-162.17-23.17-236,.7-1.06,1.41-2.11,2.15-3.16l1.18-1.44-1.88-.71c-.61-.22-1.18-.44-1.79-.65l-.49.69c-.74,1.1-1.49,2.15-2.19,3.25-50.45,75.24-40.5,176.41,23.62,240.62A190.06,190.06,0,0,0,457.82,615,181.73,181.73,0,0,0,474,600.51a179.81,179.81,0,0,0,14.32-16l.36-.51C548.91,508.45,542.65,399.78,474,331.25Zm0,0a190.64,190.64,0,0,0-269.17,0c-1.84,1.84-3.73,3.81-5.7,6l-.39.53c.61.22,1.23.4,1.8.66s1.27.44,1.92.61c1.63-1.84,3.33-3.55,5-5.16a186.85,186.85,0,0,1,264.05,0c67.23,67.17,73.44,173.74,14.37,247.88l-.45.57a174.94,174.94,0,0,1-14,15.59,162.53,162.53,0,0,1-15.9,14.19,186.4,186.4,0,0,1-248.06-14.23c-62.89-62.89-72.61-162.17-23.17-236,.7-1.06,1.41-2.11,2.15-3.16l1.18-1.44-1.88-.71c-.61-.22-1.18-.44-1.79-.65l-.49.69c-.74,1.1-1.49,2.15-2.19,3.25-50.45,75.24-40.5,176.41,23.62,240.62A190.06,190.06,0,0,0,457.82,615,181.73,181.73,0,0,0,474,600.51a179.81,179.81,0,0,0,14.32-16l.36-.51C548.91,508.45,542.65,399.78,474,331.25Zm0,0a190.64,190.64,0,0,0-269.17,0c-1.84,1.84-3.73,3.81-5.7,6l-.39.53c.61.22,1.23.4,1.8.66s1.27.44,1.92.61c1.63-1.84,3.33-3.55,5-5.16a186.85,186.85,0,0,1,264.05,0c67.23,67.17,73.44,173.74,14.37,247.88l-.45.57a174.94,174.94,0,0,1-14,15.59,162.53,162.53,0,0,1-15.9,14.19,186.4,186.4,0,0,1-248.06-14.23c-62.89-62.89-72.61-162.17-23.17-236,.7-1.06,1.41-2.11,2.15-3.16l1.18-1.44-1.88-.71c-.61-.22-1.18-.44-1.79-.65l-.49.69c-.74,1.1-1.49,2.15-2.19,3.25-50.45,75.24-40.5,176.41,23.62,240.62A190.06,190.06,0,0,0,457.82,615,181.73,181.73,0,0,0,474,600.51a179.81,179.81,0,0,0,14.32-16l.36-.51C548.91,508.45,542.65,399.78,474,331.25Zm0,0a190.64,190.64,0,0,0-269.17,0c-1.84,1.84-3.73,3.81-5.7,6l-.39.53c.61.22,1.23.4,1.8.66s1.27.44,1.92.61c1.63-1.84,3.33-3.55,5-5.16a186.85,186.85,0,0,1,264.05,0c67.23,67.17,73.44,173.74,14.37,247.88l-.45.57a174.94,174.94,0,0,1-14,15.59,162.53,162.53,0,0,1-15.9,14.19,186.4,186.4,0,0,1-248.06-14.23c-62.89-62.89-72.61-162.17-23.17-236,.7-1.06,1.41-2.11,2.15-3.16l1.18-1.44-1.88-.71c-.61-.22-1.18-.44-1.79-.65l-.49.69c-.74,1.1-1.49,2.15-2.19,3.25-50.45,75.24-40.5,176.41,23.62,240.62A190.06,190.06,0,0,0,457.82,615,181.73,181.73,0,0,0,474,600.51a179.81,179.81,0,0,0,14.32-16l.36-.51C548.91,508.45,542.65,399.78,474,331.25Zm0,0a190.64,190.64,0,0,0-269.17,0c-1.84,1.84-3.73,3.81-5.7,6l-.39.53c.61.22,1.23.4,1.8.66s1.27.44,1.92.61c1.63-1.84,3.33-3.55,5-5.16a186.85,186.85,0,0,1,264.05,0c67.23,67.17,73.44,173.74,14.37,247.88l-.45.57a174.94,174.94,0,0,1-14,15.59,162.53,162.53,0,0,1-15.9,14.19,186.4,186.4,0,0,1-248.06-14.23c-62.89-62.89-72.61-162.17-23.17-236,.7-1.06,1.41-2.11,2.15-3.16l1.18-1.44-1.88-.71c-.61-.22-1.18-.44-1.79-.65l-.49.69c-.74,1.1-1.49,2.15-2.19,3.25-50.45,75.24-40.5,176.41,23.62,240.62A190.06,190.06,0,0,0,457.82,615,181.73,181.73,0,0,0,474,600.51a179.81,179.81,0,0,0,14.32-16l.36-.51C548.91,508.45,542.65,399.78,474,331.25Zm0,0a190.64,190.64,0,0,0-269.17,0c-1.84,1.84-3.73,3.81-5.7,6l-.39.53c.61.22,1.23.4,1.8.66s1.27.44,1.92.61c1.63-1.84,3.33-3.55,5-5.16a186.85,186.85,0,0,1,264.05,0c67.23,67.17,73.44,173.74,14.37,247.88l-.45.57a174.94,174.94,0,0,1-14,15.59,162.53,162.53,0,0,1-15.9,14.19,186.4,186.4,0,0,1-248.06-14.23c-62.89-62.89-72.61-162.17-23.17-236,.7-1.06,1.41-2.11,2.15-3.16l1.18-1.44-1.88-.71c-.61-.22-1.18-.44-1.79-.65l-.49.69c-.74,1.1-1.49,2.15-2.19,3.25-50.45,75.24-40.5,176.41,23.62,240.62A190.06,190.06,0,0,0,457.82,615,181.73,181.73,0,0,0,474,600.51a179.81,179.81,0,0,0,14.32-16l.36-.51C548.91,508.45,542.65,399.78,474,331.25Zm0,0a190.64,190.64,0,0,0-269.17,0c-1.84,1.84-3.73,3.81-5.7,6l-.39.53c.61.22,1.23.4,1.8.66s1.27.44,1.92.61c1.63-1.84,3.33-3.55,5-5.16a186.85,186.85,0,0,1,264.05,0c67.23,67.17,73.44,173.74,14.37,247.88l-.45.57a174.94,174.94,0,0,1-14,15.59,162.53,162.53,0,0,1-15.9,14.19,186.4,186.4,0,0,1-248.06-14.23c-62.89-62.89-72.61-162.17-23.17-236,.7-1.06,1.41-2.11,2.15-3.16l1.18-1.44-1.88-.71c-.61-.22-1.18-.44-1.79-.65l-.49.69c-.74,1.1-1.49,2.15-2.19,3.25-50.45,75.24-40.5,176.41,23.62,240.62A190.06,190.06,0,0,0,457.82,615,181.73,181.73,0,0,0,474,600.51a179.81,179.81,0,0,0,14.32-16l.36-.51C548.91,508.45,542.65,399.78,474,331.25Zm0,0a190.64,190.64,0,0,0-269.17,0c-1.84,1.84-3.73,3.81-5.7,6l-.39.53c.61.22,1.23.4,1.8.66s1.27.44,1.92.61c1.63-1.84,3.33-3.55,5-5.16a186.85,186.85,0,0,1,264.05,0c67.23,67.17,73.44,173.74,14.37,247.88l-.45.57a174.94,174.94,0,0,1-14,15.59,162.53,162.53,0,0,1-15.9,14.19,186.4,186.4,0,0,1-248.06-14.23c-62.89-62.89-72.61-162.17-23.17-236,.7-1.06,1.41-2.11,2.15-3.16l1.18-1.44-1.88-.71c-.61-.22-1.18-.44-1.79-.65l-.49.69c-.74,1.1-1.49,2.15-2.19,3.25-50.45,75.24-40.5,176.41,23.62,240.62A190.06,190.06,0,0,0,457.82,615,181.73,181.73,0,0,0,474,600.51a179.81,179.81,0,0,0,14.32-16l.36-.51C548.91,508.45,542.65,399.78,474,331.25Zm0,0a190.64,190.64,0,0,0-269.17,0c-1.84,1.84-3.73,3.81-5.7,6l-.39.53c.61.22,1.23.4,1.8.66s1.27.44,1.92.61c1.63-1.84,3.33-3.55,5-5.16a186.85,186.85,0,0,1,264.05,0c67.23,67.17,73.44,173.74,14.37,247.88l-.45.57a174.94,174.94,0,0,1-14,15.59,162.53,162.53,0,0,1-15.9,14.19,186.4,186.4,0,0,1-248.06-14.23c-62.89-62.89-72.61-162.17-23.17-236,.7-1.06,1.41-2.11,2.15-3.16l1.18-1.44-1.88-.71c-.61-.22-1.18-.44-1.79-.65l-.49.69c-.74,1.1-1.49,2.15-2.19,3.25-50.45,75.24-40.5,176.41,23.62,240.62A190.06,190.06,0,0,0,457.82,615,181.73,181.73,0,0,0,474,600.51a179.81,179.81,0,0,0,14.32-16l.36-.51C548.91,508.45,542.65,399.78,474,331.25Zm0,0a190.64,190.64,0,0,0-269.17,0c-1.84,1.84-3.73,3.81-5.7,6l-.39.53c.61.22,1.23.4,1.8.66s1.27.44,1.92.61c1.63-1.84,3.33-3.55,5-5.16a186.85,186.85,0,0,1,264.05,0c67.23,67.17,73.44,173.74,14.37,247.88l-.45.57a174.94,174.94,0,0,1-14,15.59,162.53,162.53,0,0,1-15.9,14.19,186.4,186.4,0,0,1-248.06-14.23c-62.89-62.89-72.61-162.17-23.17-236,.7-1.06,1.41-2.11,2.15-3.16l1.18-1.44-1.88-.71c-.61-.22-1.18-.44-1.79-.65l-.49.69c-.74,1.1-1.49,2.15-2.19,3.25-50.45,75.24-40.5,176.41,23.62,240.62A190.06,190.06,0,0,0,457.82,615,181.73,181.73,0,0,0,474,600.51a179.81,179.81,0,0,0,14.32-16l.36-.51C548.91,508.45,542.65,399.78,474,331.25Zm0,0a190.64,190.64,0,0,0-269.17,0c-1.84,1.84-3.73,3.81-5.7,6l-.39.53c.61.22,1.23.4,1.8.66s1.27.44,1.92.61c1.63-1.84,3.33-3.55,5-5.16a186.85,186.85,0,0,1,264.05,0c67.23,67.17,73.44,173.74,14.37,247.88l-.45.57a174.94,174.94,0,0,1-14,15.59,162.53,162.53,0,0,1-15.9,14.19,186.4,186.4,0,0,1-248.06-14.23c-62.89-62.89-72.61-162.17-23.17-236,.7-1.06,1.41-2.11,2.15-3.16l1.18-1.44-1.88-.71c-.61-.22-1.18-.44-1.79-.65l-.49.69c-.74,1.1-1.49,2.15-2.19,3.25-50.45,75.24-40.5,176.41,23.62,240.62A190.06,190.06,0,0,0,457.82,615,181.73,181.73,0,0,0,474,600.51a179.81,179.81,0,0,0,14.32-16l.36-.51C548.91,508.45,542.65,399.78,474,331.25Zm0,0a190.64,190.64,0,0,0-269.17,0c-1.84,1.84-3.73,3.81-5.7,6l-.39.53c.61.22,1.23.4,1.8.66s1.27.44,1.92.61c1.63-1.84,3.33-3.55,5-5.16a186.85,186.85,0,0,1,264.05,0c67.23,67.17,73.44,173.74,14.37,247.88l-.45.57a174.94,174.94,0,0,1-14,15.59,162.53,162.53,0,0,1-15.9,14.19,186.4,186.4,0,0,1-248.06-14.23c-62.89-62.89-72.61-162.17-23.17-236,.7-1.06,1.41-2.11,2.15-3.16l1.18-1.44-1.88-.71c-.61-.22-1.18-.44-1.79-.65l-.49.69c-.74,1.1-1.49,2.15-2.19,3.25-50.45,75.24-40.5,176.41,23.62,240.62A190.06,190.06,0,0,0,457.82,615,181.73,181.73,0,0,0,474,600.51a179.81,179.81,0,0,0,14.32-16l.36-.51C548.91,508.45,542.65,399.78,474,331.25Zm0,0a190.64,190.64,0,0,0-269.17,0c-1.84,1.84-3.73,3.81-5.7,6l-.39.53c.61.22,1.23.4,1.8.66s1.27.44,1.92.61c1.63-1.84,3.33-3.55,5-5.16a186.85,186.85,0,0,1,264.05,0c67.23,67.17,73.44,173.74,14.37,247.88l-.45.57a174.94,174.94,0,0,1-14,15.59,162.53,162.53,0,0,1-15.9,14.19,186.4,186.4,0,0,1-248.06-14.23c-62.89-62.89-72.61-162.17-23.17-236,.7-1.06,1.41-2.11,2.15-3.16l1.18-1.44-1.88-.71c-.61-.22-1.18-.44-1.79-.65l-.49.69c-.74,1.1-1.49,2.15-2.19,3.25-50.45,75.24-40.5,176.41,23.62,240.62A190.06,190.06,0,0,0,457.82,615,181.73,181.73,0,0,0,474,600.51a179.81,179.81,0,0,0,14.32-16l.36-.51C548.91,508.45,542.65,399.78,474,331.25Zm0,0a190.64,190.64,0,0,0-269.17,0c-1.84,1.84-3.73,3.81-5.7,6l-.39.53c.61.22,1.23.4,1.8.66s1.27.44,1.92.61c1.63-1.84,3.33-3.55,5-5.16a186.85,186.85,0,0,1,264.05,0c67.23,67.17,73.44,173.74,14.37,247.88l-.45.57a174.94,174.94,0,0,1-14,15.59,162.53,162.53,0,0,1-15.9,14.19,186.4,186.4,0,0,1-248.06-14.23c-62.89-62.89-72.61-162.17-23.17-236,.7-1.06,1.41-2.11,2.15-3.16l1.18-1.44-1.88-.71c-.61-.22-1.18-.44-1.79-.65l-.49.69c-.74,1.1-1.49,2.15-2.19,3.25-50.45,75.24-40.5,176.41,23.62,240.62A190.06,190.06,0,0,0,457.82,615,181.73,181.73,0,0,0,474,600.51a179.81,179.81,0,0,0,14.32-16l.36-.51C548.91,508.45,542.65,399.78,474,331.25Zm0,0a190.64,190.64,0,0,0-269.17,0c-1.84,1.84-3.73,3.81-5.7,6l-.39.53c.61.22,1.23.4,1.8.66s1.27.44,1.92.61c1.63-1.84,3.33-3.55,5-5.16a186.85,186.85,0,0,1,264.05,0c67.23,67.17,73.44,173.74,14.37,247.88l-.45.57a174.94,174.94,0,0,1-14,15.59,162.53,162.53,0,0,1-15.9,14.19,186.4,186.4,0,0,1-248.06-14.23c-62.89-62.89-72.61-162.17-23.17-236,.7-1.06,1.41-2.11,2.15-3.16l1.18-1.44-1.88-.71c-.61-.22-1.18-.44-1.79-.65l-.49.69c-.74,1.1-1.49,2.15-2.19,3.25-50.45,75.24-40.5,176.41,23.62,240.62A190.06,190.06,0,0,0,457.82,615,181.73,181.73,0,0,0,474,600.51a179.81,179.81,0,0,0,14.32-16l.36-.51C548.91,508.45,542.65,399.78,474,331.25Zm0,0a190.64,190.64,0,0,0-269.17,0c-1.84,1.84-3.73,3.81-5.7,6l-.39.53c.61.22,1.23.4,1.8.66s1.27.44,1.92.61c1.63-1.84,3.33-3.55,5-5.16a186.85,186.85,0,0,1,264.05,0c67.23,67.17,73.44,173.74,14.37,247.88l-.45.57a174.94,174.94,0,0,1-14,15.59,162.53,162.53,0,0,1-15.9,14.19,186.4,186.4,0,0,1-248.06-14.23c-62.89-62.89-72.61-162.17-23.17-236,.7-1.06,1.41-2.11,2.15-3.16l1.18-1.44-1.88-.71c-.61-.22-1.18-.44-1.79-.65l-.49.69c-.74,1.1-1.49,2.15-2.19,3.25-50.45,75.24-40.5,176.41,23.62,240.62A190.06,190.06,0,0,0,457.82,615,181.73,181.73,0,0,0,474,600.51a179.81,179.81,0,0,0,14.32-16l.36-.51C548.91,508.45,542.65,399.78,474,331.25Zm0,0a190.64,190.64,0,0,0-269.17,0c-1.84,1.84-3.73,3.81-5.7,6l-.39.53c.61.22,1.23.4,1.8.66s1.27.44,1.92.61c1.63-1.84,3.33-3.55,5-5.16a186.85,186.85,0,0,1,264.05,0c67.23,67.17,73.44,173.74,14.37,247.88l-.45.57a174.94,174.94,0,0,1-14,15.59,162.53,162.53,0,0,1-15.9,14.19,186.4,186.4,0,0,1-248.06-14.23c-62.89-62.89-72.61-162.17-23.17-236,.7-1.06,1.41-2.11,2.15-3.16l1.18-1.44-1.88-.71c-.61-.22-1.18-.44-1.79-.65l-.49.69c-.74,1.1-1.49,2.15-2.19,3.25-50.45,75.24-40.5,176.41,23.62,240.62A190.06,190.06,0,0,0,457.82,615,181.73,181.73,0,0,0,474,600.51a179.81,179.81,0,0,0,14.32-16l.36-.51C548.91,508.45,542.65,399.78,474,331.25Zm0,0a190.64,190.64,0,0,0-269.17,0c-1.84,1.84-3.73,3.81-5.7,6l-.39.53c.61.22,1.23.4,1.8.66s1.27.44,1.92.61c1.63-1.84,3.33-3.55,5-5.16a186.85,186.85,0,0,1,264.05,0c67.23,67.17,73.44,173.74,14.37,247.88l-.45.57a174.94,174.94,0,0,1-14,15.59,162.53,162.53,0,0,1-15.9,14.19,186.4,186.4,0,0,1-248.06-14.23c-62.89-62.89-72.61-162.17-23.17-236,.7-1.06,1.41-2.11,2.15-3.16l1.18-1.44-1.88-.71c-.61-.22-1.18-.44-1.79-.65l-.49.69c-.74,1.1-1.49,2.15-2.19,3.25-50.45,75.24-40.5,176.41,23.62,240.62A190.06,190.06,0,0,0,457.82,615,181.73,181.73,0,0,0,474,600.51a179.81,179.81,0,0,0,14.32-16l.36-.51C548.91,508.45,542.65,399.78,474,331.25Zm0,0a190.64,190.64,0,0,0-269.17,0c-1.84,1.84-3.73,3.81-5.7,6l-.39.53c.61.22,1.23.4,1.8.66s1.27.44,1.92.61c1.63-1.84,3.33-3.55,5-5.16a186.85,186.85,0,0,1,264.05,0c67.23,67.17,73.44,173.74,14.37,247.88l-.45.57a174.94,174.94,0,0,1-14,15.59,162.53,162.53,0,0,1-15.9,14.19,186.4,186.4,0,0,1-248.06-14.23c-62.89-62.89-72.61-162.17-23.17-236,.7-1.06,1.41-2.11,2.15-3.16l1.18-1.44-1.88-.71c-.61-.22-1.18-.44-1.79-.65l-.49.69c-.74,1.1-1.49,2.15-2.19,3.25-50.45,75.24-40.5,176.41,23.62,240.62A190.06,190.06,0,0,0,457.82,615,181.73,181.73,0,0,0,474,600.51a179.81,179.81,0,0,0,14.32-16l.36-.51C548.91,508.45,542.65,399.78,474,331.25Zm0,0a190.64,190.64,0,0,0-269.17,0c-1.84,1.84-3.73,3.81-5.7,6l-.39.53c.61.22,1.23.4,1.8.66s1.27.44,1.92.61c1.63-1.84,3.33-3.55,5-5.16a186.85,186.85,0,0,1,264.05,0c67.23,67.17,73.44,173.74,14.37,247.88l-.45.57a174.94,174.94,0,0,1-14,15.59,162.53,162.53,0,0,1-15.9,14.19,186.4,186.4,0,0,1-248.06-14.23c-62.89-62.89-72.61-162.17-23.17-236,.7-1.06,1.41-2.11,2.15-3.16l1.18-1.44-1.88-.71c-.61-.22-1.18-.44-1.79-.65l-.49.69c-.74,1.1-1.49,2.15-2.19,3.25-50.45,75.24-40.5,176.41,23.62,240.62A190.06,190.06,0,0,0,457.82,615,181.73,181.73,0,0,0,474,600.51a179.81,179.81,0,0,0,14.32-16l.36-.51C548.91,508.45,542.65,399.78,474,331.25Zm0,0a190.64,190.64,0,0,0-269.17,0c-1.84,1.84-3.73,3.81-5.7,6l-.39.53c.61.22,1.23.4,1.8.66s1.27.44,1.92.61c1.63-1.84,3.33-3.55,5-5.16a186.85,186.85,0,0,1,264.05,0c67.23,67.17,73.44,173.74,14.37,247.88l-.45.57a174.94,174.94,0,0,1-14,15.59,162.53,162.53,0,0,1-15.9,14.19,186.4,186.4,0,0,1-248.06-14.23c-62.89-62.89-72.61-162.17-23.17-236,.7-1.06,1.41-2.11,2.15-3.16l1.18-1.44-1.88-.71c-.61-.22-1.18-.44-1.79-.65l-.49.69c-.74,1.1-1.49,2.15-2.19,3.25-50.45,75.24-40.5,176.41,23.62,240.62A190.06,190.06,0,0,0,457.82,615,181.73,181.73,0,0,0,474,600.51a179.81,179.81,0,0,0,14.32-16l.36-.51C548.91,508.45,542.65,399.78,474,331.25ZM616.71,687.48,532,602.74c-.22-.27-.7-.7-1.36-1.32A234.36,234.36,0,0,0,173.76,300.11c-5,5-9.65,10.07-14,15.19-5.47,6.61-10.55,13.41-15.07,20.15-62.14,92.62-49.92,217.18,29,296.2A233.94,233.94,0,0,0,475.07,657l86.06,86.1a38.76,38.76,0,0,0,27.77,11.43,39.27,39.27,0,0,0,27.81-67Zm-2.54,53a35.82,35.82,0,0,1-50.45,0l-84.79-84.75-3.43-3.59-1.31,1A230.27,230.27,0,0,1,176.3,629c-77.7-77.74-89.7-200.37-28.57-291.56,4.47-6.65,9.51-13.3,14.85-19.79,4.26-5,8.89-10.08,13.75-15a230.69,230.69,0,0,1,350.38,297.9l-1,1.31L528,604a18.63,18.63,0,0,0,1.44,1.36l84.75,84.8a35.68,35.68,0,0,1,0,50.4ZM474,331.25a190.64,190.64,0,0,0-269.17,0c-1.84,1.84-3.73,3.81-5.7,6l-.39.53c.61.22,1.23.4,1.8.66s1.27.44,1.92.61c1.63-1.84,3.33-3.55,5-5.16a186.85,186.85,0,0,1,264.05,0c67.23,67.17,73.44,173.74,14.37,247.88l-.45.57a174.94,174.94,0,0,1-14,15.59,162.53,162.53,0,0,1-15.9,14.19,186.4,186.4,0,0,1-248.06-14.23c-62.89-62.89-72.61-162.17-23.17-236,.7-1.06,1.41-2.11,2.15-3.16l1.18-1.44-1.88-.71c-.61-.22-1.18-.44-1.79-.65l-.49.69c-.74,1.1-1.49,2.15-2.19,3.25-50.45,75.24-40.5,176.41,23.62,240.62A190.06,190.06,0,0,0,457.82,615,181.73,181.73,0,0,0,474,600.51a179.81,179.81,0,0,0,14.32-16l.36-.51C548.91,508.45,542.65,399.78,474,331.25Zm0,0a190.64,190.64,0,0,0-269.17,0c-1.84,1.84-3.73,3.81-5.7,6l-.39.53c.61.22,1.23.4,1.8.66s1.27.44,1.92.61c1.63-1.84,3.33-3.55,5-5.16a186.85,186.85,0,0,1,264.05,0c67.23,67.17,73.44,173.74,14.37,247.88l-.45.57a174.94,174.94,0,0,1-14,15.59,162.53,162.53,0,0,1-15.9,14.19,186.4,186.4,0,0,1-248.06-14.23c-62.89-62.89-72.61-162.17-23.17-236,.7-1.06,1.41-2.11,2.15-3.16l1.18-1.44-1.88-.71c-.61-.22-1.18-.44-1.79-.65l-.49.69c-.74,1.1-1.49,2.15-2.19,3.25-50.45,75.24-40.5,176.41,23.62,240.62A190.06,190.06,0,0,0,457.82,615,181.73,181.73,0,0,0,474,600.51a179.81,179.81,0,0,0,14.32-16l.36-.51C548.91,508.45,542.65,399.78,474,331.25Zm0,0a190.64,190.64,0,0,0-269.17,0c-1.84,1.84-3.73,3.81-5.7,6l-.39.53c.61.22,1.23.4,1.8.66s1.27.44,1.92.61c1.63-1.84,3.33-3.55,5-5.16a186.85,186.85,0,0,1,264.05,0c67.23,67.17,73.44,173.74,14.37,247.88l-.45.57a174.94,174.94,0,0,1-14,15.59,162.53,162.53,0,0,1-15.9,14.19,186.4,186.4,0,0,1-248.06-14.23c-62.89-62.89-72.61-162.17-23.17-236,.7-1.06,1.41-2.11,2.15-3.16l1.18-1.44-1.88-.71c-.61-.22-1.18-.44-1.79-.65l-.49.69c-.74,1.1-1.49,2.15-2.19,3.25-50.45,75.24-40.5,176.41,23.62,240.62A190.06,190.06,0,0,0,457.82,615,181.73,181.73,0,0,0,474,600.51a179.81,179.81,0,0,0,14.32-16l.36-.51C548.91,508.45,542.65,399.78,474,331.25Zm0,0a190.64,190.64,0,0,0-269.17,0c-1.84,1.84-3.73,3.81-5.7,6l-.39.53c.61.22,1.23.4,1.8.66s1.27.44,1.92.61c1.63-1.84,3.33-3.55,5-5.16a186.85,186.85,0,0,1,264.05,0c67.23,67.17,73.44,173.74,14.37,247.88l-.45.57a174.94,174.94,0,0,1-14,15.59,162.53,162.53,0,0,1-15.9,14.19,186.4,186.4,0,0,1-248.06-14.23c-62.89-62.89-72.61-162.17-23.17-236,.7-1.06,1.41-2.11,2.15-3.16l1.18-1.44-1.88-.71c-.61-.22-1.18-.44-1.79-.65l-.49.69c-.74,1.1-1.49,2.15-2.19,3.25-50.45,75.24-40.5,176.41,23.62,240.62A190.06,190.06,0,0,0,457.82,615,181.73,181.73,0,0,0,474,600.51a179.81,179.81,0,0,0,14.32-16l.36-.51C548.91,508.45,542.65,399.78,474,331.25Zm0,0a190.64,190.64,0,0,0-269.17,0c-1.84,1.84-3.73,3.81-5.7,6l-.39.53c.61.22,1.23.4,1.8.66s1.27.44,1.92.61c1.63-1.84,3.33-3.55,5-5.16a186.85,186.85,0,0,1,264.05,0c67.23,67.17,73.44,173.74,14.37,247.88l-.45.57a174.94,174.94,0,0,1-14,15.59,162.53,162.53,0,0,1-15.9,14.19,186.4,186.4,0,0,1-248.06-14.23c-62.89-62.89-72.61-162.17-23.17-236,.7-1.06,1.41-2.11,2.15-3.16l1.18-1.44-1.88-.71c-.61-.22-1.18-.44-1.79-.65l-.49.69c-.74,1.1-1.49,2.15-2.19,3.25-50.45,75.24-40.5,176.41,23.62,240.62A190.06,190.06,0,0,0,457.82,615,181.73,181.73,0,0,0,474,600.51a179.81,179.81,0,0,0,14.32-16l.36-.51C548.91,508.45,542.65,399.78,474,331.25Zm0,0a190.64,190.64,0,0,0-269.17,0c-1.84,1.84-3.73,3.81-5.7,6l-.39.53c.61.22,1.23.4,1.8.66s1.27.44,1.92.61c1.63-1.84,3.33-3.55,5-5.16a186.85,186.85,0,0,1,264.05,0c67.23,67.17,73.44,173.74,14.37,247.88l-.45.57a174.94,174.94,0,0,1-14,15.59,162.53,162.53,0,0,1-15.9,14.19,186.4,186.4,0,0,1-248.06-14.23c-62.89-62.89-72.61-162.17-23.17-236,.7-1.06,1.41-2.11,2.15-3.16l1.18-1.44-1.88-.71c-.61-.22-1.18-.44-1.79-.65l-.49.69c-.74,1.1-1.49,2.15-2.19,3.25-50.45,75.24-40.5,176.41,23.62,240.62A190.06,190.06,0,0,0,457.82,615,181.73,181.73,0,0,0,474,600.51a179.81,179.81,0,0,0,14.32-16l.36-.51C548.91,508.45,542.65,399.78,474,331.25Zm0,0a190.64,190.64,0,0,0-269.17,0c-1.84,1.84-3.73,3.81-5.7,6l-.39.53c.61.22,1.23.4,1.8.66s1.27.44,1.92.61c1.63-1.84,3.33-3.55,5-5.16a186.85,186.85,0,0,1,264.05,0c67.23,67.17,73.44,173.74,14.37,247.88l-.45.57a174.94,174.94,0,0,1-14,15.59,162.53,162.53,0,0,1-15.9,14.19,186.4,186.4,0,0,1-248.06-14.23c-62.89-62.89-72.61-162.17-23.17-236,.7-1.06,1.41-2.11,2.15-3.16l1.18-1.44-1.88-.71c-.61-.22-1.18-.44-1.79-.65l-.49.69c-.74,1.1-1.49,2.15-2.19,3.25-50.45,75.24-40.5,176.41,23.62,240.62A190.06,190.06,0,0,0,457.82,615,181.73,181.73,0,0,0,474,600.51a179.81,179.81,0,0,0,14.32-16l.36-.51C548.91,508.45,542.65,399.78,474,331.25Zm0,0a190.64,190.64,0,0,0-269.17,0c-1.84,1.84-3.73,3.81-5.7,6l-.39.53c.61.22,1.23.4,1.8.66s1.27.44,1.92.61c1.63-1.84,3.33-3.55,5-5.16a186.85,186.85,0,0,1,264.05,0c67.23,67.17,73.44,173.74,14.37,247.88l-.45.57a174.94,174.94,0,0,1-14,15.59,162.53,162.53,0,0,1-15.9,14.19,186.4,186.4,0,0,1-248.06-14.23c-62.89-62.89-72.61-162.17-23.17-236,.7-1.06,1.41-2.11,2.15-3.16l1.18-1.44-1.88-.71c-.61-.22-1.18-.44-1.79-.65l-.49.69c-.74,1.1-1.49,2.15-2.19,3.25-50.45,75.24-40.5,176.41,23.62,240.62A190.06,190.06,0,0,0,457.82,615,181.73,181.73,0,0,0,474,600.51a179.81,179.81,0,0,0,14.32-16l.36-.51C548.91,508.45,542.65,399.78,474,331.25Zm0,0a190.64,190.64,0,0,0-269.17,0c-1.84,1.84-3.73,3.81-5.7,6l-.39.53c.61.22,1.23.4,1.8.66s1.27.44,1.92.61c1.63-1.84,3.33-3.55,5-5.16a186.85,186.85,0,0,1,264.05,0c67.23,67.17,73.44,173.74,14.37,247.88l-.45.57a174.94,174.94,0,0,1-14,15.59,162.53,162.53,0,0,1-15.9,14.19,186.4,186.4,0,0,1-248.06-14.23c-62.89-62.89-72.61-162.17-23.17-236,.7-1.06,1.41-2.11,2.15-3.16l1.18-1.44-1.88-.71c-.61-.22-1.18-.44-1.79-.65l-.49.69c-.74,1.1-1.49,2.15-2.19,3.25-50.45,75.24-40.5,176.41,23.62,240.62A190.06,190.06,0,0,0,457.82,615,181.73,181.73,0,0,0,474,600.51a179.81,179.81,0,0,0,14.32-16l.36-.51C548.91,508.45,542.65,399.78,474,331.25Zm0,0a190.64,190.64,0,0,0-269.17,0c-1.84,1.84-3.73,3.81-5.7,6l-.39.53c.61.22,1.23.4,1.8.66s1.27.44,1.92.61c1.63-1.84,3.33-3.55,5-5.16a186.85,186.85,0,0,1,264.05,0c67.23,67.17,73.44,173.74,14.37,247.88l-.45.57a174.94,174.94,0,0,1-14,15.59,162.53,162.53,0,0,1-15.9,14.19,186.4,186.4,0,0,1-248.06-14.23c-62.89-62.89-72.61-162.17-23.17-236,.7-1.06,1.41-2.11,2.15-3.16l1.18-1.44-1.88-.71c-.61-.22-1.18-.44-1.79-.65l-.49.69c-.74,1.1-1.49,2.15-2.19,3.25-50.45,75.24-40.5,176.41,23.62,240.62A190.06,190.06,0,0,0,457.82,615,181.73,181.73,0,0,0,474,600.51a179.81,179.81,0,0,0,14.32-16l.36-.51C548.91,508.45,542.65,399.78,474,331.25Zm0,0a190.64,190.64,0,0,0-269.17,0c-1.84,1.84-3.73,3.81-5.7,6l-.39.53c.61.22,1.23.4,1.8.66s1.27.44,1.92.61c1.63-1.84,3.33-3.55,5-5.16a186.85,186.85,0,0,1,264.05,0c67.23,67.17,73.44,173.74,14.37,247.88l-.45.57a174.94,174.94,0,0,1-14,15.59,162.53,162.53,0,0,1-15.9,14.19,186.4,186.4,0,0,1-248.06-14.23c-62.89-62.89-72.61-162.17-23.17-236,.7-1.06,1.41-2.11,2.15-3.16l1.18-1.44-1.88-.71c-.61-.22-1.18-.44-1.79-.65l-.49.69c-.74,1.1-1.49,2.15-2.19,3.25-50.45,75.24-40.5,176.41,23.62,240.62A190.06,190.06,0,0,0,457.82,615,181.73,181.73,0,0,0,474,600.51a179.81,179.81,0,0,0,14.32-16l.36-.51C548.91,508.45,542.65,399.78,474,331.25Zm0,0a190.64,190.64,0,0,0-269.17,0c-1.84,1.84-3.73,3.81-5.7,6l-.39.53c.61.22,1.23.4,1.8.66s1.27.44,1.92.61c1.63-1.84,3.33-3.55,5-5.16a186.85,186.85,0,0,1,264.05,0c67.23,67.17,73.44,173.74,14.37,247.88l-.45.57a174.94,174.94,0,0,1-14,15.59,162.53,162.53,0,0,1-15.9,14.19,186.4,186.4,0,0,1-248.06-14.23c-62.89-62.89-72.61-162.17-23.17-236,.7-1.06,1.41-2.11,2.15-3.16l1.18-1.44-1.88-.71c-.61-.22-1.18-.44-1.79-.65l-.49.69c-.74,1.1-1.49,2.15-2.19,3.25-50.45,75.24-40.5,176.41,23.62,240.62A190.06,190.06,0,0,0,457.82,615,181.73,181.73,0,0,0,474,600.51a179.81,179.81,0,0,0,14.32-16l.36-.51C548.91,508.45,542.65,399.78,474,331.25Zm0,0a190.64,190.64,0,0,0-269.17,0c-1.84,1.84-3.73,3.81-5.7,6l-.39.53c.61.22,1.23.4,1.8.66s1.27.44,1.92.61c1.63-1.84,3.33-3.55,5-5.16a186.85,186.85,0,0,1,264.05,0c67.23,67.17,73.44,173.74,14.37,247.88l-.45.57a174.94,174.94,0,0,1-14,15.59,162.53,162.53,0,0,1-15.9,14.19,186.4,186.4,0,0,1-248.06-14.23c-62.89-62.89-72.61-162.17-23.17-236,.7-1.06,1.41-2.11,2.15-3.16l1.18-1.44-1.88-.71c-.61-.22-1.18-.44-1.79-.65l-.49.69c-.74,1.1-1.49,2.15-2.19,3.25-50.45,75.24-40.5,176.41,23.62,240.62A190.06,190.06,0,0,0,457.82,615,181.73,181.73,0,0,0,474,600.51a179.81,179.81,0,0,0,14.32-16l.36-.51C548.91,508.45,542.65,399.78,474,331.25Zm0,0a190.64,190.64,0,0,0-269.17,0c-1.84,1.84-3.73,3.81-5.7,6l-.39.53c.61.22,1.23.4,1.8.66s1.27.44,1.92.61c1.63-1.84,3.33-3.55,5-5.16a186.85,186.85,0,0,1,264.05,0c67.23,67.17,73.44,173.74,14.37,247.88l-.45.57a174.94,174.94,0,0,1-14,15.59,162.53,162.53,0,0,1-15.9,14.19,186.4,186.4,0,0,1-248.06-14.23c-62.89-62.89-72.61-162.17-23.17-236,.7-1.06,1.41-2.11,2.15-3.16l1.18-1.44-1.88-.71c-.61-.22-1.18-.44-1.79-.65l-.49.69c-.74,1.1-1.49,2.15-2.19,3.25-50.45,75.24-40.5,176.41,23.62,240.62A190.06,190.06,0,0,0,457.82,615,181.73,181.73,0,0,0,474,600.51a179.81,179.81,0,0,0,14.32-16l.36-.51C548.91,508.45,542.65,399.78,474,331.25Zm0,0a190.64,190.64,0,0,0-269.17,0c-1.84,1.84-3.73,3.81-5.7,6l-.39.53c.61.22,1.23.4,1.8.66s1.27.44,1.92.61c1.63-1.84,3.33-3.55,5-5.16a186.85,186.85,0,0,1,264.05,0c67.23,67.17,73.44,173.74,14.37,247.88l-.45.57a174.94,174.94,0,0,1-14,15.59,162.53,162.53,0,0,1-15.9,14.19,186.4,186.4,0,0,1-248.06-14.23c-62.89-62.89-72.61-162.17-23.17-236,.7-1.06,1.41-2.11,2.15-3.16l1.18-1.44-1.88-.71c-.61-.22-1.18-.44-1.79-.65l-.49.69c-.74,1.1-1.49,2.15-2.19,3.25-50.45,75.24-40.5,176.41,23.62,240.62A190.06,190.06,0,0,0,457.82,615,181.73,181.73,0,0,0,474,600.51a179.81,179.81,0,0,0,14.32-16l.36-.51C548.91,508.45,542.65,399.78,474,331.25Zm0,0a190.64,190.64,0,0,0-269.17,0c-1.84,1.84-3.73,3.81-5.7,6l-.39.53c.61.22,1.23.4,1.8.66s1.27.44,1.92.61c1.63-1.84,3.33-3.55,5-5.16a186.85,186.85,0,0,1,264.05,0c67.23,67.17,73.44,173.74,14.37,247.88l-.45.57a174.94,174.94,0,0,1-14,15.59,162.53,162.53,0,0,1-15.9,14.19,186.4,186.4,0,0,1-248.06-14.23c-62.89-62.89-72.61-162.17-23.17-236,.7-1.06,1.41-2.11,2.15-3.16l1.18-1.44-1.88-.71c-.61-.22-1.18-.44-1.79-.65l-.49.69c-.74,1.1-1.49,2.15-2.19,3.25-50.45,75.24-40.5,176.41,23.62,240.62A190.06,190.06,0,0,0,457.82,615,181.73,181.73,0,0,0,474,600.51a179.81,179.81,0,0,0,14.32-16l.36-.51C548.91,508.45,542.65,399.78,474,331.25Zm0,0a190.64,190.64,0,0,0-269.17,0c-1.84,1.84-3.73,3.81-5.7,6l-.39.53c.61.22,1.23.4,1.8.66s1.27.44,1.92.61c1.63-1.84,3.33-3.55,5-5.16a186.85,186.85,0,0,1,264.05,0c67.23,67.17,73.44,173.74,14.37,247.88l-.45.57a174.94,174.94,0,0,1-14,15.59,162.53,162.53,0,0,1-15.9,14.19,186.4,186.4,0,0,1-248.06-14.23c-62.89-62.89-72.61-162.17-23.17-236,.7-1.06,1.41-2.11,2.15-3.16l1.18-1.44-1.88-.71c-.61-.22-1.18-.44-1.79-.65l-.49.69c-.74,1.1-1.49,2.15-2.19,3.25-50.45,75.24-40.5,176.41,23.62,240.62A190.06,190.06,0,0,0,457.82,615,181.73,181.73,0,0,0,474,600.51a179.81,179.81,0,0,0,14.32-16l.36-.51C548.91,508.45,542.65,399.78,474,331.25Zm0,0a190.64,190.64,0,0,0-269.17,0c-1.84,1.84-3.73,3.81-5.7,6l-.39.53c.61.22,1.23.4,1.8.66s1.27.44,1.92.61c1.63-1.84,3.33-3.55,5-5.16a186.85,186.85,0,0,1,264.05,0c67.23,67.17,73.44,173.74,14.37,247.88l-.45.57a174.94,174.94,0,0,1-14,15.59,162.53,162.53,0,0,1-15.9,14.19,186.4,186.4,0,0,1-248.06-14.23c-62.89-62.89-72.61-162.17-23.17-236,.7-1.06,1.41-2.11,2.15-3.16l1.18-1.44-1.88-.71c-.61-.22-1.18-.44-1.79-.65l-.49.69c-.74,1.1-1.49,2.15-2.19,3.25-50.45,75.24-40.5,176.41,23.62,240.62A190.06,190.06,0,0,0,457.82,615,181.73,181.73,0,0,0,474,600.51a179.81,179.81,0,0,0,14.32-16l.36-.51C548.91,508.45,542.65,399.78,474,331.25Zm0,0a190.64,190.64,0,0,0-269.17,0c-1.84,1.84-3.73,3.81-5.7,6l-.39.53c.61.22,1.23.4,1.8.66s1.27.44,1.92.61c1.63-1.84,3.33-3.55,5-5.16a186.85,186.85,0,0,1,264.05,0c67.23,67.17,73.44,173.74,14.37,247.88l-.45.57a174.94,174.94,0,0,1-14,15.59,162.53,162.53,0,0,1-15.9,14.19,186.4,186.4,0,0,1-248.06-14.23c-62.89-62.89-72.61-162.17-23.17-236,.7-1.06,1.41-2.11,2.15-3.16l1.18-1.44-1.88-.71c-.61-.22-1.18-.44-1.79-.65l-.49.69c-.74,1.1-1.49,2.15-2.19,3.25-50.45,75.24-40.5,176.41,23.62,240.62A190.06,190.06,0,0,0,457.82,615,181.73,181.73,0,0,0,474,600.51a179.81,179.81,0,0,0,14.32-16l.36-.51C548.91,508.45,542.65,399.78,474,331.25Zm0,0a190.64,190.64,0,0,0-269.17,0c-1.84,1.84-3.73,3.81-5.7,6l-.39.53c.61.22,1.23.4,1.8.66s1.27.44,1.92.61c1.63-1.84,3.33-3.55,5-5.16a186.85,186.85,0,0,1,264.05,0c67.23,67.17,73.44,173.74,14.37,247.88l-.45.57a174.94,174.94,0,0,1-14,15.59,162.53,162.53,0,0,1-15.9,14.19,186.4,186.4,0,0,1-248.06-14.23c-62.89-62.89-72.61-162.17-23.17-236,.7-1.06,1.41-2.11,2.15-3.16l1.18-1.44-1.88-.71c-.61-.22-1.18-.44-1.79-.65l-.49.69c-.74,1.1-1.49,2.15-2.19,3.25-50.45,75.24-40.5,176.41,23.62,240.62A190.06,190.06,0,0,0,457.82,615,181.73,181.73,0,0,0,474,600.51a179.81,179.81,0,0,0,14.32-16l.36-.51C548.91,508.45,542.65,399.78,474,331.25Zm0,0a190.64,190.64,0,0,0-269.17,0c-1.84,1.84-3.73,3.81-5.7,6l-.39.53c.61.22,1.23.4,1.8.66s1.27.44,1.92.61c1.63-1.84,3.33-3.55,5-5.16a186.85,186.85,0,0,1,264.05,0c67.23,67.17,73.44,173.74,14.37,247.88l-.45.57a174.94,174.94,0,0,1-14,15.59,162.53,162.53,0,0,1-15.9,14.19,186.4,186.4,0,0,1-248.06-14.23c-62.89-62.89-72.61-162.17-23.17-236,.7-1.06,1.41-2.11,2.15-3.16l1.18-1.44-1.88-.71c-.61-.22-1.18-.44-1.79-.65l-.49.69c-.74,1.1-1.49,2.15-2.19,3.25-50.45,75.24-40.5,176.41,23.62,240.62A190.06,190.06,0,0,0,457.82,615,181.73,181.73,0,0,0,474,600.51a179.81,179.81,0,0,0,14.32-16l.36-.51C548.91,508.45,542.65,399.78,474,331.25Zm0,0a190.64,190.64,0,0,0-269.17,0c-1.84,1.84-3.73,3.81-5.7,6l-.39.53c.61.22,1.23.4,1.8.66s1.27.44,1.92.61c1.63-1.84,3.33-3.55,5-5.16a186.85,186.85,0,0,1,264.05,0c67.23,67.17,73.44,173.74,14.37,247.88l-.45.57a174.94,174.94,0,0,1-14,15.59,162.53,162.53,0,0,1-15.9,14.19,186.4,186.4,0,0,1-248.06-14.23c-62.89-62.89-72.61-162.17-23.17-236,.7-1.06,1.41-2.11,2.15-3.16l1.18-1.44-1.88-.71c-.61-.22-1.18-.44-1.79-.65l-.49.69c-.74,1.1-1.49,2.15-2.19,3.25-50.45,75.24-40.5,176.41,23.62,240.62A190.06,190.06,0,0,0,457.82,615,181.73,181.73,0,0,0,474,600.51a179.81,179.81,0,0,0,14.32-16l.36-.51C548.91,508.45,542.65,399.78,474,331.25Zm0,0a190.64,190.64,0,0,0-269.17,0c-1.84,1.84-3.73,3.81-5.7,6l-.39.53c.61.22,1.23.4,1.8.66s1.27.44,1.92.61c1.63-1.84,3.33-3.55,5-5.16a186.85,186.85,0,0,1,264.05,0c67.23,67.17,73.44,173.74,14.37,247.88l-.45.57a174.94,174.94,0,0,1-14,15.59,162.53,162.53,0,0,1-15.9,14.19,186.4,186.4,0,0,1-248.06-14.23c-62.89-62.89-72.61-162.17-23.17-236,.7-1.06,1.41-2.11,2.15-3.16l1.18-1.44-1.88-.71c-.61-.22-1.18-.44-1.79-.65l-.49.69c-.74,1.1-1.49,2.15-2.19,3.25-50.45,75.24-40.5,176.41,23.62,240.62A190.06,190.06,0,0,0,457.82,615,181.73,181.73,0,0,0,474,600.51a179.81,179.81,0,0,0,14.32-16l.36-.51C548.91,508.45,542.65,399.78,474,331.25Zm0,0a190.64,190.64,0,0,0-269.17,0c-1.84,1.84-3.73,3.81-5.7,6l-.39.53c.61.22,1.23.4,1.8.66s1.27.44,1.92.61c1.63-1.84,3.33-3.55,5-5.16a186.85,186.85,0,0,1,264.05,0c67.23,67.17,73.44,173.74,14.37,247.88l-.45.57a174.94,174.94,0,0,1-14,15.59,162.53,162.53,0,0,1-15.9,14.19,186.4,186.4,0,0,1-248.06-14.23c-62.89-62.89-72.61-162.17-23.17-236,.7-1.06,1.41-2.11,2.15-3.16l1.18-1.44-1.88-.71c-.61-.22-1.18-.44-1.79-.65l-.49.69c-.74,1.1-1.49,2.15-2.19,3.25-50.45,75.24-40.5,176.41,23.62,240.62A190.06,190.06,0,0,0,457.82,615,181.73,181.73,0,0,0,474,600.51a179.81,179.81,0,0,0,14.32-16l.36-.51C548.91,508.45,542.65,399.78,474,331.25Zm0,0a190.64,190.64,0,0,0-269.17,0c-1.84,1.84-3.73,3.81-5.7,6l-.39.53c.61.22,1.23.4,1.8.66s1.27.44,1.92.61c1.63-1.84,3.33-3.55,5-5.16a186.85,186.85,0,0,1,264.05,0c67.23,67.17,73.44,173.74,14.37,247.88l-.45.57a174.94,174.94,0,0,1-14,15.59,162.53,162.53,0,0,1-15.9,14.19,186.4,186.4,0,0,1-248.06-14.23c-62.89-62.89-72.61-162.17-23.17-236,.7-1.06,1.41-2.11,2.15-3.16l1.18-1.44-1.88-.71c-.61-.22-1.18-.44-1.79-.65l-.49.69c-.74,1.1-1.49,2.15-2.19,3.25-50.45,75.24-40.5,176.41,23.62,240.62A190.06,190.06,0,0,0,457.82,615,181.73,181.73,0,0,0,474,600.51a179.81,179.81,0,0,0,14.32-16l.36-.51C548.91,508.45,542.65,399.78,474,331.25Z"/><path class="cls-1" d="M607.68,696.56l-84.75-84.72c-1.22-1.22-9.27-8.67-9.27-8.67l3.54-5.08A221.56,221.56,0,0,0,182.82,309.17c-4.77,4.78-9.15,9.64-13.18,14.37-5.26,6.35-10,12.74-14.28,19-58.69,87.58-47.18,205.31,27.41,280a221.2,221.2,0,0,0,289,21l5.08-3.51s7.45,8.1,8.58,9.25L570.15,734a26.52,26.52,0,1,0,37.53-37.48ZM495.48,590.3A208.39,208.39,0,0,1,480.58,607a190.4,190.4,0,0,1-17,15.19A199.24,199.24,0,0,1,198.41,607c-67.23-67.26-77.7-173.33-24.79-252.18.48-.65,1-1.39,1.49-2.14,2.94,1.06,5.86,2.14,8.85,3.29.61.21,1.18.43,1.79.65l1.88.71c22.64,8.53,48.66,18,81.59,25.31,25.67,5.69,44.38.26,57.86-9.16L252.5,585h-11c12.18,23.38,53.34,40.65,102.3,40.65h.4c48.92,0,90.09-17.27,102.31-40.65h-11L351,345.43a103,103,0,0,0,6.35-14.85h0a15.15,15.15,0,0,0,2.46-8.32c0-8.92-7.63-16.13-17-16.13s-17.06,7.21-17.06,16.13c0,8,6.09,14.59,14.12,15.87-9.29,15.33-30.44,38.75-67.57,25.36-19.36-6.93-45-15.91-69.77-24.45-.65-.17-1.27-.44-1.92-.61s-1.19-.44-1.8-.66l-9.5-3.33c2.93-3.24,6-6.52,9.1-9.63A199.53,199.53,0,0,1,495.74,590Zm-160-223.79v0h0a69.91,69.91,0,0,0,5.5-6V585H258.19ZM346.92,585V351l.36.87L429.7,585Z"/></svg>