<svg id="Layer_1" data-name="Layer 1" xmlns="http://www.w3.org/2000/svg" viewBox="0 0 1000 1000"><defs><style>.cls-1{fill:#fff;}</style></defs><path class="cls-1" d="M693.48,208.27C628.88,143.59,542.75,108,451,108s-178.07,35.6-242.81,100.28c-3.32,3.32-6.73,6.87-10.27,10.81l-.71.95c1.1.39,2.21.72,3.24,1.2,1.18.31,2.29.78,3.47,1.09,2.93-3.32,6-6.4,8.93-9.3,63.49-63.51,148-98.49,238.15-98.49S625.5,149.51,688.9,213C810.12,334.13,821.32,526.27,714.81,660l-.8,1a315.88,315.88,0,0,1-25.19,28.11,296.38,296.38,0,0,1-28.67,25.58A336.06,336.06,0,0,1,212.89,689C99.51,575.63,82,396.61,171.12,263.55c1.26-1.9,2.54-3.79,3.88-5.69l2.12-2.6c-1.09-.39-2.29-.87-3.4-1.28l-3.22-1.18-.88,1.26c-1.34,2-2.69,3.88-3.94,5.86-91,135.66-73,318.06,42.57,433.83a342.72,342.72,0,0,0,456,26.14,326.71,326.71,0,0,0,29.2-26.14,323.43,323.43,0,0,0,25.83-28.83L720,664C828.52,527.77,817.22,331.84,693.48,208.27Zm0,0C628.88,143.59,542.75,108,451,108s-178.07,35.6-242.81,100.28c-3.32,3.32-6.73,6.87-10.27,10.81l-.71.95c1.1.39,2.21.72,3.24,1.2,1.18.31,2.29.78,3.47,1.09,2.93-3.32,6-6.4,8.93-9.3,63.49-63.51,148-98.49,238.15-98.49S625.5,149.51,688.9,213C810.12,334.13,821.32,526.27,714.81,660l-.8,1a315.88,315.88,0,0,1-25.19,28.11,296.38,296.38,0,0,1-28.67,25.58A336.06,336.06,0,0,1,212.89,689C99.51,575.63,82,396.61,171.12,263.55c1.26-1.9,2.54-3.79,3.88-5.69l2.12-2.6c-1.09-.39-2.29-.87-3.4-1.28l-3.22-1.18-.88,1.26c-1.34,2-2.69,3.88-3.94,5.86-91,135.66-73,318.06,42.57,433.83a342.72,342.72,0,0,0,456,26.14,326.71,326.71,0,0,0,29.2-26.14,323.43,323.43,0,0,0,25.83-28.83L720,664C828.52,527.77,817.22,331.84,693.48,208.27Zm0,0C628.88,143.59,542.75,108,451,108s-178.07,35.6-242.81,100.28c-3.32,3.32-6.73,6.87-10.27,10.81l-.71.95c1.1.39,2.21.72,3.24,1.2,1.18.31,2.29.78,3.47,1.09,2.93-3.32,6-6.4,8.93-9.3,63.49-63.51,148-98.49,238.15-98.49S625.5,149.51,688.9,213C810.12,334.13,821.32,526.27,714.81,660l-.8,1a315.88,315.88,0,0,1-25.19,28.11,296.38,296.38,0,0,1-28.67,25.58A336.06,336.06,0,0,1,212.89,689C99.51,575.63,82,396.61,171.12,263.55c1.26-1.9,2.54-3.79,3.88-5.69l2.12-2.6c-1.09-.39-2.29-.87-3.4-1.28l-3.22-1.18-.88,1.26c-1.34,2-2.69,3.88-3.94,5.86-91,135.66-73,318.06,42.57,433.83a342.72,342.72,0,0,0,456,26.14,326.71,326.71,0,0,0,29.2-26.14,323.43,323.43,0,0,0,25.83-28.83L720,664C828.52,527.77,817.22,331.84,693.48,208.27Zm0,0C628.88,143.59,542.75,108,451,108s-178.07,35.6-242.81,100.28c-3.32,3.32-6.73,6.87-10.27,10.81l-.71.95c1.1.39,2.21.72,3.24,1.2,1.18.31,2.29.78,3.47,1.09,2.93-3.32,6-6.4,8.93-9.3,63.49-63.51,148-98.49,238.15-98.49S625.5,149.51,688.9,213C810.12,334.13,821.32,526.27,714.81,660l-.8,1a315.88,315.88,0,0,1-25.19,28.11,296.38,296.38,0,0,1-28.67,25.58A336.06,336.06,0,0,1,212.89,689C99.51,575.63,82,396.61,171.12,263.55c1.26-1.9,2.54-3.79,3.88-5.69l2.12-2.6c-1.09-.39-2.29-.87-3.4-1.28l-3.22-1.18-.88,1.26c-1.34,2-2.69,3.88-3.94,5.86-91,135.66-73,318.06,42.57,433.83a342.72,342.72,0,0,0,456,26.14,326.71,326.71,0,0,0,29.2-26.14,323.43,323.43,0,0,0,25.83-28.83L720,664C828.52,527.77,817.22,331.84,693.48,208.27Zm0,0C628.88,143.59,542.75,108,451,108s-178.07,35.6-242.81,100.28c-3.32,3.32-6.73,6.87-10.27,10.81l-.71.95c1.1.39,2.21.72,3.24,1.2,1.18.31,2.29.78,3.47,1.09,2.93-3.32,6-6.4,8.93-9.3,63.49-63.51,148-98.49,238.15-98.49S625.5,149.51,688.9,213C810.12,334.13,821.32,526.27,714.81,660l-.8,1a315.88,315.88,0,0,1-25.19,28.11,296.38,296.38,0,0,1-28.67,25.58A336.06,336.06,0,0,1,212.89,689C99.51,575.63,82,396.61,171.12,263.55c1.26-1.9,2.54-3.79,3.88-5.69l2.12-2.6c-1.09-.39-2.29-.87-3.4-1.28l-3.22-1.18-.88,1.26c-1.34,2-2.69,3.88-3.94,5.86-91,135.66-73,318.06,42.57,433.83a342.72,342.72,0,0,0,456,26.14,326.71,326.71,0,0,0,29.2-26.14,323.43,323.43,0,0,0,25.83-28.83L720,664C828.52,527.77,817.22,331.84,693.48,208.27Zm0,0C628.88,143.59,542.75,108,451,108s-178.07,35.6-242.81,100.28c-3.32,3.32-6.73,6.87-10.27,10.81l-.71.95c1.1.39,2.21.72,3.24,1.2,1.18.31,2.29.78,3.47,1.09,2.93-3.32,6-6.4,8.93-9.3,63.49-63.51,148-98.49,238.15-98.49S625.5,149.51,688.9,213C810.12,334.13,821.32,526.27,714.81,660l-.8,1a315.88,315.88,0,0,1-25.19,28.11,296.38,296.38,0,0,1-28.67,25.58A336.06,336.06,0,0,1,212.89,689C99.51,575.63,82,396.61,171.12,263.55c1.26-1.9,2.54-3.79,3.88-5.69l2.12-2.6c-1.09-.39-2.29-.87-3.4-1.28l-3.22-1.18-.88,1.26c-1.34,2-2.69,3.88-3.94,5.86-91,135.66-73,318.06,42.57,433.83a342.72,342.72,0,0,0,456,26.14,326.71,326.71,0,0,0,29.2-26.14,323.43,323.43,0,0,0,25.83-28.83L720,664C828.52,527.77,817.22,331.84,693.48,208.27Zm0,0C628.88,143.59,542.75,108,451,108s-178.07,35.6-242.81,100.28c-3.32,3.32-6.73,6.87-10.27,10.81l-.71.95c1.1.39,2.21.72,3.24,1.2,1.18.31,2.29.78,3.47,1.09,2.93-3.32,6-6.4,8.93-9.3,63.49-63.51,148-98.49,238.15-98.49S625.5,149.51,688.9,213C810.12,334.13,821.32,526.27,714.81,660l-.8,1a315.88,315.88,0,0,1-25.19,28.11,296.38,296.38,0,0,1-28.67,25.58A336.06,336.06,0,0,1,212.89,689C99.51,575.63,82,396.61,171.12,263.55c1.26-1.9,2.54-3.79,3.88-5.69l2.12-2.6c-1.09-.39-2.29-.87-3.4-1.28l-3.22-1.18-.88,1.26c-1.34,2-2.69,3.88-3.94,5.86-91,135.66-73,318.06,42.57,433.83a342.72,342.72,0,0,0,456,26.14,326.71,326.71,0,0,0,29.2-26.14,323.43,323.43,0,0,0,25.83-28.83L720,664C828.52,527.77,817.22,331.84,693.48,208.27Zm0,0C628.88,143.59,542.75,108,451,108s-178.07,35.6-242.81,100.28c-3.32,3.32-6.73,6.87-10.27,10.81l-.71.95c1.1.39,2.21.72,3.24,1.2,1.18.31,2.29.78,3.47,1.09,2.93-3.32,6-6.4,8.93-9.3,63.49-63.51,148-98.49,238.15-98.49S625.5,149.51,688.9,213C810.12,334.13,821.32,526.27,714.81,660l-.8,1a315.88,315.88,0,0,1-25.19,28.11,296.38,296.38,0,0,1-28.67,25.58A336.06,336.06,0,0,1,212.89,689C99.51,575.63,82,396.61,171.12,263.55c1.26-1.9,2.54-3.79,3.88-5.69l2.12-2.6c-1.09-.39-2.29-.87-3.4-1.28l-3.22-1.18-.88,1.26c-1.34,2-2.69,3.88-3.94,5.86-91,135.66-73,318.06,42.57,433.83a342.72,342.72,0,0,0,456,26.14,326.71,326.71,0,0,0,29.2-26.14,323.43,323.43,0,0,0,25.83-28.83L720,664C828.52,527.77,817.22,331.84,693.48,208.27Zm0,0C628.88,143.59,542.75,108,451,108s-178.07,35.6-242.81,100.28c-3.32,3.32-6.73,6.87-10.27,10.81l-.71.95c1.1.39,2.21.72,3.24,1.2,1.18.31,2.29.78,3.47,1.09,2.93-3.32,6-6.4,8.93-9.3,63.49-63.51,148-98.49,238.15-98.49S625.5,149.51,688.9,213C810.12,334.13,821.32,526.27,714.81,660l-.8,1a315.88,315.88,0,0,1-25.19,28.11,296.38,296.38,0,0,1-28.67,25.58A336.06,336.06,0,0,1,212.89,689C99.51,575.63,82,396.61,171.12,263.55c1.26-1.9,2.54-3.79,3.88-5.69l2.12-2.6c-1.09-.39-2.29-.87-3.4-1.28l-3.22-1.18-.88,1.26c-1.34,2-2.69,3.88-3.94,5.86-91,135.66-73,318.06,42.57,433.83a342.72,342.72,0,0,0,456,26.14,326.71,326.71,0,0,0,29.2-26.14,323.43,323.43,0,0,0,25.83-28.83L720,664C828.52,527.77,817.22,331.84,693.48,208.27Zm0,0C628.88,143.59,542.75,108,451,108s-178.07,35.6-242.81,100.28c-3.32,3.32-6.73,6.87-10.27,10.81l-.71.95c1.1.39,2.21.72,3.24,1.2,1.18.31,2.29.78,3.47,1.09,2.93-3.32,6-6.4,8.93-9.3,63.49-63.51,148-98.49,238.15-98.49S625.5,149.51,688.9,213C810.12,334.13,821.32,526.27,714.81,660l-.8,1a315.88,315.88,0,0,1-25.19,28.11,296.38,296.38,0,0,1-28.67,25.58A336.06,336.06,0,0,1,212.89,689C99.51,575.63,82,396.61,171.12,263.55c1.26-1.9,2.54-3.79,3.88-5.69l2.12-2.6c-1.09-.39-2.29-.87-3.4-1.28l-3.22-1.18-.88,1.26c-1.34,2-2.69,3.88-3.94,5.86-91,135.66-73,318.06,42.57,433.83a342.72,342.72,0,0,0,456,26.14,326.71,326.71,0,0,0,29.2-26.14,323.43,323.43,0,0,0,25.83-28.83L720,664C828.52,527.77,817.22,331.84,693.48,208.27Zm0,0C628.88,143.59,542.75,108,451,108s-178.07,35.6-242.81,100.28c-3.32,3.32-6.73,6.87-10.27,10.81l-.71.95c1.1.39,2.21.72,3.24,1.2,1.18.31,2.29.78,3.47,1.09,2.93-3.32,6-6.4,8.93-9.3,63.49-63.51,148-98.49,238.15-98.49S625.5,149.51,688.9,213C810.12,334.13,821.32,526.27,714.81,660l-.8,1a315.88,315.88,0,0,1-25.19,28.11,296.38,296.38,0,0,1-28.67,25.58A336.06,336.06,0,0,1,212.89,689C99.51,575.63,82,396.61,171.12,263.55c1.26-1.9,2.54-3.79,3.88-5.69l2.12-2.6c-1.09-.39-2.29-.87-3.4-1.28l-3.22-1.18-.88,1.26c-1.34,2-2.69,3.88-3.94,5.86-91,135.66-73,318.06,42.57,433.83a342.72,342.72,0,0,0,456,26.14,326.71,326.71,0,0,0,29.2-26.14,323.43,323.43,0,0,0,25.83-28.83L720,664C828.52,527.77,817.22,331.84,693.48,208.27Zm0,0C628.88,143.59,542.75,108,451,108s-178.07,35.6-242.81,100.28c-3.32,3.32-6.73,6.87-10.27,10.81l-.71.95c1.1.39,2.21.72,3.24,1.2,1.18.31,2.29.78,3.47,1.09,2.93-3.32,6-6.4,8.93-9.3,63.49-63.51,148-98.49,238.15-98.49S625.5,149.51,688.9,213C810.12,334.13,821.32,526.27,714.81,660l-.8,1a315.88,315.88,0,0,1-25.19,28.11,296.38,296.38,0,0,1-28.67,25.58A336.06,336.06,0,0,1,212.89,689C99.51,575.63,82,396.61,171.12,263.55c1.26-1.9,2.54-3.79,3.88-5.69l2.12-2.6c-1.09-.39-2.29-.87-3.4-1.28l-3.22-1.18-.88,1.26c-1.34,2-2.69,3.88-3.94,5.86-91,135.66-73,318.06,42.57,433.83a342.72,342.72,0,0,0,456,26.14,326.71,326.71,0,0,0,29.2-26.14,323.43,323.43,0,0,0,25.83-28.83L720,664C828.52,527.77,817.22,331.84,693.48,208.27Zm0,0C628.88,143.59,542.75,108,451,108s-178.07,35.6-242.81,100.28c-3.32,3.32-6.73,6.87-10.27,10.81l-.71.95c1.1.39,2.21.72,3.24,1.2,1.18.31,2.29.78,3.47,1.09,2.93-3.32,6-6.4,8.93-9.3,63.49-63.51,148-98.49,238.15-98.49S625.5,149.51,688.9,213C810.12,334.13,821.32,526.27,714.81,660l-.8,1a315.88,315.88,0,0,1-25.19,28.11,296.38,296.38,0,0,1-28.67,25.58A336.06,336.06,0,0,1,212.89,689C99.51,575.63,82,396.61,171.12,263.55c1.26-1.9,2.54-3.79,3.88-5.69l2.12-2.6c-1.09-.39-2.29-.87-3.4-1.28l-3.22-1.18-.88,1.26c-1.34,2-2.69,3.88-3.94,5.86-91,135.66-73,318.06,42.57,433.83a342.72,342.72,0,0,0,456,26.14,326.71,326.71,0,0,0,29.2-26.14,323.43,323.43,0,0,0,25.83-28.83L720,664C828.52,527.77,817.22,331.84,693.48,208.27Zm0,0C628.88,143.59,542.75,108,451,108s-178.07,35.6-242.81,100.28c-3.32,3.32-6.73,6.87-10.27,10.81l-.71.95c1.1.39,2.21.72,3.24,1.2,1.18.31,2.29.78,3.47,1.09,2.93-3.32,6-6.4,8.93-9.3,63.49-63.51,148-98.49,238.15-98.49S625.5,149.51,688.9,213C810.12,334.13,821.32,526.27,714.81,660l-.8,1a315.88,315.88,0,0,1-25.19,28.11,296.38,296.38,0,0,1-28.67,25.58A336.06,336.06,0,0,1,212.89,689C99.51,575.63,82,396.61,171.12,263.55c1.26-1.9,2.54-3.79,3.88-5.69l2.12-2.6c-1.09-.39-2.29-.87-3.4-1.28l-3.22-1.18-.88,1.26c-1.34,2-2.69,3.88-3.94,5.86-91,135.66-73,318.06,42.57,433.83a342.72,342.72,0,0,0,456,26.14,326.71,326.71,0,0,0,29.2-26.14,323.43,323.43,0,0,0,25.83-28.83L720,664C828.52,527.77,817.22,331.84,693.48,208.27Zm0,0C628.88,143.59,542.75,108,451,108s-178.07,35.6-242.81,100.28c-3.32,3.32-6.73,6.87-10.27,10.81l-.71.95c1.1.39,2.21.72,3.24,1.2,1.18.31,2.29.78,3.47,1.09,2.93-3.32,6-6.4,8.93-9.3,63.49-63.51,148-98.49,238.15-98.49S625.5,149.51,688.9,213C810.12,334.13,821.32,526.27,714.81,660l-.8,1a315.88,315.88,0,0,1-25.19,28.11,296.38,296.38,0,0,1-28.67,25.58A336.06,336.06,0,0,1,212.89,689C99.51,575.63,82,396.61,171.12,263.55c1.26-1.9,2.54-3.79,3.88-5.69l2.12-2.6c-1.09-.39-2.29-.87-3.4-1.28l-3.22-1.18-.88,1.26c-1.34,2-2.69,3.88-3.94,5.86-91,135.66-73,318.06,42.57,433.83a342.72,342.72,0,0,0,456,26.14,326.71,326.71,0,0,0,29.2-26.14,323.43,323.43,0,0,0,25.83-28.83L720,664C828.52,527.77,817.22,331.84,693.48,208.27Zm0,0C628.88,143.59,542.75,108,451,108s-178.07,35.6-242.81,100.28c-3.32,3.32-6.73,6.87-10.27,10.81l-.71.95c1.1.39,2.21.72,3.24,1.2,1.18.31,2.29.78,3.47,1.09,2.93-3.32,6-6.4,8.93-9.3,63.49-63.51,148-98.49,238.15-98.49S625.5,149.51,688.9,213C810.12,334.13,821.32,526.27,714.81,660l-.8,1a315.88,315.88,0,0,1-25.19,28.11,296.38,296.38,0,0,1-28.67,25.58A336.06,336.06,0,0,1,212.89,689C99.51,575.63,82,396.61,171.12,263.55c1.26-1.9,2.54-3.79,3.88-5.69l2.12-2.6c-1.09-.39-2.29-.87-3.4-1.28l-3.22-1.18-.88,1.26c-1.34,2-2.69,3.88-3.94,5.86-91,135.66-73,318.06,42.57,433.83a342.72,342.72,0,0,0,456,26.14,326.71,326.71,0,0,0,29.2-26.14,323.43,323.43,0,0,0,25.83-28.83L720,664C828.52,527.77,817.22,331.84,693.48,208.27Zm0,0C628.88,143.59,542.75,108,451,108s-178.07,35.6-242.81,100.28c-3.32,3.32-6.73,6.87-10.27,10.81l-.71.95c1.1.39,2.21.72,3.24,1.2,1.18.31,2.29.78,3.47,1.09,2.93-3.32,6-6.4,8.93-9.3,63.49-63.51,148-98.49,238.15-98.49S625.5,149.51,688.9,213C810.12,334.13,821.32,526.27,714.81,660l-.8,1a315.88,315.88,0,0,1-25.19,28.11,296.38,296.38,0,0,1-28.67,25.58A336.06,336.06,0,0,1,212.89,689C99.51,575.63,82,396.61,171.12,263.55c1.26-1.9,2.54-3.79,3.88-5.69l2.12-2.6c-1.09-.39-2.29-.87-3.4-1.28l-3.22-1.18-.88,1.26c-1.34,2-2.69,3.88-3.94,5.86-91,135.66-73,318.06,42.57,433.83a342.72,342.72,0,0,0,456,26.14,326.71,326.71,0,0,0,29.2-26.14,323.43,323.43,0,0,0,25.83-28.83L720,664C828.52,527.77,817.22,331.84,693.48,208.27Zm0,0C628.88,143.59,542.75,108,451,108s-178.07,35.6-242.81,100.28c-3.32,3.32-6.73,6.87-10.27,10.81l-.71.95c1.1.39,2.21.72,3.24,1.2,1.18.31,2.29.78,3.47,1.09,2.93-3.32,6-6.4,8.93-9.3,63.49-63.51,148-98.49,238.15-98.49S625.5,149.51,688.9,213C810.12,334.13,821.32,526.27,714.81,660l-.8,1a315.88,315.88,0,0,1-25.19,28.11,296.38,296.38,0,0,1-28.67,25.58A336.06,336.06,0,0,1,212.89,689C99.51,575.63,82,396.61,171.12,263.55c1.26-1.9,2.54-3.79,3.88-5.69l2.12-2.6c-1.09-.39-2.29-.87-3.4-1.28l-3.22-1.18-.88,1.26c-1.34,2-2.69,3.88-3.94,5.86-91,135.66-73,318.06,42.57,433.83a342.72,342.72,0,0,0,456,26.14,326.71,326.71,0,0,0,29.2-26.14,323.43,323.43,0,0,0,25.83-28.83L720,664C828.52,527.77,817.22,331.84,693.48,208.27Zm0,0C628.88,143.59,542.75,108,451,108s-178.07,35.6-242.81,100.28c-3.32,3.32-6.73,6.87-10.27,10.81l-.71.95c1.1.39,2.21.72,3.24,1.2,1.18.31,2.29.78,3.47,1.09,2.93-3.32,6-6.4,8.93-9.3,63.49-63.51,148-98.49,238.15-98.49S625.5,149.51,688.9,213C810.12,334.13,821.32,526.27,714.81,660l-.8,1a315.88,315.88,0,0,1-25.19,28.11,296.38,296.38,0,0,1-28.67,25.58A336.06,336.06,0,0,1,212.89,689C99.51,575.63,82,396.61,171.12,263.55c1.26-1.9,2.54-3.79,3.88-5.69l2.12-2.6c-1.09-.39-2.29-.87-3.4-1.28l-3.22-1.18-.88,1.26c-1.34,2-2.69,3.88-3.94,5.86-91,135.66-73,318.06,42.57,433.83a342.72,342.72,0,0,0,456,26.14,326.71,326.71,0,0,0,29.2-26.14,323.43,323.43,0,0,0,25.83-28.83L720,664C828.52,527.77,817.22,331.84,693.48,208.27Zm0,0C628.88,143.59,542.75,108,451,108s-178.07,35.6-242.81,100.28c-3.32,3.32-6.73,6.87-10.27,10.81l-.71.95c1.1.39,2.21.72,3.24,1.2,1.18.31,2.29.78,3.47,1.09,2.93-3.32,6-6.4,8.93-9.3,63.49-63.51,148-98.49,238.15-98.49S625.5,149.51,688.9,213C810.12,334.13,821.32,526.27,714.81,660l-.8,1a315.88,315.88,0,0,1-25.19,28.11,296.38,296.38,0,0,1-28.67,25.58A336.06,336.06,0,0,1,212.89,689C99.51,575.63,82,396.61,171.12,263.55c1.26-1.9,2.54-3.79,3.88-5.69l2.12-2.6c-1.09-.39-2.29-.87-3.4-1.28l-3.22-1.18-.88,1.26c-1.34,2-2.69,3.88-3.94,5.86-91,135.66-73,318.06,42.57,433.83a342.72,342.72,0,0,0,456,26.14,326.71,326.71,0,0,0,29.2-26.14,323.43,323.43,0,0,0,25.83-28.83L720,664C828.52,527.77,817.22,331.84,693.48,208.27Zm0,0C628.88,143.59,542.75,108,451,108s-178.07,35.6-242.81,100.28c-3.32,3.32-6.73,6.87-10.27,10.81l-.71.95c1.1.39,2.21.72,3.24,1.2,1.18.31,2.29.78,3.47,1.09,2.93-3.32,6-6.4,8.93-9.3,63.49-63.51,148-98.49,238.15-98.49S625.5,149.51,688.9,213C810.12,334.13,821.32,526.27,714.81,660l-.8,1a315.88,315.88,0,0,1-25.19,28.11,296.38,296.38,0,0,1-28.67,25.58A336.06,336.06,0,0,1,212.89,689C99.51,575.63,82,396.61,171.12,263.55c1.26-1.9,2.54-3.79,3.88-5.69l2.12-2.6c-1.09-.39-2.29-.87-3.4-1.28l-3.22-1.18-.88,1.26c-1.34,2-2.69,3.88-3.94,5.86-91,135.66-73,318.06,42.57,433.83a342.72,342.72,0,0,0,456,26.14,326.71,326.71,0,0,0,29.2-26.14,323.43,323.43,0,0,0,25.83-28.83L720,664C828.52,527.77,817.22,331.84,693.48,208.27Zm0,0C628.88,143.59,542.75,108,451,108s-178.07,35.6-242.81,100.28c-3.32,3.32-6.73,6.87-10.27,10.81l-.71.95c1.1.39,2.21.72,3.24,1.2,1.18.31,2.29.78,3.47,1.09,2.93-3.32,6-6.4,8.93-9.3,63.49-63.51,148-98.49,238.15-98.49S625.5,149.51,688.9,213C810.12,334.13,821.32,526.27,714.81,660l-.8,1a315.88,315.88,0,0,1-25.19,28.11,296.38,296.38,0,0,1-28.67,25.58A336.06,336.06,0,0,1,212.89,689C99.51,575.63,82,396.61,171.12,263.55c1.26-1.9,2.54-3.79,3.88-5.69l2.12-2.6c-1.09-.39-2.29-.87-3.4-1.28l-3.22-1.18-.88,1.26c-1.34,2-2.69,3.88-3.94,5.86-91,135.66-73,318.06,42.57,433.83a342.72,342.72,0,0,0,456,26.14,326.71,326.71,0,0,0,29.2-26.14,323.43,323.43,0,0,0,25.83-28.83L720,664C828.52,527.77,817.22,331.84,693.48,208.27Zm0,0C628.88,143.59,542.75,108,451,108s-178.07,35.6-242.81,100.28c-3.32,3.32-6.73,6.87-10.27,10.81l-.71.95c1.1.39,2.21.72,3.24,1.2,1.18.31,2.29.78,3.47,1.09,2.93-3.32,6-6.4,8.93-9.3,63.49-63.51,148-98.49,238.15-98.49S625.5,149.51,688.9,213C810.12,334.13,821.32,526.27,714.81,660l-.8,1a315.88,315.88,0,0,1-25.19,28.11,296.38,296.38,0,0,1-28.67,25.58A336.06,336.06,0,0,1,212.89,689C99.51,575.63,82,396.61,171.12,263.55c1.26-1.9,2.54-3.79,3.88-5.69l2.12-2.6c-1.09-.39-2.29-.87-3.4-1.28l-3.22-1.18-.88,1.26c-1.34,2-2.69,3.88-3.94,5.86-91,135.66-73,318.06,42.57,433.83a342.72,342.72,0,0,0,456,26.14,326.71,326.71,0,0,0,29.2-26.14,323.43,323.43,0,0,0,25.83-28.83L720,664C828.52,527.77,817.22,331.84,693.48,208.27Zm0,0C628.88,143.59,542.75,108,451,108s-178.07,35.6-242.81,100.28c-3.32,3.32-6.73,6.87-10.27,10.81l-.71.95c1.1.39,2.21.72,3.24,1.2,1.18.31,2.29.78,3.47,1.09,2.93-3.32,6-6.4,8.93-9.3,63.49-63.51,148-98.49,238.15-98.49S625.5,149.51,688.9,213C810.12,334.13,821.32,526.27,714.81,660l-.8,1a315.88,315.88,0,0,1-25.19,28.11,296.38,296.38,0,0,1-28.67,25.58A336.06,336.06,0,0,1,212.89,689C99.51,575.63,82,396.61,171.12,263.55c1.26-1.9,2.54-3.79,3.88-5.69l2.12-2.6c-1.09-.39-2.29-.87-3.4-1.28l-3.22-1.18-.88,1.26c-1.34,2-2.69,3.88-3.94,5.86-91,135.66-73,318.06,42.57,433.83a342.72,342.72,0,0,0,456,26.14,326.71,326.71,0,0,0,29.2-26.14,323.43,323.43,0,0,0,25.83-28.83L720,664C828.52,527.77,817.22,331.84,693.48,208.27Zm0,0C628.88,143.59,542.75,108,451,108s-178.07,35.6-242.81,100.28c-3.32,3.32-6.73,6.87-10.27,10.81l-.71.95c1.1.39,2.21.72,3.24,1.2,1.18.31,2.29.78,3.47,1.09,2.93-3.32,6-6.4,8.93-9.3,63.49-63.51,148-98.49,238.15-98.49S625.5,149.51,688.9,213C810.12,334.13,821.32,526.27,714.81,660l-.8,1a315.88,315.88,0,0,1-25.19,28.11,296.38,296.38,0,0,1-28.67,25.58A336.06,336.06,0,0,1,212.89,689C99.51,575.63,82,396.61,171.12,263.55c1.26-1.9,2.54-3.79,3.88-5.69l2.12-2.6c-1.09-.39-2.29-.87-3.4-1.28l-3.22-1.18-.88,1.26c-1.34,2-2.69,3.88-3.94,5.86-91,135.66-73,318.06,42.57,433.83a342.72,342.72,0,0,0,456,26.14,326.71,326.71,0,0,0,29.2-26.14,323.43,323.43,0,0,0,25.83-28.83L720,664C828.52,527.77,817.22,331.84,693.48,208.27Zm0,0C628.88,143.59,542.75,108,451,108s-178.07,35.6-242.81,100.28c-3.32,3.32-6.73,6.87-10.27,10.81l-.71.95c1.1.39,2.21.72,3.24,1.2,1.18.31,2.29.78,3.47,1.09,2.93-3.32,6-6.4,8.93-9.3,63.49-63.51,148-98.49,238.15-98.49S625.5,149.51,688.9,213C810.12,334.13,821.32,526.27,714.81,660l-.8,1a315.88,315.88,0,0,1-25.19,28.11,296.38,296.38,0,0,1-28.67,25.58A336.06,336.06,0,0,1,212.89,689C99.51,575.63,82,396.61,171.12,263.55c1.26-1.9,2.54-3.79,3.88-5.69l2.12-2.6c-1.09-.39-2.29-.87-3.4-1.28l-3.22-1.18-.88,1.26c-1.34,2-2.69,3.88-3.94,5.86-91,135.66-73,318.06,42.57,433.83a342.72,342.72,0,0,0,456,26.14,326.71,326.71,0,0,0,29.2-26.14,323.43,323.43,0,0,0,25.83-28.83L720,664C828.52,527.77,817.22,331.84,693.48,208.27Zm257.27,642.3L798,697.77c-.39-.47-1.25-1.25-2.45-2.37a421.73,421.73,0,0,0-45.87-543.27C670,72.45,563.91,28.54,451,28.54S231.85,72.45,152.1,152.13c-8.93,9-17.38,18.15-25.2,27.39a452.68,452.68,0,0,0-27.16,36.32c-112,167-90,391.59,52.36,534.06,80,79.9,186.2,123.9,299,123.9a418.37,418.37,0,0,0,244.24-78.19L850.55,950.86a69.92,69.92,0,0,0,50.06,20.6,70.47,70.47,0,0,0,70.91-70.66A70,70,0,0,0,950.75,850.57Zm-4.58,95.63a64.58,64.58,0,0,1-91,0L702.33,793.4l-6.17-6.48-2.37,1.75a412.33,412.33,0,0,1-242.65,78.57c-111.11,0-215.66-43.36-294.46-122.09C16.59,605-5,383.88,105.18,219.47c8.07-12,17.14-24,26.77-35.68,7.68-9.08,16-18.17,24.8-27C235.25,78.37,339.72,35.18,451,35.18S666.57,78.37,745.05,156.79A415.51,415.51,0,0,1,788.49,693.9l-1.76,2.37,4,3.71c1.17,1.2,2.12,2.06,2.59,2.46l152.8,152.88a64.31,64.31,0,0,1,0,90.88ZM693.48,208.27C628.88,143.59,542.75,108,451,108s-178.07,35.6-242.81,100.28c-3.32,3.32-6.73,6.87-10.27,10.81l-.71.95c1.1.39,2.21.72,3.24,1.2,1.18.31,2.29.78,3.47,1.09,2.93-3.32,6-6.4,8.93-9.3,63.49-63.51,148-98.49,238.15-98.49S625.5,149.51,688.9,213C810.12,334.13,821.32,526.27,714.81,660l-.8,1a315.88,315.88,0,0,1-25.19,28.11,296.38,296.38,0,0,1-28.67,25.58A336.06,336.06,0,0,1,212.89,689C99.51,575.63,82,396.61,171.12,263.55c1.26-1.9,2.54-3.79,3.88-5.69l2.12-2.6c-1.09-.39-2.29-.87-3.4-1.28l-3.22-1.18-.88,1.26c-1.34,2-2.69,3.88-3.94,5.86-91,135.66-73,318.06,42.57,433.83a342.72,342.72,0,0,0,456,26.14,326.71,326.71,0,0,0,29.2-26.14,323.43,323.43,0,0,0,25.83-28.83L720,664C828.52,527.77,817.22,331.84,693.48,208.27Zm0,0C628.88,143.59,542.75,108,451,108s-178.07,35.6-242.81,100.28c-3.32,3.32-6.73,6.87-10.27,10.81l-.71.95c1.1.39,2.21.72,3.24,1.2,1.18.31,2.29.78,3.47,1.09,2.93-3.32,6-6.4,8.93-9.3,63.49-63.51,148-98.49,238.15-98.49S625.5,149.51,688.9,213C810.12,334.13,821.32,526.27,714.81,660l-.8,1a315.88,315.88,0,0,1-25.19,28.11,296.38,296.38,0,0,1-28.67,25.58A336.06,336.06,0,0,1,212.89,689C99.51,575.63,82,396.61,171.12,263.55c1.26-1.9,2.54-3.79,3.88-5.69l2.12-2.6c-1.09-.39-2.29-.87-3.4-1.28l-3.22-1.18-.88,1.26c-1.34,2-2.69,3.88-3.94,5.86-91,135.66-73,318.06,42.57,433.83a342.72,342.72,0,0,0,456,26.14,326.71,326.71,0,0,0,29.2-26.14,323.43,323.43,0,0,0,25.83-28.83L720,664C828.52,527.77,817.22,331.84,693.48,208.27Zm0,0C628.88,143.59,542.75,108,451,108s-178.07,35.6-242.81,100.28c-3.32,3.32-6.73,6.87-10.27,10.81l-.71.95c1.1.39,2.21.72,3.24,1.2,1.18.31,2.29.78,3.47,1.09,2.93-3.32,6-6.4,8.93-9.3,63.49-63.51,148-98.49,238.15-98.49S625.5,149.51,688.9,213C810.12,334.13,821.32,526.27,714.81,660l-.8,1a315.88,315.88,0,0,1-25.19,28.11,296.38,296.38,0,0,1-28.67,25.58A336.06,336.06,0,0,1,212.89,689C99.51,575.63,82,396.61,171.12,263.55c1.26-1.9,2.54-3.79,3.88-5.69l2.12-2.6c-1.09-.39-2.29-.87-3.4-1.28l-3.22-1.18-.88,1.26c-1.34,2-2.69,3.88-3.94,5.86-91,135.66-73,318.06,42.57,433.83a342.72,342.72,0,0,0,456,26.14,326.71,326.71,0,0,0,29.2-26.14,323.43,323.43,0,0,0,25.83-28.83L720,664C828.52,527.77,817.22,331.84,693.48,208.27Zm0,0C628.88,143.59,542.75,108,451,108s-178.07,35.6-242.81,100.28c-3.32,3.32-6.73,6.87-10.27,10.81l-.71.95c1.1.39,2.21.72,3.24,1.2,1.18.31,2.29.78,3.47,1.09,2.93-3.32,6-6.4,8.93-9.3,63.49-63.51,148-98.49,238.15-98.49S625.5,149.51,688.9,213C810.12,334.13,821.32,526.27,714.81,660l-.8,1a315.88,315.88,0,0,1-25.19,28.11,296.38,296.38,0,0,1-28.67,25.58A336.06,336.06,0,0,1,212.89,689C99.51,575.63,82,396.61,171.12,263.55c1.26-1.9,2.54-3.79,3.88-5.69l2.12-2.6c-1.09-.39-2.29-.87-3.4-1.28l-3.22-1.18-.88,1.26c-1.34,2-2.69,3.88-3.94,5.86-91,135.66-73,318.06,42.57,433.83a342.72,342.72,0,0,0,456,26.14,326.71,326.71,0,0,0,29.2-26.14,323.43,323.43,0,0,0,25.83-28.83L720,664C828.52,527.77,817.22,331.84,693.48,208.27Zm0,0C628.88,143.59,542.75,108,451,108s-178.07,35.6-242.81,100.28c-3.32,3.32-6.73,6.87-10.27,10.81l-.71.95c1.1.39,2.21.72,3.24,1.2,1.18.31,2.29.78,3.47,1.09,2.93-3.32,6-6.4,8.93-9.3,63.49-63.51,148-98.49,238.15-98.49S625.5,149.51,688.9,213C810.12,334.13,821.32,526.27,714.81,660l-.8,1a315.88,315.88,0,0,1-25.19,28.11,296.38,296.38,0,0,1-28.67,25.58A336.06,336.06,0,0,1,212.89,689C99.51,575.63,82,396.61,171.12,263.55c1.26-1.9,2.54-3.79,3.88-5.69l2.12-2.6c-1.09-.39-2.29-.87-3.4-1.28l-3.22-1.18-.88,1.26c-1.34,2-2.69,3.88-3.94,5.86-91,135.66-73,318.06,42.57,433.83a342.72,342.72,0,0,0,456,26.14,326.71,326.71,0,0,0,29.2-26.14,323.43,323.43,0,0,0,25.83-28.83L720,664C828.52,527.77,817.22,331.84,693.48,208.27Zm0,0C628.88,143.59,542.75,108,451,108s-178.07,35.6-242.81,100.28c-3.32,3.32-6.73,6.87-10.27,10.81l-.71.95c1.1.39,2.21.72,3.24,1.2,1.18.31,2.29.78,3.47,1.09,2.93-3.32,6-6.4,8.93-9.3,63.49-63.51,148-98.49,238.15-98.49S625.5,149.51,688.9,213C810.12,334.13,821.32,526.27,714.81,660l-.8,1a315.88,315.88,0,0,1-25.19,28.11,296.38,296.38,0,0,1-28.67,25.58A336.06,336.06,0,0,1,212.89,689C99.51,575.63,82,396.61,171.12,263.55c1.26-1.9,2.54-3.79,3.88-5.69l2.12-2.6c-1.09-.39-2.29-.87-3.4-1.28l-3.22-1.18-.88,1.26c-1.34,2-2.69,3.88-3.94,5.86-91,135.66-73,318.06,42.57,433.83a342.72,342.72,0,0,0,456,26.14,326.71,326.71,0,0,0,29.2-26.14,323.43,323.43,0,0,0,25.83-28.83L720,664C828.52,527.77,817.22,331.84,693.48,208.27Zm0,0C628.88,143.59,542.75,108,451,108s-178.07,35.6-242.81,100.28c-3.32,3.32-6.73,6.87-10.27,10.81l-.71.95c1.1.39,2.21.72,3.24,1.2,1.18.31,2.29.78,3.47,1.09,2.93-3.32,6-6.4,8.93-9.3,63.49-63.51,148-98.49,238.15-98.49S625.5,149.51,688.9,213C810.12,334.13,821.32,526.27,714.81,660l-.8,1a315.88,315.88,0,0,1-25.19,28.11,296.38,296.38,0,0,1-28.67,25.58A336.06,336.06,0,0,1,212.89,689C99.51,575.63,82,396.61,171.12,263.55c1.26-1.9,2.54-3.79,3.88-5.69l2.12-2.6c-1.09-.39-2.29-.87-3.4-1.28l-3.22-1.18-.88,1.26c-1.34,2-2.69,3.88-3.94,5.86-91,135.66-73,318.06,42.57,433.83a342.72,342.72,0,0,0,456,26.14,326.71,326.71,0,0,0,29.2-26.14,323.43,323.43,0,0,0,25.83-28.83L720,664C828.52,527.77,817.22,331.84,693.48,208.27Zm0,0C628.88,143.59,542.75,108,451,108s-178.07,35.6-242.81,100.28c-3.32,3.32-6.73,6.87-10.27,10.81l-.71.95c1.1.39,2.21.72,3.24,1.2,1.18.31,2.29.78,3.47,1.09,2.93-3.32,6-6.4,8.93-9.3,63.49-63.51,148-98.49,238.15-98.49S625.5,149.51,688.9,213C810.12,334.13,821.32,526.27,714.81,660l-.8,1a315.88,315.88,0,0,1-25.19,28.11,296.38,296.38,0,0,1-28.67,25.58A336.06,336.06,0,0,1,212.89,689C99.51,575.63,82,396.61,171.12,263.55c1.26-1.9,2.54-3.79,3.88-5.69l2.12-2.6c-1.09-.39-2.29-.87-3.4-1.28l-3.22-1.18-.88,1.26c-1.34,2-2.69,3.88-3.94,5.86-91,135.66-73,318.06,42.57,433.83a342.72,342.72,0,0,0,456,26.14,326.71,326.71,0,0,0,29.2-26.14,323.43,323.43,0,0,0,25.83-28.83L720,664C828.52,527.77,817.22,331.84,693.48,208.27Zm0,0C628.88,143.59,542.75,108,451,108s-178.07,35.6-242.81,100.28c-3.32,3.32-6.73,6.87-10.27,10.81l-.71.95c1.1.39,2.21.72,3.24,1.2,1.18.31,2.29.78,3.47,1.09,2.93-3.32,6-6.4,8.93-9.3,63.49-63.51,148-98.49,238.15-98.49S625.5,149.51,688.9,213C810.12,334.13,821.32,526.27,714.81,660l-.8,1a315.88,315.88,0,0,1-25.19,28.11,296.38,296.38,0,0,1-28.67,25.58A336.06,336.06,0,0,1,212.89,689C99.51,575.63,82,396.61,171.12,263.55c1.26-1.9,2.54-3.79,3.88-5.69l2.12-2.6c-1.09-.39-2.29-.87-3.4-1.28l-3.22-1.18-.88,1.26c-1.34,2-2.69,3.88-3.94,5.86-91,135.66-73,318.06,42.57,433.83a342.72,342.72,0,0,0,456,26.14,326.71,326.71,0,0,0,29.2-26.14,323.43,323.43,0,0,0,25.83-28.83L720,664C828.52,527.77,817.22,331.84,693.48,208.27Zm0,0C628.88,143.59,542.75,108,451,108s-178.07,35.6-242.81,100.28c-3.32,3.32-6.73,6.87-10.27,10.81l-.71.95c1.1.39,2.21.72,3.24,1.2,1.18.31,2.29.78,3.47,1.09,2.93-3.32,6-6.4,8.93-9.3,63.49-63.51,148-98.49,238.15-98.49S625.5,149.51,688.9,213C810.12,334.13,821.32,526.27,714.81,660l-.8,1a315.88,315.88,0,0,1-25.19,28.11,296.38,296.38,0,0,1-28.67,25.58A336.06,336.06,0,0,1,212.89,689C99.51,575.63,82,396.61,171.12,263.55c1.26-1.9,2.54-3.79,3.88-5.69l2.12-2.6c-1.09-.39-2.29-.87-3.4-1.28l-3.22-1.18-.88,1.26c-1.34,2-2.69,3.88-3.94,5.86-91,135.66-73,318.06,42.57,433.83a342.72,342.72,0,0,0,456,26.14,326.71,326.71,0,0,0,29.2-26.14,323.43,323.43,0,0,0,25.83-28.83L720,664C828.52,527.77,817.22,331.84,693.48,208.27Zm0,0C628.88,143.59,542.75,108,451,108s-178.07,35.6-242.81,100.28c-3.32,3.32-6.73,6.87-10.27,10.81l-.71.95c1.1.39,2.21.72,3.24,1.2,1.18.31,2.29.78,3.47,1.09,2.93-3.32,6-6.4,8.93-9.3,63.49-63.51,148-98.49,238.15-98.49S625.5,149.51,688.9,213C810.12,334.13,821.32,526.27,714.81,660l-.8,1a315.88,315.88,0,0,1-25.19,28.11,296.38,296.38,0,0,1-28.67,25.58A336.06,336.06,0,0,1,212.89,689C99.51,575.63,82,396.61,171.12,263.55c1.26-1.9,2.54-3.79,3.88-5.69l2.12-2.6c-1.09-.39-2.29-.87-3.4-1.28l-3.22-1.18-.88,1.26c-1.34,2-2.69,3.88-3.94,5.86-91,135.66-73,318.06,42.57,433.83a342.72,342.72,0,0,0,456,26.14,326.71,326.71,0,0,0,29.2-26.14,323.43,323.43,0,0,0,25.83-28.83L720,664C828.52,527.77,817.22,331.84,693.48,208.27Zm0,0C628.88,143.59,542.75,108,451,108s-178.07,35.6-242.81,100.28c-3.32,3.32-6.73,6.87-10.27,10.81l-.71.95c1.1.39,2.21.72,3.24,1.2,1.18.31,2.29.78,3.47,1.09,2.93-3.32,6-6.4,8.93-9.3,63.49-63.51,148-98.49,238.15-98.49S625.5,149.51,688.9,213C810.12,334.13,821.32,526.27,714.81,660l-.8,1a315.88,315.88,0,0,1-25.19,28.11,296.38,296.38,0,0,1-28.67,25.58A336.06,336.06,0,0,1,212.89,689C99.51,575.63,82,396.61,171.12,263.55c1.26-1.9,2.54-3.79,3.88-5.69l2.12-2.6c-1.09-.39-2.29-.87-3.4-1.28l-3.22-1.18-.88,1.26c-1.34,2-2.69,3.88-3.94,5.86-91,135.66-73,318.06,42.57,433.83a342.72,342.72,0,0,0,456,26.14,326.71,326.71,0,0,0,29.2-26.14,323.43,323.43,0,0,0,25.83-28.83L720,664C828.52,527.77,817.22,331.84,693.48,208.27Zm0,0C628.88,143.59,542.75,108,451,108s-178.07,35.6-242.81,100.28c-3.32,3.32-6.73,6.87-10.27,10.81l-.71.95c1.1.39,2.21.72,3.24,1.2,1.18.31,2.29.78,3.47,1.09,2.93-3.32,6-6.4,8.93-9.3,63.49-63.51,148-98.49,238.15-98.49S625.5,149.51,688.9,213C810.12,334.13,821.32,526.27,714.81,660l-.8,1a315.88,315.88,0,0,1-25.19,28.11,296.38,296.38,0,0,1-28.67,25.58A336.06,336.06,0,0,1,212.89,689C99.51,575.63,82,396.61,171.12,263.55c1.26-1.9,2.54-3.79,3.88-5.69l2.12-2.6c-1.09-.39-2.29-.87-3.4-1.28l-3.22-1.18-.88,1.26c-1.34,2-2.69,3.88-3.94,5.86-91,135.66-73,318.06,42.57,433.83a342.72,342.72,0,0,0,456,26.14,326.71,326.71,0,0,0,29.2-26.14,323.43,323.43,0,0,0,25.83-28.83L720,664C828.52,527.77,817.22,331.84,693.48,208.27Zm0,0C628.88,143.59,542.75,108,451,108s-178.07,35.6-242.81,100.28c-3.32,3.32-6.73,6.87-10.27,10.81l-.71.95c1.1.39,2.21.72,3.24,1.2,1.18.31,2.29.78,3.47,1.09,2.93-3.32,6-6.4,8.93-9.3,63.49-63.51,148-98.49,238.15-98.49S625.5,149.51,688.9,213C810.12,334.13,821.32,526.27,714.81,660l-.8,1a315.88,315.88,0,0,1-25.19,28.11,296.38,296.38,0,0,1-28.67,25.58A336.06,336.06,0,0,1,212.89,689C99.51,575.63,82,396.61,171.12,263.55c1.26-1.9,2.54-3.79,3.88-5.69l2.12-2.6c-1.09-.39-2.29-.87-3.4-1.28l-3.22-1.18-.88,1.26c-1.34,2-2.69,3.88-3.94,5.86-91,135.66-73,318.06,42.57,433.83a342.72,342.72,0,0,0,456,26.14,326.71,326.71,0,0,0,29.2-26.14,323.43,323.43,0,0,0,25.83-28.83L720,664C828.52,527.77,817.22,331.84,693.48,208.27Zm0,0C628.88,143.59,542.75,108,451,108s-178.07,35.6-242.81,100.28c-3.32,3.32-6.73,6.87-10.27,10.81l-.71.95c1.1.39,2.21.72,3.24,1.2,1.18.31,2.29.78,3.47,1.09,2.93-3.32,6-6.4,8.93-9.3,63.49-63.51,148-98.49,238.15-98.49S625.5,149.51,688.9,213C810.12,334.13,821.32,526.27,714.81,660l-.8,1a315.88,315.88,0,0,1-25.19,28.11,296.38,296.38,0,0,1-28.67,25.58A336.06,336.06,0,0,1,212.89,689C99.51,575.63,82,396.61,171.12,263.55c1.26-1.9,2.54-3.79,3.88-5.69l2.12-2.6c-1.09-.39-2.29-.87-3.4-1.28l-3.22-1.18-.88,1.26c-1.34,2-2.69,3.88-3.94,5.86-91,135.66-73,318.06,42.57,433.83a342.72,342.72,0,0,0,456,26.14,326.71,326.71,0,0,0,29.2-26.14,323.43,323.43,0,0,0,25.83-28.83L720,664C828.52,527.77,817.22,331.84,693.48,208.27Zm0,0C628.88,143.59,542.75,108,451,108s-178.07,35.6-242.81,100.28c-3.32,3.32-6.73,6.87-10.27,10.81l-.71.95c1.1.39,2.21.72,3.24,1.2,1.18.31,2.29.78,3.47,1.09,2.93-3.32,6-6.4,8.93-9.3,63.49-63.51,148-98.49,238.15-98.49S625.5,149.51,688.9,213C810.12,334.13,821.32,526.27,714.81,660l-.8,1a315.88,315.88,0,0,1-25.19,28.11,296.38,296.38,0,0,1-28.67,25.58A336.06,336.06,0,0,1,212.89,689C99.51,575.63,82,396.61,171.12,263.55c1.26-1.9,2.54-3.79,3.88-5.69l2.12-2.6c-1.09-.39-2.29-.87-3.4-1.28l-3.22-1.18-.88,1.26c-1.34,2-2.69,3.88-3.94,5.86-91,135.66-73,318.06,42.57,433.83a342.72,342.72,0,0,0,456,26.14,326.71,326.71,0,0,0,29.2-26.14,323.43,323.43,0,0,0,25.83-28.83L720,664C828.52,527.77,817.22,331.84,693.48,208.27Zm0,0C628.88,143.59,542.75,108,451,108s-178.07,35.6-242.81,100.28c-3.32,3.32-6.73,6.87-10.27,10.81l-.71.95c1.1.39,2.21.72,3.24,1.2,1.18.31,2.29.78,3.47,1.09,2.93-3.32,6-6.4,8.93-9.3,63.49-63.51,148-98.49,238.15-98.49S625.5,149.51,688.9,213C810.12,334.13,821.32,526.27,714.81,660l-.8,1a315.88,315.88,0,0,1-25.19,28.11,296.38,296.38,0,0,1-28.67,25.58A336.06,336.06,0,0,1,212.89,689C99.51,575.63,82,396.61,171.12,263.55c1.26-1.9,2.54-3.79,3.88-5.69l2.12-2.6c-1.09-.39-2.29-.87-3.4-1.28l-3.22-1.18-.88,1.26c-1.34,2-2.69,3.88-3.94,5.86-91,135.66-73,318.06,42.57,433.83a342.72,342.72,0,0,0,456,26.14,326.71,326.71,0,0,0,29.2-26.14,323.43,323.43,0,0,0,25.83-28.83L720,664C828.52,527.77,817.22,331.84,693.48,208.27Zm0,0C628.88,143.59,542.75,108,451,108s-178.07,35.6-242.81,100.28c-3.32,3.32-6.73,6.87-10.27,10.81l-.71.95c1.1.39,2.21.72,3.24,1.2,1.18.31,2.29.78,3.47,1.09,2.93-3.32,6-6.4,8.93-9.3,63.49-63.51,148-98.49,238.15-98.49S625.5,149.51,688.9,213C810.12,334.13,821.32,526.27,714.81,660l-.8,1a315.88,315.88,0,0,1-25.19,28.11,296.38,296.38,0,0,1-28.67,25.58A336.06,336.06,0,0,1,212.89,689C99.51,575.63,82,396.61,171.12,263.55c1.26-1.9,2.54-3.79,3.88-5.69l2.12-2.6c-1.09-.39-2.29-.87-3.4-1.28l-3.22-1.18-.88,1.26c-1.34,2-2.69,3.88-3.94,5.86-91,135.66-73,318.06,42.57,433.83a342.72,342.72,0,0,0,456,26.14,326.71,326.71,0,0,0,29.2-26.14,323.43,323.43,0,0,0,25.83-28.83L720,664C828.52,527.77,817.22,331.84,693.48,208.27Zm0,0C628.88,143.59,542.75,108,451,108s-178.07,35.6-242.81,100.28c-3.32,3.32-6.73,6.87-10.27,10.81l-.71.95c1.1.39,2.21.72,3.24,1.2,1.18.31,2.29.78,3.47,1.09,2.93-3.32,6-6.4,8.93-9.3,63.49-63.51,148-98.49,238.15-98.49S625.5,149.51,688.9,213C810.12,334.13,821.32,526.27,714.81,660l-.8,1a315.88,315.88,0,0,1-25.19,28.11,296.38,296.38,0,0,1-28.67,25.58A336.06,336.06,0,0,1,212.89,689C99.51,575.63,82,396.61,171.12,263.55c1.26-1.9,2.54-3.79,3.88-5.69l2.12-2.6c-1.09-.39-2.29-.87-3.4-1.28l-3.22-1.18-.88,1.26c-1.34,2-2.69,3.88-3.94,5.86-91,135.66-73,318.06,42.57,433.83a342.72,342.72,0,0,0,456,26.14,326.71,326.71,0,0,0,29.2-26.14,323.43,323.43,0,0,0,25.83-28.83L720,664C828.52,527.77,817.22,331.84,693.48,208.27Zm0,0C628.88,143.59,542.75,108,451,108s-178.07,35.6-242.81,100.28c-3.32,3.32-6.73,6.87-10.27,10.81l-.71.95c1.1.39,2.21.72,3.24,1.2,1.18.31,2.29.78,3.47,1.09,2.93-3.32,6-6.4,8.93-9.3,63.49-63.51,148-98.49,238.15-98.49S625.5,149.51,688.9,213C810.12,334.13,821.32,526.27,714.81,660l-.8,1a315.88,315.88,0,0,1-25.19,28.11,296.38,296.38,0,0,1-28.67,25.58A336.06,336.06,0,0,1,212.89,689C99.51,575.63,82,396.61,171.12,263.55c1.26-1.9,2.54-3.79,3.88-5.69l2.12-2.6c-1.09-.39-2.29-.87-3.4-1.28l-3.22-1.18-.88,1.26c-1.34,2-2.69,3.88-3.94,5.86-91,135.66-73,318.06,42.57,433.83a342.72,342.72,0,0,0,456,26.14,326.71,326.71,0,0,0,29.2-26.14,323.43,323.43,0,0,0,25.83-28.83L720,664C828.52,527.77,817.22,331.84,693.48,208.27Zm0,0C628.88,143.59,542.75,108,451,108s-178.07,35.6-242.81,100.28c-3.32,3.32-6.73,6.87-10.27,10.81l-.71.95c1.1.39,2.21.72,3.24,1.2,1.18.31,2.29.78,3.47,1.09,2.93-3.32,6-6.4,8.93-9.3,63.49-63.51,148-98.49,238.15-98.49S625.5,149.51,688.9,213C810.12,334.13,821.32,526.27,714.81,660l-.8,1a315.88,315.88,0,0,1-25.19,28.11,296.38,296.38,0,0,1-28.67,25.58A336.06,336.06,0,0,1,212.89,689C99.51,575.63,82,396.61,171.12,263.55c1.26-1.9,2.54-3.79,3.88-5.69l2.12-2.6c-1.09-.39-2.29-.87-3.4-1.28l-3.22-1.18-.88,1.26c-1.34,2-2.69,3.88-3.94,5.86-91,135.66-73,318.06,42.57,433.83a342.72,342.72,0,0,0,456,26.14,326.71,326.71,0,0,0,29.2-26.14,323.43,323.43,0,0,0,25.83-28.83L720,664C828.52,527.77,817.22,331.84,693.48,208.27Zm0,0C628.88,143.59,542.75,108,451,108s-178.07,35.6-242.81,100.28c-3.32,3.32-6.73,6.87-10.27,10.81l-.71.95c1.1.39,2.21.72,3.24,1.2,1.18.31,2.29.78,3.47,1.09,2.93-3.32,6-6.4,8.93-9.3,63.49-63.51,148-98.49,238.15-98.49S625.5,149.51,688.9,213C810.12,334.13,821.32,526.27,714.81,660l-.8,1a315.88,315.88,0,0,1-25.19,28.11,296.38,296.38,0,0,1-28.67,25.58A336.06,336.06,0,0,1,212.89,689C99.51,575.63,82,396.61,171.12,263.55c1.26-1.9,2.54-3.79,3.88-5.69l2.12-2.6c-1.09-.39-2.29-.87-3.4-1.28l-3.22-1.18-.88,1.26c-1.34,2-2.69,3.88-3.94,5.86-91,135.66-73,318.06,42.57,433.83a342.72,342.72,0,0,0,456,26.14,326.71,326.71,0,0,0,29.2-26.14,323.43,323.43,0,0,0,25.83-28.83L720,664C828.52,527.77,817.22,331.84,693.48,208.27Zm0,0C628.88,143.59,542.75,108,451,108s-178.07,35.6-242.81,100.28c-3.32,3.32-6.73,6.87-10.27,10.81l-.71.95c1.1.39,2.21.72,3.24,1.2,1.18.31,2.29.78,3.47,1.09,2.93-3.32,6-6.4,8.93-9.3,63.49-63.51,148-98.49,238.15-98.49S625.5,149.51,688.9,213C810.12,334.13,821.32,526.27,714.81,660l-.8,1a315.88,315.88,0,0,1-25.19,28.11,296.38,296.38,0,0,1-28.67,25.58A336.06,336.06,0,0,1,212.89,689C99.51,575.63,82,396.61,171.12,263.55c1.26-1.9,2.54-3.79,3.88-5.69l2.12-2.6c-1.09-.39-2.29-.87-3.4-1.28l-3.22-1.18-.88,1.26c-1.34,2-2.69,3.88-3.94,5.86-91,135.66-73,318.06,42.57,433.83a342.72,342.72,0,0,0,456,26.14,326.71,326.71,0,0,0,29.2-26.14,323.43,323.43,0,0,0,25.83-28.83L720,664C828.52,527.77,817.22,331.84,693.48,208.27Zm0,0C628.88,143.59,542.75,108,451,108s-178.07,35.6-242.81,100.28c-3.32,3.32-6.73,6.87-10.27,10.81l-.71.95c1.1.39,2.21.72,3.24,1.2,1.18.31,2.29.78,3.47,1.09,2.93-3.32,6-6.4,8.93-9.3,63.49-63.51,148-98.49,238.15-98.49S625.5,149.51,688.9,213C810.12,334.13,821.32,526.27,714.81,660l-.8,1a315.88,315.88,0,0,1-25.19,28.11,296.38,296.38,0,0,1-28.67,25.58A336.06,336.06,0,0,1,212.89,689C99.51,575.63,82,396.61,171.12,263.55c1.26-1.9,2.54-3.79,3.88-5.69l2.12-2.6c-1.09-.39-2.29-.87-3.4-1.28l-3.22-1.18-.88,1.26c-1.34,2-2.69,3.88-3.94,5.86-91,135.66-73,318.06,42.57,433.83a342.72,342.72,0,0,0,456,26.14,326.71,326.71,0,0,0,29.2-26.14,323.43,323.43,0,0,0,25.83-28.83L720,664C828.52,527.77,817.22,331.84,693.48,208.27Zm0,0C628.88,143.59,542.75,108,451,108s-178.07,35.6-242.81,100.28c-3.32,3.32-6.73,6.87-10.27,10.81l-.71.95c1.1.39,2.21.72,3.24,1.2,1.18.31,2.29.78,3.47,1.09,2.93-3.32,6-6.4,8.93-9.3,63.49-63.51,148-98.49,238.15-98.49S625.5,149.51,688.9,213C810.12,334.13,821.32,526.27,714.81,660l-.8,1a315.88,315.88,0,0,1-25.19,28.11,296.38,296.38,0,0,1-28.67,25.58A336.06,336.06,0,0,1,212.89,689C99.51,575.63,82,396.61,171.12,263.55c1.26-1.9,2.54-3.79,3.88-5.69l2.12-2.6c-1.09-.39-2.29-.87-3.4-1.28l-3.22-1.18-.88,1.26c-1.34,2-2.69,3.88-3.94,5.86-91,135.66-73,318.06,42.57,433.83a342.72,342.72,0,0,0,456,26.14,326.71,326.71,0,0,0,29.2-26.14,323.43,323.43,0,0,0,25.83-28.83L720,664C828.52,527.77,817.22,331.84,693.48,208.27Z"/><path class="cls-1" d="M934.48,866.93,781.68,714.19C779.47,712,765,698.56,765,698.56l6.4-9.16a399.14,399.14,0,0,0-38-520.94C658,93.22,557.74,51.76,451,51.76S243.77,93.22,168.44,168.46c-8.6,8.63-16.5,17.39-23.76,25.91-9.49,11.45-18.09,23-25.74,34.28C13.13,386.57,33.88,598.83,168.36,733.48,244,809.12,344.47,850.66,451.14,850.66c86.47,0,168.83-27.48,238.24-79.29l9.16-6.31S712,779.66,714,781.72L866.8,934.52a47.83,47.83,0,0,0,67.68-67.59ZM732.18,675.35a376.74,376.74,0,0,1-26.86,30,347.67,347.67,0,0,1-30.71,27.39,359.28,359.28,0,0,1-478.06-27.33C75.33,584.14,56.46,392.9,151.86,250.74c.86-1.17,1.73-2.51,2.68-3.86,5.3,1.9,10.58,3.86,16,5.92l3.22,1.18c1.11.41,2.31.89,3.4,1.28,40.82,15.39,87.73,32.44,147.11,45.64,46.29,10.26,80,.46,104.33-16.52L294.08,665.72H274.17c22,42.16,96.18,73.29,184.46,73.29h.72c88.2,0,162.44-31.13,184.46-73.29h-19.9L471.67,233.85a185.41,185.41,0,0,0,11.44-26.77h-.06a27.4,27.4,0,0,0,4.44-15c0-16.07-13.76-29.08-30.67-29.08s-30.76,13-30.76,29.08c0,14.36,11,26.32,25.46,28.63-16.75,27.64-54.89,69.86-121.82,45.71-34.92-12.48-81.19-28.67-125.8-44.08-1.18-.31-2.29-.78-3.47-1.09-1-.48-2.14-.81-3.24-1.2-5.77-2-11.46-4-17.14-6,5.28-5.84,10.73-11.76,16.42-17.37C264.39,128.76,354.8,91.4,451,91.4S637.5,128.76,705.24,196.66c129.59,129.43,141.43,335,27.41,478.05ZM443.64,271.84v0l0,0A125.23,125.23,0,0,0,453.58,261V665.72H304.35Zm20.68,393.88V243.81l.64,1.57L613.58,665.72Z"/></svg>