<svg xmlns="http://www.w3.org/2000/svg" viewBox="0 0 24 24" fill="currentColor" width="48" height="48">
  <path d="M9 12C9.552 12 10 12.448 10 13S9.552 14 9 14 8 13.552 8 13 8.448 12 9 12ZM15 12C15.552 12 16 12.448 16 13S15.552 14 15 14 14 13.552 14 13 14.448 12 15 12ZM12 2C17.523 2 22 6.477 22 12S17.523 22 12 22 2 17.523 2 12 6.477 2 12 2ZM12 4C7.582 4 4 7.582 4 12S7.582 20 12 20 20 16.418 20 12 16.418 4 12 4ZM7 10H17C17 8.343 15.657 7 14 7H10C8.343 7 7 8.343 7 10Z" fill="#2c5aa0"/>
  <circle cx="12" cy="16" r="2" fill="#f39c12"/>
</svg>
